<svg width="15" height="15" viewBox="0 0 15 15" fill="none" xmlns="http://www.w3.org/2000/svg">
<path d="M0.18225 4.3009L7.1175 0.107785C7.23406 0.037256 7.36744 0 7.50338 0C7.63931 0 7.77269 0.037256 7.88925 0.107785L14.8177 4.30166C14.8733 4.33525 14.9194 4.3828 14.9513 4.43966C14.9832 4.49653 15 4.56077 15 4.62612V14.2437C15 14.4443 14.921 14.6366 14.7803 14.7785C14.6397 14.9203 14.4489 15 14.25 15H0.75C0.551088 15 0.360322 14.9203 0.21967 14.7785C0.0790176 14.6366 8.25545e-09 14.4443 8.25545e-09 14.2437V4.62537C-1.35884e-05 4.56001 0.0167683 4.49577 0.0487091 4.43891C0.0806499 4.38204 0.126659 4.33449 0.18225 4.3009ZM1.5 5.26825V13.4873H13.5V5.2675L7.503 1.63709L1.5 5.2675V5.26825ZM7.545 9.47725L11.517 6.10173L12.483 7.25892L7.5555 11.4467L2.523 7.26422L3.477 6.09644L7.545 9.47725Z" fill="black"/>
</svg>
