<svg width="15" height="15" viewBox="0 0 15 15" fill="none" xmlns="http://www.w3.org/2000/svg">
<path fill-rule="evenodd" clip-rule="evenodd" d="M0.847217 4.30593C1.98524 1.70488 4.65166 0.00762356 7.61179 9.78648e-05C10.8021 -0.0158932 13.6388 1.92921 14.6333 4.81463C15.6278 7.70006 14.5529 10.8666 11.9726 12.6526C9.3923 14.4386 5.89616 14.4359 3.31889 12.646L1.02083 14.8334C0.787183 15.0555 0.40867 15.0555 0.17502 14.8334C-0.0583399 14.611 -0.0583399 14.2507 0.17502 14.0283L2.40126 11.9093C0.321763 9.90404 -0.290803 6.90699 0.847217 4.30593ZM1.91417 9.24256C2.86968 11.4343 5.11882 12.8617 7.61179 12.8587V12.8283C10.9953 12.8242 13.742 10.2233 13.7639 7.0028C13.7671 4.62988 12.2674 2.48904 9.96486 1.57955C7.66227 0.670047 5.01078 1.17122 3.24798 2.84913C1.48519 4.52704 0.958664 7.05085 1.91417 9.24256Z" fill="black"/>
</svg>
