<svg width="92" height="71" viewBox="0 0 92 71" fill="none" xmlns="http://www.w3.org/2000/svg">
<path d="M88.4758 16.4907L14.3837 0.619991C12.7851 0.277579 11.2114 1.29479 10.8687 2.892L0.620541 50.6558C0.277844 52.253 1.29591 53.8254 2.89444 54.1678L76.9866 70.0385C78.5851 70.3809 80.1588 69.3637 80.5015 67.7665L90.7497 20.0027C91.0924 18.4055 90.0743 16.8331 88.4758 16.4907Z" fill="#4D4E95"/>
<path d="M77.6042 70.2909C77.3828 70.2903 77.162 70.2663 76.9456 70.2194L2.85237 54.3463C2.0379 54.1696 1.3266 53.6778 0.874038 52.9786C0.421473 52.2793 0.264471 51.4294 0.437362 50.6147L10.687 2.85261C10.8645 2.03902 11.3567 1.32854 12.0563 0.87606C12.7559 0.423584 13.6062 0.265814 14.4217 0.437145L88.5248 16.3102C89.3393 16.4869 90.0506 16.9787 90.5032 17.678C90.9557 18.3773 91.1127 19.2272 90.9398 20.0418L80.6804 67.8064C80.5271 68.5085 80.1387 69.1373 79.5795 69.589C79.0202 70.0407 78.3234 70.2883 77.6042 70.2909ZM13.7631 0.737846C13.1288 0.740091 12.5142 0.958434 12.0208 1.35682C11.5275 1.7552 11.1849 2.3098 11.0496 2.92902L0.799984 50.6936C0.647461 51.4118 0.785443 52.1611 1.18382 52.778C1.58219 53.3949 2.20861 53.8294 2.92638 53.9865L77.0171 69.8571C77.7366 70.0093 78.4872 69.8708 79.1047 69.4717C79.7223 69.0727 80.1566 68.4456 80.3128 67.7275L90.5624 19.9654C90.7135 19.2467 90.5742 18.4974 90.1751 17.8807C89.7759 17.2639 89.1491 16.8297 88.4311 16.6725L14.3379 0.799465C14.149 0.758535 13.9563 0.737878 13.7631 0.737846Z" fill="#24071D"/>
<path d="M84.3263 8.57574H9.20935C7.39329 8.57574 5.92108 10.0467 5.92108 11.8613V60.0547C5.92108 61.8692 7.39329 63.3402 9.20935 63.3402H84.3263C86.1424 63.3402 87.6146 61.8692 87.6146 60.0547V11.8613C87.6146 10.0467 86.1424 8.57574 84.3263 8.57574Z" fill="#6667AB"/>
<path d="M84.3313 63.5251H9.20936C8.28859 63.5238 7.40591 63.1577 6.75482 62.5072C6.10374 61.8566 5.73739 60.9747 5.73608 60.0547V11.8613C5.73739 10.9412 6.10374 10.0593 6.75482 9.40876C7.40591 8.75822 8.28859 8.39217 9.20936 8.39087H84.3313C85.2522 8.39152 86.1353 8.75736 86.7865 9.40804C87.4377 10.0587 87.8039 10.941 87.8045 11.8613V60.0547C87.8039 60.9749 87.4377 61.8572 86.7865 62.5079C86.1353 63.1586 85.2522 63.5244 84.3313 63.5251ZM9.20936 8.76058C8.38653 8.76124 7.59758 9.08812 7.01575 9.66947C6.43392 10.2508 6.10676 11.0391 6.10611 11.8613V60.0547C6.10676 60.8768 6.43392 61.6651 7.01575 62.2465C7.59758 62.8278 8.38653 63.1547 9.20936 63.1553H84.3313C85.1541 63.1547 85.943 62.8278 86.5249 62.2465C87.1067 61.6651 87.4339 60.8768 87.4345 60.0547V11.8613C87.4339 11.0391 87.1067 10.2508 86.5249 9.66947C85.943 9.08812 85.1541 8.76124 84.3313 8.76058H9.20936Z" fill="#24071D"/>
<path d="M66.3409 29.6815C70.2114 29.6815 73.3491 26.5464 73.3491 22.6791C73.3491 18.8118 70.2114 15.6767 66.3409 15.6767C62.4703 15.6767 59.3326 18.8118 59.3326 22.6791C59.3326 26.5464 62.4703 29.6815 66.3409 29.6815Z" fill="#9091CA"/>
<path d="M66.3408 29.8663C64.9181 29.8663 63.5274 29.4448 62.3445 28.655C61.1616 27.8653 60.2396 26.7428 59.6951 25.4295C59.1507 24.1162 59.0083 22.6711 59.2858 21.2769C59.5634 19.8827 60.2484 18.6021 61.2544 17.5969C62.2604 16.5918 63.5421 15.9072 64.9375 15.6299C66.3328 15.3526 67.7792 15.4949 69.0936 16.0389C70.4079 16.5829 71.5314 17.5041 72.3218 18.686C73.1122 19.868 73.5341 21.2576 73.5341 22.6791C73.5321 24.5846 72.7736 26.4116 71.425 27.759C70.0765 29.1065 68.248 29.8643 66.3408 29.8663ZM66.3408 15.8615C64.9913 15.8615 63.6721 16.2614 62.5501 17.0105C61.428 17.7596 60.5534 18.8244 60.037 20.0701C59.5206 21.3158 59.3854 22.6866 59.6487 24.0091C59.912 25.3316 60.5618 26.5463 61.5161 27.4998C62.4703 28.4532 63.6861 29.1025 65.0097 29.3656C66.3333 29.6286 67.7052 29.4936 68.952 28.9776C70.1987 28.4616 71.2644 27.5878 72.0141 26.4667C72.7639 25.3455 73.164 24.0274 73.164 22.6791C73.1621 20.8715 72.4426 19.1386 71.1634 17.8605C69.8842 16.5824 68.1499 15.8635 66.3408 15.8615Z" fill="#24071D"/>
<path d="M74.0495 29.6815C77.92 29.6815 81.0577 26.5464 81.0577 22.6791C81.0577 18.8118 77.92 15.6767 74.0495 15.6767C70.179 15.6767 67.0413 18.8118 67.0413 22.6791C67.0413 26.5464 70.179 29.6815 74.0495 29.6815Z" fill="#4D4E95"/>
<path d="M74.0497 29.8663C72.627 29.8663 71.2363 29.4448 70.0533 28.655C68.8704 27.8653 67.9484 26.7428 67.404 25.4295C66.8596 24.1162 66.7171 22.6711 66.9947 21.2769C67.2722 19.8827 67.9573 18.6021 68.9633 17.5969C69.9693 16.5918 71.251 15.9072 72.6463 15.6299C74.0417 15.3526 75.488 15.4949 76.8024 16.0389C78.1168 16.5829 79.2402 17.5041 80.0306 18.686C80.821 19.868 81.2429 21.2576 81.2429 22.6791C81.2409 24.5846 80.4825 26.4116 79.1339 27.759C77.7853 29.1065 75.9568 29.8643 74.0497 29.8663ZM74.0497 15.8615C72.7004 15.8625 71.3817 16.2632 70.2602 17.0129C69.1388 17.7626 68.265 18.8277 67.7494 20.0735C67.2337 21.3193 67.0993 22.69 67.3631 24.0121C67.6269 25.3343 68.2772 26.5486 69.2316 27.5015C70.1861 28.4545 71.4018 29.1033 72.7253 29.3659C74.0487 29.6286 75.4204 29.4933 76.6669 28.9772C77.9134 28.461 78.9787 27.5872 79.7282 26.4662C80.4778 25.3451 80.8778 24.0272 80.8778 22.6791C80.8759 20.8707 80.1557 19.137 78.8754 17.8588C77.5952 16.5805 75.8596 15.8622 74.0497 15.8615Z" fill="#24071D"/>
<path d="M26.5017 49.2245H15.0606C14.107 49.2245 13.3339 49.997 13.3339 50.9499V55.7709C13.3339 56.7238 14.107 57.4963 15.0606 57.4963H26.5017C27.4554 57.4963 28.2285 56.7238 28.2285 55.7709V50.9499C28.2285 49.997 27.4554 49.2245 26.5017 49.2245Z" fill="#4D4E95"/>
<path d="M26.5017 57.6787H15.0606C14.5537 57.678 14.0679 57.4765 13.7095 57.1184C13.3511 56.7604 13.1495 56.2749 13.1488 55.7685V50.9499C13.1495 50.4434 13.3511 49.958 13.7095 49.5999C14.0679 49.2418 14.5537 49.0403 15.0606 49.0397H26.5017C27.0087 49.0397 27.495 49.2409 27.8535 49.5992C28.212 49.9574 28.4135 50.4432 28.4135 50.9499V55.7685C28.4135 56.2751 28.212 56.7609 27.8535 57.1192C27.495 57.4774 27.0087 57.6787 26.5017 57.6787ZM15.0606 49.4094C14.6517 49.4094 14.2595 49.5717 13.9704 49.8606C13.6813 50.1495 13.5188 50.5413 13.5188 50.9499V55.7685C13.5188 56.177 13.6813 56.5688 13.9704 56.8577C14.2595 57.1466 14.6517 57.3089 15.0606 57.3089H26.5017C26.9106 57.3089 27.3027 57.1466 27.5919 56.8577C27.881 56.5688 28.0434 56.177 28.0434 55.7685V50.9499C28.0434 50.5413 27.881 50.1495 27.5919 49.8606C27.3027 49.5717 26.9106 49.4094 26.5017 49.4094H15.0606Z" fill="#24071D"/>
<path d="M43.1773 19.6745H14.8756C13.9219 19.6745 13.1488 20.447 13.1488 21.3999V26.073C13.1488 27.0259 13.9219 27.7984 14.8756 27.7984H43.1773C44.131 27.7984 44.9041 27.0259 44.9041 26.073V21.3999C44.9041 20.447 44.131 19.6745 43.1773 19.6745Z" fill="#CBCCEF"/>
<path d="M43.1774 27.9833H14.8756C14.3688 27.9826 13.8829 27.7812 13.5245 27.4231C13.1661 27.065 12.9645 26.5795 12.9639 26.0731V21.39C12.9645 20.8836 13.1661 20.3982 13.5245 20.0401C13.8829 19.682 14.3688 19.4805 14.8756 19.4799H43.1774C43.6843 19.4805 44.1701 19.682 44.5285 20.0401C44.8869 20.3982 45.0885 20.8836 45.0892 21.39V26.0731C45.0885 26.5795 44.8869 27.065 44.5285 27.4231C44.1701 27.7812 43.6843 27.9826 43.1774 27.9833ZM14.8756 19.8496C14.4669 19.8502 14.0752 20.0127 13.7862 20.3015C13.4972 20.5902 13.3345 20.9817 13.3339 21.39V26.0731C13.3345 26.4815 13.4972 26.8729 13.7862 27.1617C14.0752 27.4504 14.4669 27.6129 14.8756 27.6136H43.1774C43.5863 27.6136 43.9785 27.4513 44.2676 27.1624C44.5567 26.8735 44.7192 26.4817 44.7192 26.0731V21.39C44.7192 20.9815 44.5567 20.5897 44.2676 20.3008C43.9785 20.0119 43.5863 19.8496 43.1774 19.8496H14.8756Z" fill="#24071D"/>
<path d="M35.0714 31.9762H14.8756C13.9219 31.9762 13.1488 32.7486 13.1488 33.7015V35.3085C13.1488 36.2614 13.9219 37.0338 14.8756 37.0338H35.0714C36.025 37.0338 36.7981 36.2614 36.7981 35.3085V33.7015C36.7981 32.7486 36.025 31.9762 35.0714 31.9762Z" fill="#3A3B82"/>
<path d="M44.5144 49.2245H33.0733C32.1197 49.2245 31.3466 49.997 31.3466 50.9499V55.7709C31.3466 56.7238 32.1197 57.4963 33.0733 57.4963H44.5144C45.4681 57.4963 46.2412 56.7238 46.2412 55.7709V50.9499C46.2412 49.997 45.4681 49.2245 44.5144 49.2245Z" fill="#4D4E95"/>
<path d="M44.5168 57.6787H33.0733C32.5664 57.678 32.0806 57.4765 31.7222 57.1184C31.3638 56.7604 31.1622 56.2749 31.1615 55.7685V50.9499C31.1622 50.4434 31.3638 49.958 31.7222 49.5999C32.0806 49.2418 32.5664 49.0403 33.0733 49.0397H44.5168C45.0237 49.0403 45.5096 49.2418 45.868 49.5999C46.2263 49.958 46.428 50.4434 46.4286 50.9499V55.7685C46.428 56.2749 46.2263 56.7604 45.868 57.1184C45.5096 57.4765 45.0237 57.678 44.5168 57.6787ZM33.0733 49.4094C32.6646 49.41 32.2728 49.5726 31.9838 49.8613C31.6948 50.1501 31.5322 50.5415 31.5315 50.9499V55.7685C31.5322 56.1768 31.6948 56.5683 31.9838 56.857C32.2728 57.1458 32.6646 57.3083 33.0733 57.3089H44.5168C44.9255 57.3083 45.3173 57.1458 45.6063 56.857C45.8953 56.5683 46.058 56.1768 46.0586 55.7685V50.9499C46.058 50.5415 45.8953 50.1501 45.6063 49.8613C45.3173 49.5726 44.9255 49.41 44.5168 49.4094H33.0733Z" fill="#24071D"/>
<path d="M62.527 49.2245H51.0859C50.1322 49.2245 49.3591 49.997 49.3591 50.9499V55.7709C49.3591 56.7238 50.1322 57.4963 51.0859 57.4963H62.527C63.4806 57.4963 64.2538 56.7238 64.2538 55.7709V50.9499C64.2538 49.997 63.4806 49.2245 62.527 49.2245Z" fill="#4D4E95"/>
<path d="M62.5297 57.6787H51.0861C50.5793 57.678 50.0934 57.4765 49.735 57.1184C49.3766 56.7604 49.175 56.2749 49.1743 55.7685V50.9499C49.175 50.4434 49.3766 49.958 49.735 49.5999C50.0934 49.2418 50.5793 49.0403 51.0861 49.0397H62.5297C63.0365 49.0403 63.5224 49.2418 63.8808 49.5999C64.2392 49.958 64.4408 50.4434 64.4414 50.9499V55.7685C64.4408 56.2749 64.2392 56.7604 63.8808 57.1184C63.5224 57.4765 63.0365 57.678 62.5297 57.6787ZM51.0861 49.4094C50.6774 49.41 50.2856 49.5726 49.9966 49.8613C49.7076 50.1501 49.545 50.5415 49.5443 50.9499V55.7685C49.545 56.1768 49.7076 56.5683 49.9966 56.857C50.2856 57.1458 50.6774 57.3083 51.0861 57.3089H62.5297C62.9383 57.3083 63.3301 57.1458 63.6191 56.857C63.9081 56.5683 64.0708 56.1768 64.0714 55.7685V50.9499C64.0708 50.5415 63.9081 50.1501 63.6191 49.8613C63.3301 49.5726 62.9383 49.41 62.5297 49.4094H51.0861Z" fill="#24071D"/>
<path d="M80.5422 49.2245H69.1012C68.1475 49.2245 67.3744 49.997 67.3744 50.9499V55.7709C67.3744 56.7238 68.1475 57.4963 69.1012 57.4963H80.5422C81.4959 57.4963 82.269 56.7238 82.269 55.7709V50.9499C82.269 49.997 81.4959 49.2245 80.5422 49.2245Z" fill="#4D4E95"/>
<path d="M80.5423 57.6787H69.1012C68.5942 57.6787 68.1079 57.4774 67.7494 57.1192C67.3909 56.7609 67.1895 56.2751 67.1895 55.7685V50.9499C67.1895 50.4432 67.3909 49.9574 67.7494 49.5992C68.1079 49.2409 68.5942 49.0397 69.1012 49.0397H80.5423C81.0492 49.0403 81.5351 49.2418 81.8934 49.5999C82.2518 49.958 82.4535 50.4434 82.4541 50.9499V55.7685C82.4535 56.2749 82.2518 56.7604 81.8934 57.1184C81.5351 57.4765 81.0492 57.678 80.5423 57.6787ZM69.1012 49.4094C68.6923 49.4094 68.3002 49.5717 68.011 49.8606C67.7219 50.1495 67.5595 50.5413 67.5595 50.9499V55.7685C67.5595 56.177 67.7219 56.5688 68.011 56.8577C68.3002 57.1466 68.6923 57.3089 69.1012 57.3089H80.5423C80.9512 57.3089 81.3434 57.1466 81.6325 56.8577C81.9216 56.5688 82.0841 56.177 82.0841 55.7685V50.9499C82.0841 50.5413 81.9216 50.1495 81.6325 49.8606C81.3434 49.5717 80.9512 49.4094 80.5423 49.4094H69.1012Z" fill="#24071D"/>
<path opacity="0.26" d="M87.6146 11.8613V60.0547C87.612 60.9244 87.2654 61.7579 86.6504 62.3733C86.0354 62.9888 85.2018 63.3363 84.3313 63.3402H76.2722L79.5901 62.1621C82.274 61.2107 84.134 57.3903 84.1389 54.5213C84.166 43.0183 84.2252 14.3827 84.1389 8.58313H84.3313C85.2005 8.58702 86.033 8.93356 86.6478 9.54742C87.2626 10.1613 87.6101 10.9928 87.6146 11.8613Z" fill="#680000"/>
<path d="M84.198 37.9015C84.1736 37.9018 84.1494 37.8972 84.1268 37.8881C84.1042 37.8789 84.0837 37.8653 84.0664 37.848C84.0492 37.8308 84.0355 37.8103 84.0264 37.7877C84.0172 37.7651 84.0126 37.741 84.013 37.7166V22.1221C84.013 22.073 84.0324 22.026 84.0671 21.9913C84.1018 21.9567 84.1489 21.9372 84.198 21.9372C84.247 21.9372 84.2941 21.9567 84.3288 21.9913C84.3635 22.026 84.383 22.073 84.383 22.1221V37.7166C84.383 37.7656 84.3635 37.8126 84.3288 37.8473C84.2941 37.882 84.247 37.9015 84.198 37.9015Z" fill="white"/>
<path d="M84.198 48.2953C84.1493 48.2953 84.1026 48.2762 84.068 48.2421C84.0334 48.2079 84.0136 48.1615 84.013 48.1129L83.939 42.7422C83.9389 42.6934 83.958 42.6465 83.9921 42.6115C84.0262 42.5765 84.0726 42.5562 84.1215 42.5549C84.1702 42.5549 84.2168 42.574 84.2515 42.6082C84.2861 42.6423 84.3059 42.6887 84.3065 42.7373L84.3805 48.108C84.3805 48.1568 84.3615 48.2038 84.3274 48.2387C84.2933 48.2737 84.2468 48.294 84.198 48.2953Z" fill="white"/>
<path d="M77.7474 26.3171C77.7193 26.3176 77.6915 26.3117 77.666 26.2999C77.6224 26.2781 77.5889 26.2402 77.5728 26.1941C77.5567 26.1481 77.5591 26.0976 77.5797 26.0534C80.0638 20.9859 76.3463 18.6271 76.1859 18.5309C76.1465 18.5051 76.1184 18.4653 76.1074 18.4194C76.0964 18.3736 76.1033 18.3254 76.1267 18.2845C76.1513 18.2437 76.1911 18.2143 76.2373 18.2027C76.2836 18.1912 76.3325 18.1984 76.3734 18.2229C76.4178 18.2475 80.5423 20.8478 77.9078 26.2235C77.8919 26.252 77.8686 26.2757 77.8404 26.2922C77.8122 26.3087 77.7801 26.3173 77.7474 26.3171Z" fill="white"/>
<path d="M79.9625 55.8917C79.9136 55.8911 79.8669 55.8714 79.8324 55.8369C79.7978 55.8023 79.7781 55.7557 79.7775 55.7069V51.1618C79.7775 51.1128 79.797 51.0658 79.8316 51.0311C79.8663 50.9965 79.9134 50.977 79.9625 50.977C80.0115 50.977 80.0586 50.9965 80.0933 51.0311C80.128 51.0658 80.1474 51.1128 80.1474 51.1618V55.7069C80.1474 55.7559 80.128 55.8029 80.0933 55.8376C80.0586 55.8722 80.0115 55.8917 79.9625 55.8917Z" fill="white"/>
<path d="M62.0533 55.8917C62.0042 55.8917 61.9572 55.8722 61.9225 55.8376C61.8878 55.8029 61.8683 55.7559 61.8683 55.7069V51.1618C61.8683 51.1128 61.8878 51.0658 61.9225 51.0311C61.9572 50.9965 62.0042 50.977 62.0533 50.977C62.1024 50.977 62.1494 50.9965 62.1841 51.0311C62.2188 51.0658 62.2383 51.1128 62.2383 51.1618V55.7069C62.2377 55.7557 62.218 55.8023 62.1834 55.8369C62.1489 55.8714 62.1022 55.8911 62.0533 55.8917Z" fill="white"/>
<path d="M44.1418 55.8917C44.0929 55.8911 44.0462 55.8714 44.0117 55.8369C43.9771 55.8023 43.9574 55.7557 43.9568 55.7069V51.1618C43.9568 51.1128 43.9763 51.0658 44.011 51.0311C44.0457 50.9965 44.0927 50.977 44.1418 50.977C44.1909 50.977 44.2379 50.9965 44.2726 51.0311C44.3073 51.0658 44.3268 51.1128 44.3268 51.1618V55.7069C44.3262 55.7557 44.3065 55.8023 44.2719 55.8369C44.2374 55.8714 44.1907 55.8911 44.1418 55.8917Z" fill="white"/>
<path d="M26.2327 55.8917C26.1837 55.8917 26.1366 55.8722 26.1019 55.8376C26.0672 55.8029 26.0477 55.7559 26.0477 55.7069V51.1618C26.0477 51.1128 26.0672 51.0658 26.1019 51.0311C26.1366 50.9965 26.1837 50.977 26.2327 50.977C26.2818 50.977 26.3289 50.9965 26.3636 51.0311C26.3983 51.0658 26.4178 51.1128 26.4178 51.1618V55.7069C26.4171 55.7557 26.3974 55.8023 26.3629 55.8369C26.3283 55.8714 26.2816 55.8911 26.2327 55.8917Z" fill="white"/>
</svg>
