<svg width="82" height="82" viewBox="0 0 82 82" fill="none" xmlns="http://www.w3.org/2000/svg">
<path d="M41 81.8235C32.891 81.8235 24.9641 79.436 18.2216 74.9627C11.4792 70.4895 6.22415 64.1315 3.12096 56.6927C0.0177661 49.254 -0.794172 41.0686 0.787821 33.1717C2.36982 25.2748 6.27469 18.021 12.0086 12.3277C17.7426 6.63432 25.0481 2.75709 33.0013 1.1863C40.9545 -0.384496 49.1983 0.42169 56.69 3.50291C64.1818 6.58414 70.5851 11.802 75.0903 18.4967C79.5954 25.1914 82 33.0622 82 41.1138C81.9865 51.9066 77.6625 62.2535 69.9765 69.8851C62.2904 77.5168 51.8697 81.8101 41 81.8235ZM41 1.24809C33.0591 1.24809 25.2965 3.58618 18.6939 7.96668C12.0913 12.3472 6.94514 18.5733 3.90629 25.8579C0.867432 33.1424 0.0723265 41.158 1.62152 48.8912C3.17072 56.6244 6.99463 63.7278 12.6097 69.3031C18.2248 74.8784 25.3788 78.6753 33.1671 80.2135C40.9555 81.7517 49.0283 80.9622 56.3647 77.9449C63.7012 74.9276 69.9717 69.8179 74.3835 63.262C78.7952 56.7061 81.15 48.9985 81.15 41.1138C81.1335 30.5473 76.8976 20.4186 69.3711 12.9486C61.8446 5.47851 51.6418 1.27687 41 1.26497V1.24809Z" fill="#24071D"/>
<path d="M41.0003 73.6025C59.0715 73.6025 73.721 59.0567 73.721 41.1135C73.721 23.1703 59.0715 8.62451 41.0003 8.62451C22.9292 8.62451 8.27966 23.1703 8.27966 41.1135C8.27966 59.0567 22.9292 73.6025 41.0003 73.6025Z" fill="white"/>
<path d="M41.0003 81.4019C63.4092 81.4019 81.5752 63.3644 81.5752 41.1141C81.5752 18.8638 63.4092 0.826416 41.0003 0.826416C18.5913 0.826416 0.425293 18.8638 0.425293 41.1141C0.425293 63.3644 18.5913 81.4019 41.0003 81.4019Z" fill="#4D4E95"/>
<path d="M41.0002 74.0078C34.4456 74.0123 28.037 72.0864 22.585 68.4737C17.1329 64.8611 12.8825 59.7241 10.3713 53.7125C7.86015 47.701 7.20108 41.0849 8.47747 34.7013C9.75387 28.3178 12.9084 22.4535 17.542 17.8504C22.1756 13.2472 28.08 10.112 34.5084 8.84139C40.9369 7.57076 47.6004 8.22176 53.6562 10.7121C59.7119 13.2024 64.8877 17.4201 68.5289 22.8317C72.17 28.2432 74.113 34.6055 74.1118 41.1137C74.1014 49.8316 70.61 58.1898 64.4031 64.3559C58.1962 70.522 49.7803 73.9929 41.0002 74.0078ZM41.0002 9.03539C34.6116 9.03539 28.3664 10.9164 23.0545 14.4406C17.7426 17.9648 13.6025 22.9739 11.1576 28.8344C8.71284 34.6949 8.07316 41.1436 9.31951 47.3651C10.5659 53.5866 13.6423 59.3014 18.1597 63.7868C22.6771 68.2722 28.4326 71.3269 34.6985 72.5644C40.9643 73.8019 47.459 73.1668 53.3613 70.7393C59.2636 68.3118 64.3084 64.201 67.8577 58.9266C71.407 53.6523 73.3015 47.4514 73.3015 41.108C73.291 32.605 69.8844 24.4533 63.829 18.4408C57.7737 12.4282 49.5638 9.04582 41.0002 9.03539Z" fill="#24071D"/>
<path d="M53.8639 76.1012C53.7675 76.1004 53.6742 76.067 53.5993 76.0066C53.5245 75.9462 53.4726 75.8622 53.4522 75.7686C53.4317 75.675 53.444 75.5773 53.4869 75.4915C53.5298 75.4057 53.6008 75.337 53.6883 75.2966C70.8476 67.4191 73.9247 55.8223 73.9531 55.7041C73.9665 55.6502 73.9904 55.5994 74.0236 55.5546C74.0568 55.5099 74.0985 55.4721 74.1464 55.4433C74.1943 55.4146 74.2474 55.3955 74.3027 55.3871C74.358 55.3788 74.4144 55.3813 74.4688 55.3946C74.5231 55.4079 74.5742 55.4317 74.6193 55.4646C74.6644 55.4976 74.7025 55.539 74.7314 55.5866C74.7603 55.6341 74.7796 55.6868 74.788 55.7418C74.7964 55.7967 74.7938 55.8527 74.7804 55.9067C74.6614 56.3962 71.6013 67.9874 54.0453 76.0618C53.9878 76.0861 53.9263 76.0995 53.8639 76.1012Z" fill="white"/>
<path d="M4.07479 38.3004H4.02946C3.91756 38.289 3.81477 38.2341 3.7436 38.1476C3.67243 38.0611 3.63869 37.9502 3.64977 37.839C5.1175 23.7721 11.0167 18.5561 11.2831 18.3366C11.3688 18.262 11.4808 18.2242 11.5945 18.2316C11.7082 18.239 11.8143 18.2909 11.8894 18.376C11.9646 18.4611 12.0026 18.5723 11.9952 18.6852C11.9878 18.7981 11.9354 18.9035 11.8498 18.9781C11.7931 19.0287 5.93353 24.2335 4.48281 37.929C4.46959 38.0287 4.42145 38.1205 4.34684 38.1884C4.27222 38.2563 4.17591 38.296 4.07479 38.3004Z" fill="white"/>
<path d="M69.3802 42.9877H40.7057V16.4744H41.5217V42.1831H69.3802V42.9877Z" fill="#24071D"/>
<path d="M41.1081 46.4932C43.5649 46.4932 45.5566 44.5157 45.5566 42.0762C45.5566 39.6367 43.5649 37.6592 41.1081 37.6592C38.6512 37.6592 36.6595 39.6367 36.6595 42.0762C36.6595 44.5157 38.6512 46.4932 41.1081 46.4932Z" fill="#24071D"/>
</svg>
