<svg width="104" height="81" viewBox="0 0 104 81" fill="none" xmlns="http://www.w3.org/2000/svg">
<path d="M103.516 77.6135H1.00914C0.965015 77.6135 0.922699 77.596 0.8915 77.5648C0.860301 77.5335 0.842773 77.4912 0.842773 77.447C0.842773 77.4029 0.860301 77.3605 0.8915 77.3293C0.922699 77.2981 0.965015 77.2805 1.00914 77.2805H103.516C103.56 77.2805 103.602 77.2981 103.633 77.3293C103.665 77.3605 103.682 77.4029 103.682 77.447C103.682 77.4912 103.665 77.5335 103.633 77.5648C103.602 77.596 103.56 77.6135 103.516 77.6135Z" fill="#24071D"/>
<path opacity="0.26" d="M101.779 80.404H2.74605C1.83216 80.404 1.09351 79.778 1.09351 79.0099C1.09351 78.2395 1.83216 77.6157 2.74605 77.6157H101.779C102.693 77.6157 103.434 78.2395 103.434 79.0099C103.434 79.778 102.691 80.404 101.779 80.404Z" fill="#38394D"/>
<path d="M103.283 24.3425C103.101 23.9029 102.794 23.5269 102.399 23.2618C102.004 22.9967 101.54 22.8545 101.065 22.8529C101.067 21.9209 100.744 21.0174 100.151 20.2987C99.558 19.5801 98.7327 19.0914 97.8179 18.9173C96.9031 18.7432 95.9562 18.8946 95.1411 19.3453C94.326 19.796 93.694 20.5177 93.3543 21.3855C92.9828 21.1455 92.5605 20.9956 92.1209 20.9477C91.6814 20.8998 91.2367 20.9552 90.8223 21.1095C90.4079 21.2639 90.0352 21.5129 89.7339 21.8367C89.4326 22.1606 89.2109 22.5503 89.0865 22.975C88.7253 22.8549 88.3407 22.8226 87.9645 22.8806C87.5882 22.9387 87.2312 23.0854 86.9229 23.3088C86.6145 23.5322 86.3637 23.8258 86.191 24.1653C86.0184 24.5049 85.929 24.8806 85.9301 25.2616C85.9301 25.3326 85.9301 25.4015 85.9301 25.4703C85.9817 26.0706 86.2565 26.6296 86.7 27.037C87.1436 27.4443 87.7237 27.6703 88.3257 27.6703H100.83C100.849 27.6735 100.868 27.6735 100.887 27.6703C100.943 27.6703 100.998 27.6703 101.056 27.6703C101.694 27.6703 102.306 27.4165 102.758 26.9648C103.209 26.5131 103.463 25.9004 103.463 25.2616C103.464 24.9464 103.403 24.634 103.283 24.3425Z" fill="#CACBFF"/>
<path d="M24.8215 19.7759C24.404 19.7762 23.9892 19.8429 23.5926 19.9735C23.3889 19.2761 23.0253 18.6361 22.5306 18.1044C22.0359 17.5727 21.4239 17.164 20.7434 16.9111C20.0629 16.6581 19.3328 16.5678 18.6112 16.6474C17.8897 16.727 17.1967 16.9742 16.5876 17.3694C16.032 15.9448 14.9958 14.7595 13.6588 14.0191C12.3217 13.2787 10.768 13.0298 9.26679 13.3156C7.76562 13.6013 6.41163 14.4036 5.43946 15.5835C4.4673 16.7634 3.93822 18.2466 3.94393 19.7759C2.89793 19.7759 1.89478 20.1917 1.15515 20.932C0.41552 21.6722 0 22.6762 0 23.723C0 24.7699 0.41552 25.7739 1.15515 26.5141C1.89478 27.2543 2.89793 27.6702 3.94393 27.6702C4.03931 27.6702 4.13247 27.6702 4.22785 27.6591C4.25618 27.6661 4.2852 27.6698 4.31436 27.6702H24.8037C25.7906 27.6699 26.7414 27.2992 27.4684 26.6313C28.1953 25.9633 28.6455 25.0468 28.7299 24.0627C28.741 23.9517 28.7454 23.8407 28.7454 23.723C28.746 22.6795 28.3334 21.6782 27.598 20.9384C26.8625 20.1986 25.8642 19.7806 24.8215 19.7759Z" fill="#CACBFF"/>
<path d="M81.4627 37.2852H23.0646V78.6171H81.4627V37.2852Z" fill="#6667AB"/>
<path d="M81.4626 78.7834H23.0646C23.0204 78.7834 22.9781 78.7658 22.9469 78.7346C22.9157 78.7034 22.8982 78.661 22.8982 78.6169V37.2849C22.8979 37.263 22.902 37.2412 22.9103 37.2209C22.9185 37.2005 22.9308 37.182 22.9463 37.1665C22.9618 37.151 22.9802 37.1388 23.0006 37.1305C23.0209 37.1222 23.0426 37.1181 23.0646 37.1184H81.4626C81.5068 37.1184 81.5491 37.136 81.5803 37.1672C81.6115 37.1984 81.629 37.2408 81.629 37.2849V78.6169C81.6284 78.6609 81.6107 78.7029 81.5796 78.734C81.5486 78.7651 81.5066 78.7828 81.4626 78.7834ZM23.242 78.4504H81.2963V37.4536H23.242V78.4504Z" fill="#24071D"/>
<path d="M37.2721 53.0938H39.5834C41.4584 53.0938 43.2565 53.8392 44.5822 55.166C45.908 56.4929 46.6528 58.2924 46.6528 60.1689V78.6171H30.2028V60.1689C30.2028 58.2924 30.9476 56.4929 32.2733 55.166C33.5991 53.8392 35.3972 53.0938 37.2721 53.0938Z" fill="white"/>
<path d="M46.8191 78.7814H30.0364V60.1689C30.0387 58.249 30.8018 56.4084 32.1583 55.0509C33.5147 53.6933 35.3538 52.9296 37.2721 52.9272H39.5834C41.5019 52.929 43.3413 53.6925 44.6979 55.0502C46.0545 56.4079 46.8174 58.2488 46.8191 60.1689V78.7814ZM30.3691 78.4484H46.4864V60.1689C46.4847 58.3371 45.7568 56.5809 44.4626 55.2857C43.1685 53.9904 41.4137 53.262 39.5834 53.2602H37.2721C35.4418 53.262 33.6871 53.9904 32.3929 55.2857C31.0987 56.5809 30.3709 58.3371 30.3691 60.1689V78.4484Z" fill="#24071D"/>
<path opacity="0.26" d="M46.8457 60.362V78.8079H43.962V60.362C43.9624 58.5349 43.2565 56.7785 41.9921 55.4605C40.7277 54.1425 39.0029 53.3652 37.1788 53.2913H37.465H39.7763C41.6505 53.2913 43.4479 54.0361 44.7735 55.362C46.0992 56.6878 46.8445 58.4863 46.8457 60.362Z" fill="#680000"/>
<g opacity="0.26">
<path opacity="0.26" d="M33.1129 37.2852V42.8063C33.1129 45.4903 30.2537 47.6659 26.729 47.6659C25.4532 47.6757 24.1946 47.3707 23.0646 46.7779V37.2852H33.1129Z" fill="#680000"/>
<path opacity="0.26" d="M71.4143 37.2852V41.9294C71.4137 43.451 70.8093 44.9101 69.734 45.9858C68.6588 47.0616 67.2006 47.6659 65.6803 47.6659H64.3804C62.8598 47.6653 61.4017 47.0605 60.3265 45.9844C59.2513 44.9083 58.647 43.449 58.6464 41.9272C58.6464 43.4488 58.0426 44.9081 56.9677 45.9843C55.8929 47.0604 54.435 47.6653 52.9146 47.6659H51.6148C50.0938 47.6659 48.6351 47.0613 47.5594 45.9852C46.4837 44.909 45.8791 43.4494 45.8786 41.9272C45.8786 43.4492 45.2744 44.9088 44.1991 45.985C43.1238 47.0613 41.6653 47.6659 40.1446 47.6659H38.8469C37.3262 47.6659 35.8677 47.0613 34.7924 45.985C33.717 44.9088 33.1129 43.4492 33.1129 41.9272V37.2852H71.4143Z" fill="#680000"/>
<path opacity="0.26" d="M81.4627 37.2852V46.7779C80.3317 47.3704 79.0725 47.6754 77.796 47.6659C74.2713 47.6659 71.4143 45.4903 71.4143 42.8063V37.2852H81.4627Z" fill="#680000"/>
</g>
<path d="M75.081 53.0938H53.762C53.1495 53.0938 52.653 53.5907 52.653 54.2038V70.9648C52.653 71.5778 53.1495 72.0748 53.762 72.0748H75.081C75.6935 72.0748 76.1901 71.5778 76.1901 70.9648V54.2038C76.1901 53.5907 75.6935 53.0938 75.081 53.0938Z" fill="#CACBFF"/>
<path d="M75.081 72.2412H53.762C53.4239 72.2407 53.0999 72.106 52.8608 71.8667C52.6217 71.6274 52.4872 71.3031 52.4866 70.9647V54.2037C52.4872 53.8654 52.6217 53.541 52.8608 53.3018C53.0999 53.0625 53.4239 52.9278 53.762 52.9272H75.081C75.4191 52.9278 75.7432 53.0625 75.9822 53.3018C76.2213 53.541 76.3559 53.8654 76.3564 54.2037V70.9758C76.3529 71.3123 76.2171 71.6338 75.9783 71.8707C75.7396 72.1075 75.4172 72.2407 75.081 72.2412ZM53.762 53.2602C53.512 53.2602 53.2722 53.3596 53.0954 53.5366C52.9186 53.7135 52.8193 53.9535 52.8193 54.2037V70.9758C52.8199 71.2259 52.9194 71.4655 53.0961 71.6423C53.2727 71.8192 53.5122 71.9188 53.762 71.9193H75.081C75.2056 71.9205 75.3293 71.897 75.4448 71.8501C75.5603 71.8033 75.6655 71.734 75.7541 71.6463C75.8428 71.5586 75.9132 71.4542 75.9614 71.3391C76.0096 71.2241 76.0345 71.1006 76.0348 70.9758V54.2148C76.0348 53.9646 75.9355 53.7246 75.7587 53.5477C75.5819 53.3707 75.3421 53.2713 75.0921 53.2713L53.762 53.2602Z" fill="#24071D"/>
<path d="M57.7037 66.82C57.5993 66.8276 57.4949 66.8061 57.402 66.7578C57.3527 66.7383 57.3088 66.7072 57.2741 66.6671C57.2393 66.6271 57.2147 66.5792 57.2023 66.5276C57.1899 66.476 57.1901 66.4222 57.2028 66.3707C57.2156 66.3192 57.2405 66.2715 57.2755 66.2317L65.3719 56.5458C65.4551 56.4568 65.5649 56.397 65.6848 56.3754C65.8047 56.3538 65.9283 56.3715 66.0374 56.4259C66.0866 56.4452 66.1305 56.476 66.1653 56.5159C66.2001 56.5558 66.2247 56.6034 66.2371 56.6549C66.2496 56.7063 66.2494 56.76 66.2366 56.8114C66.2238 56.8627 66.1989 56.9102 66.1638 56.9499L58.0674 66.6424C58.0215 66.6946 57.9658 66.7372 57.9033 66.7676C57.8409 66.7981 57.773 66.8159 57.7037 66.82Z" fill="white"/>
<path d="M64.7486 68.6759C64.6448 68.6855 64.5404 68.6663 64.4469 68.6204C64.3976 68.6009 64.3537 68.5697 64.319 68.5297C64.2842 68.4896 64.2596 68.4418 64.2472 68.3902C64.2348 68.3386 64.235 68.2848 64.2477 68.2333C64.2605 68.1818 64.2854 68.1341 64.3205 68.0942L71.2168 59.8358C71.3004 59.7474 71.4101 59.6881 71.5299 59.6665C71.6496 59.6449 71.7731 59.6623 71.8823 59.716C71.9314 59.7354 71.975 59.7665 72.0096 59.8064C72.0441 59.8464 72.0685 59.8941 72.0807 59.9455C72.0929 59.997 72.0925 60.0506 72.0796 60.1018C72.0667 60.153 72.0416 60.2004 72.0065 60.2399L65.1102 68.4983C65.0171 68.602 64.8875 68.6657 64.7486 68.6759Z" fill="white"/>
<path d="M84.1822 30.947V34.6721H20.3451V31.1201L20.7887 28.9823L23.2908 16.9499C23.4945 15.9681 24.0302 15.0866 24.8077 14.4541C25.5851 13.8216 26.5567 13.4768 27.5586 13.4778H77.0041C78.0058 13.4776 78.977 13.8227 79.7543 14.4551C80.5316 15.0874 81.0675 15.9685 81.2719 16.9499L83.774 28.9823L84.1822 30.947Z" fill="white"/>
<path d="M84.3486 34.8386H20.1788V31.0912L23.1246 16.9209C23.3407 15.9031 23.899 14.9902 24.7064 14.3345C25.5137 13.6789 26.5212 13.32 27.5609 13.3179H77.0042C78.0439 13.32 79.0515 13.6789 79.8588 14.3345C80.6661 14.9902 81.2244 15.9031 81.4406 16.9209L84.3553 30.9447L84.3486 34.8386ZM20.5116 34.5056H84.0203V30.9536L81.1123 16.9809C80.91 16.0408 80.3928 15.1981 79.6465 14.5925C78.9002 13.9869 77.9695 13.6546 77.0086 13.6509H27.5587C26.5979 13.6546 25.6672 13.9869 24.9209 14.5925C24.1745 15.1981 23.6574 16.0408 23.4551 16.9809L20.5116 31.1334V34.5056Z" fill="#24071D"/>
<path d="M33.1107 33.0403V40.091C33.1107 42.7772 30.2537 44.9528 26.729 44.9528C23.2043 44.9528 20.3451 42.7772 20.3451 40.091V33.0403H33.1107Z" fill="#4D4E95"/>
<path d="M26.7291 45.1193C23.1179 45.1193 20.1788 42.8638 20.1788 40.091V33.0403C20.1788 32.9961 20.1964 32.9538 20.2276 32.9225C20.2588 32.8913 20.3011 32.8738 20.3452 32.8738H33.1108C33.155 32.8738 33.1973 32.8913 33.2285 32.9225C33.2597 32.9538 33.2772 32.9961 33.2772 33.0403V40.091C33.2772 42.8638 30.3403 45.1193 26.7291 45.1193ZM20.5182 33.2068V40.0888C20.5182 42.6773 23.3065 44.7841 26.7291 44.7841C30.1518 44.7841 32.94 42.6773 32.94 40.0888V33.2068H20.5182Z" fill="#24071D"/>
<path d="M33.1129 33.0403H45.8808V39.4516C45.8808 40.9083 45.3026 42.3053 44.2734 43.3353C43.2443 44.3653 41.8484 44.9439 40.393 44.9439H38.5985C37.1434 44.9433 35.7481 44.3644 34.7195 43.3345C33.6908 42.3046 33.1129 40.9079 33.1129 39.4516V33.0403Z" fill="white"/>
<path d="M40.393 45.1193H38.5985C37.1 45.1175 35.6635 44.521 34.6039 43.4606C33.5443 42.4002 32.9483 40.9624 32.9465 39.4627V32.8738H46.0449V39.4627C46.0431 40.9624 45.4471 42.4002 44.3875 43.4606C43.328 44.521 41.8914 45.1175 40.393 45.1193ZM33.2793 33.2068V39.4627C33.2793 40.8758 33.8401 42.231 34.8385 43.2302C35.8369 44.2294 37.191 44.7907 38.6029 44.7907H40.3974C41.8093 44.7907 43.1634 44.2294 44.1618 43.2302C45.1602 42.231 45.721 40.8758 45.721 39.4627V33.2068H33.2793Z" fill="#24071D"/>
<path d="M45.8785 33.0403H58.6464V39.4516C58.6464 40.9083 58.0682 42.3053 57.0391 43.3353C56.0099 44.3653 54.6141 44.9439 53.1586 44.9439H51.3641C49.909 44.9433 48.5138 44.3644 47.4851 43.3345C46.4564 42.3046 45.8785 40.9079 45.8785 39.4516V33.0403Z" fill="#4D4E95"/>
<path d="M53.1608 45.1193H51.3663C49.8677 45.1175 48.4309 44.5211 47.3709 43.4607C46.311 42.4004 45.7145 40.9626 45.7122 39.4627V33.0403C45.7127 32.9963 45.7304 32.9543 45.7615 32.9232C45.7926 32.8921 45.8346 32.8744 45.8785 32.8738H58.6464C58.6905 32.8738 58.7328 32.8913 58.764 32.9225C58.7952 32.9538 58.8128 32.9961 58.8128 33.0403V39.4627C58.811 40.9624 58.215 42.4002 57.1554 43.4606C56.0958 44.521 54.6593 45.1175 53.1608 45.1193ZM46.0449 33.2068V39.4627C46.0449 40.8758 46.6058 42.231 47.6041 43.2302C48.6025 44.2294 49.9566 44.7907 51.3685 44.7907H53.163C54.575 44.7907 55.929 44.2294 56.9274 43.2302C57.9258 42.231 58.4867 40.8758 58.4867 39.4627V33.2068H46.0449Z" fill="#24071D"/>
<path d="M58.6465 33.0403H71.4144V39.4516C71.4144 40.9083 70.8362 42.3053 69.807 43.3353C68.7779 44.3653 67.382 44.9439 65.9266 44.9439H64.1321C62.677 44.9433 61.2817 44.3644 60.253 43.3345C59.2244 42.3046 58.6465 40.9079 58.6465 39.4516V33.0403Z" fill="white"/>
<path d="M65.9265 45.1193H64.1343C62.6354 45.1181 61.1983 44.5219 60.1383 43.4614C59.0782 42.4009 58.4819 40.9628 58.4801 39.4627V32.8738H71.5807V39.4627C71.5789 40.9628 70.9826 42.4009 69.9226 43.4614C68.8625 44.5219 67.4254 45.1181 65.9265 45.1193ZM58.8128 33.2068V39.4627C58.8128 40.8758 59.3737 42.231 60.3721 43.2302C61.3705 44.2294 62.7246 44.7907 64.1365 44.7907H65.9288C67.3407 44.7907 68.6948 44.2294 69.6931 43.2302C70.6915 42.231 71.2524 40.8758 71.2524 39.4627V33.2068H58.8128Z" fill="#24071D"/>
<path d="M84.1799 33.0403V40.091C84.1799 42.7772 81.3229 44.9528 77.7982 44.9528C74.2735 44.9528 71.4143 42.7772 71.4143 40.091V33.0403H84.1799Z" fill="#4D4E95"/>
<path d="M77.8093 45.1193C74.1981 45.1193 71.259 42.8638 71.259 40.091V33.0403C71.2596 32.9963 71.2773 32.9543 71.3084 32.9232C71.3395 32.8921 71.3815 32.8744 71.4254 32.8738H84.191C84.2352 32.8738 84.2775 32.8913 84.3087 32.9225C84.3399 32.9538 84.3574 32.9961 84.3574 33.0403V40.091C84.3463 42.8638 81.4094 45.1193 77.8093 45.1193ZM71.5984 33.2068V40.0888C71.5984 42.6773 74.3867 44.7841 77.8093 44.7841C81.232 44.7841 84.0202 42.6773 84.0202 40.0888V33.2068H71.5984Z" fill="#24071D"/>
<path d="M58.6464 33.0404H45.8785L46.8856 13.4844H57.6394L58.6464 33.0404Z" fill="#4D4E95"/>
<path d="M58.6465 33.2068H45.8787C45.8563 33.2069 45.8341 33.2025 45.8135 33.1937C45.7929 33.1849 45.7743 33.172 45.7589 33.1558C45.7432 33.1392 45.731 33.1197 45.723 33.0983C45.715 33.077 45.7114 33.0542 45.7123 33.0315L46.7193 13.4777C46.7216 13.4351 46.7401 13.395 46.7711 13.3657C46.8021 13.3363 46.8431 13.32 46.8857 13.3201H57.6394C57.6821 13.32 57.7231 13.3363 57.7541 13.3657C57.785 13.395 57.8035 13.4351 57.8058 13.4777L58.8129 33.0337C58.8144 33.0563 58.8112 33.0791 58.8035 33.1005C58.7958 33.1219 58.7838 33.1414 58.7681 33.1579C58.7525 33.1744 58.7336 33.1874 58.7127 33.1962C58.6917 33.2051 58.6692 33.2094 58.6465 33.2091V33.2068ZM46.0539 32.8738H58.4757L57.4864 13.6508H47.0432L46.0539 32.8738Z" fill="#24071D"/>
<path d="M84.1821 30.947V33.0404H71.4142L69.0031 13.4778H77.004C78.0057 13.4776 78.9769 13.8227 79.7542 14.4551C80.5315 15.0874 81.0674 15.9684 81.2718 16.9499L83.7739 28.9823L84.1821 30.947Z" fill="#4D4E95"/>
<path d="M84.1822 33.2069H71.4143C71.3741 33.2072 71.3351 33.1926 71.3048 33.166C71.2745 33.1394 71.2551 33.1026 71.2502 33.0626L68.839 13.5044C68.8358 13.481 68.8377 13.4572 68.8445 13.4347C68.8513 13.4121 68.8629 13.3912 68.8785 13.3736C68.8941 13.3559 68.9133 13.3417 68.9348 13.3321C68.9563 13.3225 68.9796 13.3177 69.0032 13.3179H77.0042C78.0439 13.32 79.0514 13.6789 79.8587 14.3346C80.6661 14.9902 81.2244 15.9031 81.4405 16.9209L84.3508 30.9069C84.3519 30.918 84.3519 30.9292 84.3508 30.9402V33.0359C84.3514 33.0584 84.3475 33.0807 84.3392 33.1015C84.331 33.1224 84.3186 33.1414 84.3029 33.1573C84.2871 33.1733 84.2683 33.1859 84.2476 33.1944C84.2269 33.2029 84.2046 33.2072 84.1822 33.2069ZM71.563 32.8739H84.0203V30.9624L81.1122 16.9898C80.91 16.0497 80.3928 15.207 79.6465 14.6014C78.9001 13.9957 77.9694 13.6635 77.0086 13.6598H69.1917L71.563 32.8739Z" fill="#24071D"/>
<path d="M20.3451 30.947V33.0404H33.1129L35.5241 13.4778H27.5231C26.5214 13.4776 25.5503 13.8227 24.773 14.4551C23.9957 15.0874 23.4598 15.9684 23.2553 16.9499L20.7532 28.9823L20.3451 30.947Z" fill="#4D4E95"/>
<path d="M33.113 33.2068H20.3452C20.301 33.2068 20.2587 33.1893 20.2275 33.158C20.1963 33.1268 20.1788 33.0845 20.1788 33.0403V30.9446C20.1777 30.9336 20.1777 30.9224 20.1788 30.9113L23.089 16.9253C23.3052 15.9075 23.8635 14.9946 24.6708 14.3389C25.4782 13.6833 26.4857 13.3244 27.5254 13.3223H35.5264C35.5499 13.3221 35.5733 13.3269 35.5948 13.3365C35.6163 13.3461 35.6355 13.3603 35.6511 13.378C35.6666 13.3956 35.6782 13.4165 35.685 13.439C35.6918 13.4616 35.6937 13.4854 35.6905 13.5088L33.2794 33.067C33.273 33.1063 33.2527 33.1421 33.2222 33.1678C33.1916 33.1935 33.1529 33.2073 33.113 33.2068ZM20.5115 32.8738H32.9644L35.3356 13.6508H27.5232C26.5624 13.6546 25.6317 13.9868 24.8853 14.5924C24.139 15.1981 23.6218 16.0408 23.4196 16.9808L20.5115 30.9535V32.8738Z" fill="#24071D"/>
<path d="M17.1287 54.1148C14.3205 54.1148 12.0468 56.7788 12.0468 60.0578C12.0468 56.7744 9.77099 54.1148 6.96277 54.1148C9.77099 54.1148 12.0468 51.4508 12.0468 48.1697C12.0468 51.4531 14.3205 54.1148 17.1287 54.1148Z" fill="white"/>
<path d="M12.2132 60.0577H11.8805C11.8805 56.872 9.66229 54.2857 6.96277 54.2857V53.9527C9.67339 53.9527 11.8805 51.3597 11.8805 48.1807H12.2132C12.2132 51.3664 14.4181 53.9527 17.1287 53.9527V54.2857C14.4181 54.2812 12.2132 56.872 12.2132 60.0577ZM8.18277 54.1147C10.0682 54.6386 11.5611 56.3503 12.0468 58.5281C12.5304 56.3503 14.0232 54.6386 15.9087 54.1147C14.0232 53.5908 12.5304 51.8792 12.0468 49.6991C11.5611 51.8836 10.0682 53.5908 8.18277 54.1147Z" fill="#24071D"/>
<path d="M87.1812 7.85005C84.7279 7.85005 82.7448 10.1744 82.7448 13.0404C82.7448 10.1744 80.7485 7.85005 78.3085 7.85005C80.7485 7.85005 82.7448 5.52571 82.7448 2.65747C82.7426 5.52571 84.7279 7.85005 87.1812 7.85005Z" fill="#9FA0DF"/>
<path d="M82.9111 13.0338H82.5784C82.5784 10.2633 80.6597 8.00996 78.304 8.00996V7.67696C80.6597 7.67696 82.5784 5.42144 82.5784 2.65088H82.9111C82.9111 5.42144 84.8276 7.67696 87.1833 7.67696V8.00996C84.8254 8.01662 82.9111 10.2699 82.9111 13.0338ZM79.4463 7.84346C81.0412 8.31854 82.3056 9.76376 82.7448 11.6064C83.1884 9.76376 84.4461 8.31854 86.041 7.84346C84.4461 7.36838 83.1817 5.92094 82.7448 4.06946C82.3033 5.92982 81.039 7.37504 79.4441 7.85012L79.4463 7.84346Z" fill="#24071D"/>
<path d="M95.9075 43.2258C95.635 42.8362 95.2193 42.5707 94.7515 42.4874C94.2837 42.4042 93.802 42.51 93.412 42.7818L92.9795 43.0792L92.6711 42.6264C92.4007 42.2347 91.9859 41.9665 91.518 41.8807C91.0501 41.7949 90.5673 41.8987 90.1757 42.169C89.9816 42.3031 89.8158 42.4741 89.6878 42.6723C89.5597 42.8704 89.472 43.092 89.4296 43.3241C89.3871 43.5563 89.3908 43.7945 89.4404 44.0252C89.4901 44.256 89.5846 44.4746 89.7188 44.6688L90.0182 45.1017L92.0567 48.0565L95.0091 46.0163L95.4527 45.7166C95.8414 45.4453 96.1072 45.0314 96.1924 44.5649C96.2776 44.0983 96.1752 43.6171 95.9075 43.2258Z" fill="#4D4E95"/>
<path d="M92.0656 48.223C92.0386 48.2232 92.012 48.2168 91.9881 48.2045C91.9641 48.1921 91.9435 48.1741 91.9281 48.152L89.5901 44.762C89.2945 44.3337 89.181 43.8054 89.2746 43.2933C89.3682 42.7812 89.6612 42.3273 90.0892 42.0314C90.5172 41.7356 91.0451 41.622 91.5567 41.7156C92.0684 41.8093 92.5219 42.1026 92.8175 42.5309L93.0216 42.8284L93.3166 42.6242C93.7448 42.3288 94.2725 42.2155 94.784 42.3091C95.2956 42.4028 95.7491 42.6957 96.045 43.1237C96.3401 43.5522 96.4533 44.0803 96.3598 44.5923C96.2662 45.1042 95.9735 45.5581 95.5459 45.8543L92.161 48.1941C92.1329 48.2133 92.0996 48.2234 92.0656 48.223ZM91.2005 42.0181C90.8706 42.0176 90.5486 42.1183 90.2777 42.3067C89.9229 42.5526 89.68 42.9293 89.6022 43.3542C89.5245 43.7791 89.6182 44.2175 89.8629 44.5733L92.1077 47.8256L95.3574 45.579C95.5336 45.4577 95.6843 45.3029 95.8008 45.1234C95.9173 44.9438 95.9973 44.7431 96.0362 44.5326C96.0752 44.3221 96.0723 44.106 96.0277 43.8966C95.9832 43.6873 95.8978 43.4887 95.7766 43.3124C95.5313 42.9568 95.1548 42.7132 94.7301 42.6354C94.3054 42.5575 93.8672 42.6517 93.5118 42.8972L93.0682 43.1969C93.0504 43.2095 93.0302 43.2184 93.0088 43.2229C92.9875 43.2275 92.9654 43.2277 92.944 43.2236C92.9226 43.2197 92.9021 43.2117 92.8838 43.1998C92.8656 43.188 92.8498 43.1727 92.8375 43.1547L92.538 42.7218C92.3885 42.5051 92.1887 42.3278 91.9558 42.2053C91.7228 42.0827 91.4637 42.0185 91.2005 42.0181Z" fill="#24071D"/>
<path d="M57.5795 3.91409C57.3716 3.91455 57.165 3.94751 56.9673 4.01178C56.8654 3.66476 56.684 3.34634 56.4375 3.08183C56.191 2.81733 55.8862 2.61405 55.5474 2.48816C55.2086 2.36227 54.8451 2.31725 54.4859 2.35669C54.1267 2.39612 53.7816 2.51891 53.4781 2.71529C53.1989 2.00857 52.6823 1.4214 52.0171 1.05494C51.3519 0.68848 50.5798 0.56567 49.8339 0.707669C49.088 0.849669 48.4149 1.24759 47.9306 1.83287C47.4462 2.41816 47.1811 3.15416 47.1807 3.91409C46.7914 3.9135 46.4108 4.02888 46.0872 4.24553C45.7637 4.46218 45.5119 4.77031 45.364 5.13066C45.2638 5.36809 45.2125 5.62329 45.2131 5.88101C45.2131 6.40326 45.4204 6.90412 45.7894 7.27341C46.1584 7.64269 46.6588 7.85016 47.1807 7.85016C47.2317 7.85016 47.2805 7.85016 47.3293 7.85016C47.341 7.85195 47.353 7.85195 47.3648 7.85016H57.5795C58.0715 7.84979 58.5455 7.66496 58.9081 7.3321C59.2706 6.99924 59.4954 6.5425 59.5381 6.05196C59.5381 5.99646 59.5381 5.93874 59.5381 5.88101C59.5381 5.36051 59.332 4.86122 58.9649 4.49254C58.5977 4.12386 58.0996 3.91586 57.5795 3.91409Z" fill="#CACBFF"/>
<path d="M28.7253 3.71406C29.7042 3.71406 30.4977 2.91991 30.4977 1.94028C30.4977 0.960651 29.7042 0.166504 28.7253 0.166504C27.7465 0.166504 26.953 0.960651 26.953 1.94028C26.953 2.91991 27.7465 3.71406 28.7253 3.71406Z" fill="#4D4E95"/>
<path d="M28.7254 3.88056C28.3423 3.88056 27.9677 3.76693 27.649 3.55403C27.3304 3.34112 27.0819 3.03848 26.935 2.68433C26.788 2.33017 26.7492 1.94039 26.8235 1.5642C26.8978 1.188 27.0818 0.842265 27.3522 0.570648C27.6227 0.299032 27.9675 0.113715 28.3431 0.0380982C28.7188 -0.0375184 29.1084 -4.24887e-05 29.4627 0.145792C29.8171 0.291627 30.1203 0.539281 30.3341 0.857481C30.548 1.17568 30.6628 1.55016 30.6641 1.93362C30.6647 2.1889 30.615 2.44179 30.5178 2.67784C30.4207 2.91388 30.278 3.12845 30.098 3.30927C29.9179 3.49008 29.704 3.63361 29.4685 3.73164C29.233 3.82967 28.9805 3.88027 28.7254 3.88056ZM28.7254 0.328561C28.4081 0.330316 28.0984 0.426128 27.8354 0.6039C27.5724 0.781672 27.368 1.03343 27.2478 1.32741C27.1277 1.62138 27.0973 1.94438 27.1604 2.25563C27.2236 2.56689 27.3775 2.85244 27.6026 3.07625C27.8278 3.30005 28.1142 3.45208 28.4256 3.51313C28.737 3.57418 29.0595 3.54152 29.3524 3.41927C29.6453 3.29702 29.8955 3.09067 30.0713 2.82626C30.2471 2.56184 30.3407 2.25123 30.3403 1.93362C30.3379 1.50714 30.1665 1.09903 29.8637 0.798916C29.561 0.498803 29.1516 0.33123 28.7254 0.333002V0.328561Z" fill="#24071D"/>
<path d="M4.99301 38.7125C5.79911 38.7125 6.45257 38.0585 6.45257 37.2518C6.45257 36.445 5.79911 35.791 4.99301 35.791C4.18692 35.791 3.53345 36.445 3.53345 37.2518C3.53345 38.0585 4.18692 38.7125 4.99301 38.7125Z" fill="#4D4E95"/>
<path d="M4.993 38.879C4.67142 38.879 4.35706 38.7836 4.08968 38.6048C3.82229 38.426 3.6139 38.1718 3.49083 37.8745C3.36777 37.5772 3.33557 37.25 3.39831 36.9343C3.46104 36.6187 3.6159 36.3287 3.84329 36.1011C4.07068 35.8735 4.36039 35.7186 4.67579 35.6558C4.99119 35.593 5.31811 35.6252 5.61521 35.7484C5.91231 35.8715 6.16624 36.0801 6.3449 36.3477C6.52356 36.6153 6.61892 36.9299 6.61892 37.2518C6.61834 37.6832 6.44685 38.0967 6.14205 38.4018C5.83726 38.7068 5.42404 38.8784 4.993 38.879ZM4.993 35.9597C4.73713 35.9597 4.48701 36.0357 4.2743 36.178C4.06159 36.3203 3.89584 36.5226 3.79802 36.7592C3.70021 36.9958 3.67473 37.2562 3.72481 37.5073C3.77489 37.7584 3.89827 37.989 4.07935 38.17C4.26043 38.3509 4.49106 38.474 4.74207 38.5237C4.99307 38.5733 5.25316 38.5474 5.48942 38.4491C5.72568 38.3508 5.9275 38.1846 6.06933 37.9714C6.21116 37.7583 6.28663 37.5078 6.28619 37.2518C6.28561 36.9089 6.1491 36.5803 5.90664 36.338C5.66418 36.0958 5.33559 35.9597 4.993 35.9597Z" fill="#24071D"/>
<path d="M80.5865 28.9023C80.5488 28.9026 80.5122 28.8901 80.4827 28.8666C80.4532 28.8432 80.4327 28.8103 80.4245 28.7735L77.6518 17.0075C77.6467 16.9862 77.6458 16.9641 77.6493 16.9425C77.6527 16.9209 77.6604 16.9002 77.6718 16.8815C77.6832 16.8629 77.6982 16.8467 77.7159 16.8338C77.7336 16.8209 77.7536 16.8117 77.7749 16.8066C77.7962 16.8015 77.8182 16.8006 77.8398 16.8041C77.8614 16.8075 77.8821 16.8151 77.9008 16.8266C77.9194 16.838 77.9356 16.853 77.9485 16.8707C77.9613 16.8885 77.9706 16.9085 77.9757 16.9298L80.7484 28.6958C80.7584 28.7388 80.7509 28.784 80.7276 28.8214C80.7043 28.8589 80.6671 28.8856 80.6242 28.8956L80.5865 28.9023Z" fill="white"/>
<path d="M77.9424 43.3923C77.9013 43.3902 77.8624 43.373 77.8332 43.344C77.804 43.3149 77.7866 43.276 77.7844 43.2349C77.7822 43.1937 77.7953 43.1532 77.8212 43.1212C77.8472 43.0892 77.884 43.0679 77.9247 43.0615C82.4742 42.6175 82.2257 38.7702 82.2124 38.6059C82.2087 38.5832 82.2097 38.56 82.2154 38.5377C82.2211 38.5153 82.2313 38.4945 82.2455 38.4763C82.2597 38.4582 82.2775 38.4432 82.2977 38.4322C82.318 38.4213 82.3403 38.4147 82.3632 38.4129C82.3862 38.411 82.4092 38.414 82.431 38.4215C82.4527 38.429 82.4727 38.441 82.4896 38.4566C82.5065 38.4723 82.5199 38.4913 82.5291 38.5124C82.5383 38.5335 82.543 38.5563 82.5429 38.5793C82.5429 38.6215 82.838 42.9127 77.958 43.3923H77.9424Z" fill="white"/>
<path d="M52.2271 43.3922C52.186 43.3898 52.1474 43.3723 52.1185 43.343C52.0896 43.3138 52.0725 43.2749 52.0706 43.2338C52.0687 43.1927 52.082 43.1524 52.108 43.1206C52.134 43.0887 52.1709 43.0677 52.2115 43.0614C56.761 42.6174 56.5104 38.7702 56.4971 38.6059C56.4935 38.5617 56.5077 38.518 56.5364 38.4843C56.5651 38.4505 56.606 38.4296 56.6501 38.4261C56.6942 38.4225 56.7379 38.4367 56.7716 38.4654C56.8053 38.4941 56.8262 38.5351 56.8298 38.5792C56.8298 38.6214 57.1226 42.9127 52.2448 43.3922H52.2271Z" fill="white"/>
<path d="M26.5139 43.3923C26.4728 43.392 26.4332 43.3767 26.4026 43.3494C26.3719 43.322 26.3524 43.2843 26.3475 43.2435C26.3432 43.1997 26.3564 43.1559 26.3842 43.1218C26.4121 43.0876 26.4523 43.066 26.4961 43.0615C31.0456 42.6175 30.7972 38.7702 30.7839 38.6059C30.7801 38.5832 30.7811 38.56 30.7868 38.5377C30.7925 38.5153 30.8028 38.4945 30.8169 38.4763C30.8311 38.4582 30.8489 38.4432 30.8691 38.4322C30.8894 38.4213 30.9117 38.4147 30.9346 38.4129C30.9576 38.411 30.9807 38.414 31.0024 38.4215C31.0241 38.429 31.0441 38.441 31.061 38.4566C31.0779 38.4723 31.0913 38.4913 31.1005 38.5124C31.1097 38.5335 31.1144 38.5563 31.1144 38.5793C31.1144 38.6215 31.4094 42.9127 26.5294 43.3923H26.5139Z" fill="white"/>
<path d="M79.5838 65.337C79.5397 65.337 79.4974 65.3194 79.4662 65.2882C79.435 65.257 79.4175 65.2146 79.4175 65.1705V56.4126C79.4175 56.3684 79.435 56.3261 79.4662 56.2949C79.4974 56.2636 79.5397 56.2461 79.5838 56.2461C79.628 56.2461 79.6703 56.2636 79.7015 56.2949C79.7327 56.3261 79.7502 56.3684 79.7502 56.4126V65.1705C79.7496 65.2145 79.7319 65.2565 79.7008 65.2876C79.6698 65.3187 79.6278 65.3364 79.5838 65.337Z" fill="white"/>
<path d="M79.5838 70.5694C79.5401 70.5694 79.4981 70.5522 79.467 70.5214C79.4358 70.4907 79.418 70.4489 79.4175 70.4051L79.3687 67.4658C79.3686 67.4219 79.3858 67.3796 79.4165 67.3481C79.4471 67.3166 79.4889 67.2983 79.5328 67.2971C79.5765 67.2971 79.6185 67.3144 79.6497 67.3451C79.6808 67.3758 79.6986 67.4176 79.6992 67.4614L79.748 70.3985C79.7486 70.4428 79.7317 70.4857 79.701 70.5177C79.6702 70.5496 79.6281 70.5682 79.5838 70.5694Z" fill="white"/>
</svg>
