<svg width="104" height="66" viewBox="0 0 104 66" fill="none" xmlns="http://www.w3.org/2000/svg">
<path opacity="0.26" d="M59.9595 65.4784C83.932 65.4784 103.366 64.8372 103.366 64.0461C103.366 63.2551 83.932 62.6138 59.9595 62.6138C35.987 62.6138 16.5535 63.2551 16.5535 64.0461C16.5535 64.8372 35.987 65.4784 59.9595 65.4784Z" fill="#0D322C"/>
<path d="M21.2946 47.6586V57.0091H19.6197C19.3117 57.0091 19.0163 56.8876 18.7984 56.6713C18.5806 56.455 18.4583 56.1617 18.4583 55.8558V47.6586H21.2946Z" fill="#4D4E95"/>
<path d="M21.2946 57.189H19.6198C19.2657 57.1884 18.9263 57.0484 18.676 56.7998C18.4256 56.5513 18.2847 56.2143 18.2841 55.8627V47.6678C18.2838 47.645 18.2881 47.6224 18.2967 47.6013C18.3053 47.5802 18.3182 47.561 18.3344 47.5448C18.3506 47.5287 18.37 47.516 18.3913 47.5074C18.4125 47.4988 18.4353 47.4945 18.4583 47.4949H21.2946C21.3408 47.4949 21.3851 47.5131 21.4178 47.5455C21.4504 47.578 21.4688 47.622 21.4688 47.6678V57.016C21.4688 57.0619 21.4504 57.1059 21.4178 57.1383C21.3851 57.1707 21.3408 57.189 21.2946 57.189ZM18.6441 47.8408V55.8627C18.6441 56.1227 18.7481 56.3721 18.9333 56.5559C19.1184 56.7397 19.3695 56.843 19.6314 56.843H21.132V47.8477L18.6441 47.8408Z" fill="#24071D"/>
<path d="M68.6682 35.8402H92.3945L89.8207 21.9484H68.6682V35.8402Z" fill="#A6A7F3"/>
<path d="M92.3944 36.0132H68.6681C68.6221 36.0126 68.5781 35.9942 68.5456 35.9619C68.513 35.9296 68.4945 35.8859 68.4939 35.8403V21.9484C68.4945 21.9027 68.513 21.859 68.5456 21.8267C68.5781 21.7944 68.6221 21.776 68.6681 21.7754H89.8206C89.861 21.7753 89.9001 21.7894 89.9312 21.8151C89.9622 21.8408 89.9831 21.8766 89.9902 21.9161L92.5663 35.808C92.5708 35.8331 92.5698 35.8588 92.5634 35.8835C92.557 35.9082 92.5453 35.9312 92.5291 35.951C92.5127 35.9706 92.4921 35.9863 92.4688 35.9971C92.4455 36.0079 92.4201 36.0134 92.3944 36.0132ZM68.8423 35.6673H92.1853L89.6742 22.1214H68.8423V35.6673Z" fill="#24071D"/>
<path d="M89.8207 21.9484L68.6682 21.9484V18.0274L88.6592 18.0274C88.9673 18.0274 89.2627 18.1489 89.4805 18.3651C89.6983 18.5814 89.8207 18.8747 89.8207 19.1806V21.9484Z" fill="#6667AB"/>
<path d="M89.8206 22.1213H68.6681C68.6221 22.1207 68.5781 22.1023 68.5456 22.07C68.513 22.0377 68.4945 21.994 68.4939 21.9484V18.0274C68.4945 17.9817 68.513 17.938 68.5456 17.9057C68.5781 17.8734 68.6221 17.855 68.6681 17.8544H88.6591C89.0132 17.855 89.3526 17.9949 89.6029 18.2435C89.8533 18.4921 89.9942 18.829 89.9948 19.1806V21.9484C89.9942 21.994 89.9757 22.0377 89.9431 22.07C89.9106 22.1023 89.8666 22.1207 89.8206 22.1213ZM68.8423 21.7754H89.6464V19.1783C89.6458 18.9185 89.5416 18.6695 89.3565 18.4858C89.1715 18.3021 88.9208 18.1986 88.6591 18.198H68.8423V21.7754Z" fill="#24071D"/>
<path d="M98.0647 57.0021L21.9799 57.0021C21.6719 57.0021 21.3765 56.8806 21.1586 56.6644C20.9408 56.4481 20.8185 56.1548 20.8185 55.8489V54.465L99.2262 54.465V55.8489C99.2262 56.1548 99.1038 56.4481 98.886 56.6644C98.6682 56.8806 98.3728 57.0021 98.0647 57.0021Z" fill="#4D4E95"/>
<path d="M98.0646 57.1751H21.9797C21.6257 57.1745 21.2863 57.0346 21.0359 56.786C20.7856 56.5375 20.6447 56.2005 20.6441 55.8489V54.465C20.6437 54.4422 20.648 54.4196 20.6567 54.3985C20.6653 54.3773 20.6782 54.3581 20.6944 54.342C20.7106 54.3259 20.73 54.3132 20.7512 54.3046C20.7725 54.296 20.7953 54.2917 20.8183 54.292H99.226C99.2722 54.292 99.3165 54.3103 99.3492 54.3427C99.3819 54.3752 99.4002 54.4191 99.4002 54.465V55.8489C99.3996 56.2005 99.2587 56.5375 99.0083 56.786C98.758 57.0346 98.4186 57.1745 98.0646 57.1751ZM20.9925 54.638V55.8489C20.9925 56.1089 21.0965 56.3582 21.2817 56.5421C21.4668 56.7259 21.7179 56.8292 21.9797 56.8292H98.0646C98.3264 56.8292 98.5775 56.7259 98.7626 56.5421C98.9478 56.3582 99.0518 56.1089 99.0518 55.8489V54.638H20.9925Z" fill="#24071D"/>
<path d="M99.2262 54.4627L68.6682 54.4627V35.838H98.0647C98.3728 35.838 98.6682 35.9595 98.886 36.1758C99.1038 36.392 99.2262 36.6854 99.2262 36.9912V54.4627Z" fill="#6667AB"/>
<path d="M99.2261 54.638H68.6681C68.6221 54.6374 68.5781 54.619 68.5456 54.5867C68.513 54.5544 68.4945 54.5107 68.4939 54.465V35.8403C68.4939 35.7944 68.5123 35.7504 68.5449 35.718C68.5776 35.6855 68.6219 35.6673 68.6681 35.6673H98.0646C98.4187 35.6679 98.7581 35.8078 99.0084 36.0564C99.2588 36.305 99.3997 36.642 99.4003 36.9935V54.465C99.3997 54.5107 99.3811 54.5544 99.3486 54.5867C99.3161 54.619 99.2721 54.6374 99.2261 54.638ZM68.8423 54.292H99.0402V36.9935C99.0402 36.7335 98.9362 36.4842 98.7511 36.3004C98.5659 36.1165 98.3148 36.0133 98.053 36.0133H68.8423V54.292Z" fill="#24071D"/>
<g opacity="0.26">
<path opacity="0.26" d="M99.0959 37.2403V54.6472H97.8369V38.615C97.8369 38.4547 97.8051 38.2961 97.7434 38.148C97.6816 38 97.5911 37.8655 97.477 37.7522C97.3629 37.6389 97.2274 37.549 97.0783 37.4877C96.9293 37.4264 96.7695 37.3948 96.6081 37.3948H68.538V36.011H97.8671C98.0293 36.011 98.1898 36.0428 98.3395 36.1047C98.4892 36.1666 98.6251 36.2573 98.7393 36.3716C98.8536 36.4859 98.9439 36.6214 99.0051 36.7705C99.0663 36.9196 99.0972 37.0793 99.0959 37.2403Z" fill="#680000"/>
</g>
<path d="M68.6681 10.3999V54.4651H20.816V10.4115C20.816 10.0879 20.9455 9.77753 21.176 9.54871C21.4064 9.31989 21.719 9.19135 22.0449 9.19135H67.4393C67.7632 9.19133 68.074 9.31829 68.3041 9.54462C68.5343 9.77095 68.6651 10.0783 68.6681 10.3999Z" fill="#6667AB"/>
<path d="M68.6682 54.638H20.8161C20.7699 54.638 20.7255 54.6198 20.6929 54.5873C20.6602 54.5549 20.6418 54.5109 20.6418 54.465V10.4114C20.6418 10.0444 20.7887 9.69238 21.0501 9.43286C21.3114 9.17333 21.666 9.02753 22.0356 9.02753H67.4393C67.809 9.02753 68.1635 9.17333 68.4249 9.43286C68.6862 9.69238 68.8331 10.0444 68.8331 10.4114V54.465C68.8331 54.5093 68.8161 54.552 68.7854 54.5842C68.7547 54.6164 68.7127 54.6356 68.6682 54.638ZM20.9903 54.292H68.4939V10.3999C68.4939 10.1222 68.3828 9.85581 68.1851 9.65944C67.9873 9.46306 67.719 9.35274 67.4393 9.35274H22.0449C21.7652 9.35274 21.4969 9.46306 21.2992 9.65944C21.1014 9.85581 20.9903 10.1222 20.9903 10.3999V54.292Z" fill="#24071D"/>
<g opacity="0.26">
<path opacity="0.26" d="M68.4823 10.5498V54.6034H66.6658V12.0283C66.6658 11.7051 66.5367 11.3951 66.3067 11.1663C66.0768 10.9376 65.7648 10.8087 65.4393 10.8081H20.7347V10.5498C20.7344 10.3897 20.7659 10.2311 20.8274 10.0831C20.8889 9.93504 20.9792 9.80052 21.0932 9.68719C21.2071 9.57386 21.3424 9.48395 21.4913 9.4226C21.6403 9.36126 21.8 9.32968 21.9612 9.32968H67.2581C67.4192 9.32998 67.5786 9.36178 67.7273 9.42327C67.876 9.48475 68.0111 9.5747 68.1247 9.688C68.2384 9.8013 68.3285 9.93572 68.3898 10.0836C68.4512 10.2315 68.4826 10.3899 68.4823 10.5498Z" fill="#680000"/>
</g>
<path d="M71.2256 35.8402V21.9484H68.6681V35.8402H71.2256Z" fill="#6667AB"/>
<path d="M71.2258 36.0132H68.6706C68.6245 36.0126 68.5806 35.9942 68.548 35.9619C68.5155 35.9296 68.4969 35.8859 68.4963 35.8403V21.9484C68.4969 21.9027 68.5155 21.859 68.548 21.8267C68.5806 21.7944 68.6245 21.776 68.6706 21.7754H71.2258C71.2718 21.776 71.3157 21.7944 71.3483 21.8267C71.3808 21.859 71.3994 21.9027 71.4 21.9484V35.8403C71.3994 35.8859 71.3808 35.9296 71.3483 35.9619C71.3157 35.9942 71.2718 36.0126 71.2258 36.0132ZM68.8425 35.6673H71.0515V22.1214H68.8425V35.6673Z" fill="#24071D"/>
<path d="M22.6116 52.4907H20.8346V56.6308C20.8346 56.733 20.8755 56.8309 20.9482 56.9032C21.021 56.9754 21.1196 57.016 21.2225 57.016H22.6163L22.6116 52.4907Z" fill="#4D4E95"/>
<path d="M22.6115 57.1797H21.2178C21.0687 57.1797 20.9257 57.1209 20.8203 57.0163C20.7149 56.9116 20.6556 56.7696 20.6556 56.6216V52.4907C20.6556 52.4448 20.674 52.4008 20.7067 52.3684C20.7393 52.3359 20.7837 52.3177 20.8299 52.3177H22.6069C22.6529 52.3183 22.6969 52.3367 22.7294 52.369C22.762 52.4013 22.7805 52.445 22.7811 52.4907V57.0067C22.7811 57.0518 22.7634 57.0952 22.7317 57.1275C22.7001 57.1598 22.6569 57.1785 22.6115 57.1797ZM21.0087 52.6637V56.6308C21.0087 56.6587 21.0143 56.6863 21.025 56.712C21.0357 56.7377 21.0515 56.7611 21.0713 56.7808C21.0912 56.8005 21.1147 56.8162 21.1406 56.8268C21.1666 56.8375 21.1944 56.843 21.2224 56.843H22.4373V52.6637H21.0087Z" fill="#24071D"/>
<path d="M95.8369 51.1852V56.1834H94.5825C94.2745 56.1834 93.9791 56.0619 93.7613 55.8456C93.5434 55.6293 93.4211 55.336 93.4211 55.0301V51.1852H95.8369Z" fill="#24071D"/>
<path d="M95.4629 51.5566H93.7834V55.4591C93.7841 55.556 93.8232 55.6487 93.8924 55.7169C93.9616 55.7852 94.0552 55.8235 94.1528 55.8235H95.4629V51.5566Z" fill="#24071D"/>
<path d="M70.487 56.9353H93.8765C93.8983 55.3966 93.6119 53.8689 93.034 52.4411C92.4561 51.0133 91.5982 49.7137 90.51 48.618C89.4219 47.5222 88.1253 46.6521 86.6956 46.0582C85.2659 45.4643 83.7315 45.1585 82.1817 45.1585C80.6319 45.1585 79.0976 45.4643 77.6679 46.0582C76.2381 46.6521 74.9415 47.5222 73.8534 48.618C72.7653 49.7137 71.9073 51.0133 71.3294 52.4411C70.7515 53.8689 70.4652 55.3966 70.487 56.9353Z" fill="#4D4E95"/>
<path d="M93.8765 57.1082H70.487C70.4408 57.1082 70.3965 57.09 70.3638 57.0576C70.3312 57.0251 70.3128 56.9811 70.3128 56.9353C70.2908 55.3738 70.5816 53.8235 71.1681 52.3745C71.7547 50.9256 72.6255 49.6068 73.7298 48.4949C74.8341 47.3829 76.15 46.5 77.6009 45.8973C79.0519 45.2947 80.609 44.9843 82.1817 44.9843C83.7545 44.9843 85.3116 45.2947 86.7626 45.8973C88.2135 46.5 89.5294 47.3829 90.6337 48.4949C91.738 49.6068 92.6087 50.9256 93.1953 52.3745C93.7819 53.8235 94.0727 55.3738 94.0507 56.9353C94.0501 56.9809 94.0315 57.0246 93.999 57.0569C93.9664 57.0892 93.9225 57.1076 93.8765 57.1082ZM70.6612 56.7623H93.6999C93.6394 53.7686 92.3991 50.9177 90.2454 48.8218C88.0917 46.7259 85.1963 45.5519 82.1806 45.5519C79.1649 45.5519 76.2695 46.7259 74.1158 48.8218C71.9621 50.9177 70.7218 53.7686 70.6612 56.7623Z" fill="#24071D"/>
<path d="M73.7274 56.9352C73.7274 58.5953 74.2232 60.218 75.152 61.5983C76.0809 62.9786 77.401 64.0543 78.9456 64.6896C80.4902 65.3249 82.1899 65.4911 83.8296 65.1672C85.4694 64.8434 86.9756 64.044 88.1577 62.8702C89.3399 61.6964 90.145 60.2008 90.4712 58.5727C90.7973 56.9446 90.6299 55.257 89.9901 53.7233C89.3504 52.1896 88.2669 50.8788 86.8768 49.9565C85.4867 49.0343 83.8524 48.542 82.1805 48.542C79.9394 48.5444 77.7907 49.4295 76.206 51.003C74.6213 52.5765 73.7299 54.71 73.7274 56.9352Z" fill="#24071D"/>
<path d="M82.1805 60.6487C84.2459 60.6487 85.9204 58.9861 85.9204 56.9352C85.9204 54.8844 84.2459 53.2218 82.1805 53.2218C80.115 53.2218 78.4406 54.8844 78.4406 56.9352C78.4406 58.9861 80.115 60.6487 82.1805 60.6487Z" fill="white"/>
<path d="M78.0529 56.9352C78.0529 56.1241 78.2951 55.3311 78.7491 54.6567C79.203 53.9822 79.8482 53.4566 80.603 53.1463C81.3578 52.836 82.1884 52.7549 82.9896 52.9133C83.7908 53.0717 84.5268 53.4625 85.1043 54.0363C85.6818 54.61 86.075 55.341 86.2341 56.1366C86.3932 56.9323 86.311 57.7569 85.9981 58.5062C85.6851 59.2555 85.1554 59.8958 84.4759 60.3461C83.7964 60.7965 82.9976 61.0366 82.1807 61.0361C81.0861 61.0343 80.0369 60.6016 79.2631 59.8329C78.4893 59.0641 78.0541 58.0221 78.0529 56.9352ZM78.831 56.9352C78.831 57.5931 79.0275 58.2361 79.3956 58.783C79.7636 59.33 80.2868 59.7563 80.8988 60.008C81.5109 60.2597 82.1844 60.3256 82.8342 60.1973C83.4839 60.0689 84.0808 59.7522 84.5492 59.287C85.0177 58.8219 85.3367 58.2293 85.466 57.5841C85.5952 56.9389 85.5289 56.2702 85.2753 55.6625C85.0218 55.0547 84.5925 54.5353 84.0416 54.1698C83.4908 53.8044 82.8432 53.6093 82.1807 53.6093C81.2927 53.6105 80.4414 53.9613 79.8135 54.5848C79.1856 55.2083 78.8323 56.0535 78.831 56.9352Z" fill="#797AC5"/>
<path d="M82.1806 58.2545C82.9144 58.2545 83.5093 57.6639 83.5093 56.9352C83.5093 56.2066 82.9144 55.6159 82.1806 55.6159C81.4468 55.6159 80.8519 56.2066 80.8519 56.9352C80.8519 57.6639 81.4468 58.2545 82.1806 58.2545Z" fill="#4D4E95"/>
<path d="M82.1805 58.4275C81.8834 58.4271 81.593 58.3392 81.3462 58.1749C81.0993 58.0107 80.9071 57.7774 80.7937 57.5047C80.6803 57.232 80.6508 56.932 80.7091 56.6427C80.7673 56.3534 80.9107 56.0877 81.1209 55.8792C81.3312 55.6708 81.599 55.5289 81.8905 55.4715C82.182 55.4141 82.484 55.4438 82.7585 55.5568C83.033 55.6698 83.2676 55.8611 83.4326 56.1064C83.5977 56.3518 83.6858 56.6402 83.6858 56.9352C83.6858 57.1314 83.6468 57.3257 83.5711 57.5069C83.4955 57.6881 83.3846 57.8527 83.2448 57.9913C83.1049 58.1299 82.939 58.2397 82.7564 58.3146C82.5738 58.3895 82.3781 58.4278 82.1805 58.4275ZM82.1805 55.7889C81.9508 55.7889 81.7263 55.8566 81.5353 55.9833C81.3443 56.11 81.1954 56.2901 81.1075 56.5008C81.0196 56.7116 80.9966 56.9434 81.0414 57.1671C81.0862 57.3909 81.1968 57.5963 81.3593 57.7576C81.5217 57.9189 81.7286 58.0287 81.9539 58.0732C82.1792 58.1177 82.4128 58.0949 82.625 58.0076C82.8372 57.9203 83.0186 57.7725 83.1462 57.5829C83.2739 57.3932 83.342 57.1703 83.342 56.9422C83.342 56.6363 83.2196 56.343 83.0018 56.1267C82.784 55.9104 82.4886 55.7889 82.1805 55.7889Z" fill="#24071D"/>
<path d="M27.4434 56.9353H50.8329C50.8547 55.3966 50.5683 53.8689 49.9904 52.4411C49.4125 51.0133 48.5546 49.7137 47.4665 48.618C46.3783 47.5222 45.0817 46.6521 43.652 46.0582C42.2223 45.4643 40.6879 45.1585 39.1381 45.1585C37.5884 45.1585 36.054 45.4643 34.6243 46.0582C33.1946 46.6521 31.898 47.5222 30.8098 48.618C29.7217 49.7137 28.8638 51.0133 28.2859 52.4411C27.7079 53.8689 27.4216 55.3966 27.4434 56.9353Z" fill="#4D4E95"/>
<path d="M50.8329 57.1082H27.4434C27.3972 57.1082 27.3529 57.09 27.3203 57.0576C27.2876 57.0251 27.2692 56.9811 27.2692 56.9353C27.2472 55.3738 27.538 53.8235 28.1246 52.3745C28.7112 50.9256 29.5819 49.6068 30.6862 48.4949C31.7906 47.3829 33.1064 46.5 34.5573 45.8973C36.0083 45.2947 37.5654 44.9843 39.1382 44.9843C40.7109 44.9843 42.268 45.2947 43.719 45.8973C45.1699 46.5 46.4858 47.3829 47.5901 48.4949C48.6944 49.6068 49.5652 50.9256 50.1518 52.3745C50.7384 53.8235 51.0291 55.3738 51.0071 56.9353C51.0071 56.9811 50.9888 57.0251 50.9561 57.0576C50.9234 57.09 50.8791 57.1082 50.8329 57.1082ZM27.6177 56.7623H50.6587C50.6157 53.7566 49.383 50.8885 47.2272 48.7781C45.0713 46.6677 42.1656 45.4846 39.1382 45.4846C36.1108 45.4846 33.205 46.6677 31.0492 48.7781C28.8933 50.8885 27.6607 53.7566 27.6177 56.7623Z" fill="#24071D"/>
<path d="M30.6837 56.9352C30.6837 58.5953 31.1795 60.218 32.1083 61.5983C33.0372 62.9786 34.3573 64.0543 35.9019 64.6896C37.4465 65.3249 39.1462 65.4911 40.7859 65.1672C42.4257 64.8434 43.9319 64.044 45.114 62.8702C46.2962 61.6964 47.1013 60.2008 47.4275 58.5727C47.7536 56.9446 47.5862 55.257 46.9464 53.7233C46.3067 52.1896 45.2232 50.8788 43.8331 49.9565C42.443 49.0343 40.8087 48.542 39.1368 48.542C36.8957 48.5444 34.747 49.4295 33.1623 51.003C31.5776 52.5765 30.6862 54.71 30.6837 56.9352Z" fill="#24071D"/>
<path d="M39.1369 60.6487C41.2024 60.6487 42.8768 58.9861 42.8768 56.9352C42.8768 54.8844 41.2024 53.2218 39.1369 53.2218C37.0714 53.2218 35.397 54.8844 35.397 56.9352C35.397 58.9861 37.0714 60.6487 39.1369 60.6487Z" fill="white"/>
<path d="M35.009 56.9352C35.009 56.1241 35.2513 55.3311 35.7052 54.6567C36.1592 53.9822 36.8044 53.4566 37.5592 53.1463C38.314 52.836 39.1446 52.7549 39.9458 52.9133C40.747 53.0717 41.4829 53.4625 42.0605 54.0363C42.638 54.61 43.0312 55.341 43.1903 56.1366C43.3494 56.9323 43.2672 57.7569 42.9543 58.5062C42.6413 59.2555 42.1116 59.8958 41.4321 60.3461C40.7526 60.7965 39.9538 61.0366 39.1369 61.0361C38.0423 61.0343 36.993 60.6016 36.2193 59.8329C35.4455 59.0641 35.0103 58.0221 35.009 56.9352ZM35.7872 56.9352C35.7868 57.5937 35.983 58.2375 36.3512 58.7852C36.7193 59.3329 37.2428 59.7598 37.8554 60.012C38.468 60.2642 39.1421 60.3303 39.7926 60.2019C40.443 60.0736 41.0405 59.7566 41.5094 59.291C41.9783 58.8254 42.2976 58.2321 42.4269 57.5863C42.5561 56.9405 42.4895 56.2711 42.2356 55.6628C41.9816 55.0546 41.5516 54.5348 41 54.1693C40.4484 53.8037 39.8 53.6089 39.1369 53.6093C38.2489 53.6105 37.3976 53.9613 36.7697 54.5848C36.1417 55.2083 35.7884 56.0535 35.7872 56.9352Z" fill="#797AC5"/>
<path d="M44.2682 42.8865C51.1023 42.8865 56.6424 37.3856 56.6424 30.6C56.6424 23.8143 51.1023 18.3134 44.2682 18.3134C37.4342 18.3134 31.894 23.8143 31.894 30.6C31.894 37.3856 37.4342 42.8865 44.2682 42.8865Z" fill="#4D4E95"/>
<path opacity="0.26" d="M44.1683 17.8429C44.1669 20.6445 43.5025 23.4066 42.2287 25.9064C40.9549 28.4063 39.1074 30.574 36.835 32.2349C34.5627 33.8957 31.9291 35.0032 29.1466 35.468C26.3642 35.9328 23.5106 35.7419 20.816 34.9108V10.3999C20.816 10.0763 20.9455 9.76596 21.176 9.53715C21.4064 9.30833 21.719 9.17978 22.0449 9.17978H41.9174C43.3989 11.8299 44.1737 14.8119 44.1683 17.8429Z" fill="#680000"/>
<path d="M10.0841 25.7241H0.525293C0.479087 25.7241 0.434774 25.7059 0.402102 25.6734C0.369429 25.641 0.351074 25.597 0.351074 25.5511C0.351074 25.5052 0.369429 25.4612 0.402102 25.4288C0.434774 25.3963 0.479087 25.3781 0.525293 25.3781H10.0841C10.1303 25.3781 10.1746 25.3963 10.2073 25.4288C10.24 25.4612 10.2583 25.5052 10.2583 25.5511C10.2583 25.597 10.24 25.641 10.2073 25.6734C10.1746 25.7059 10.1303 25.7241 10.0841 25.7241Z" fill="#24071D"/>
<path d="M15.1273 30.766H9.81716C9.77096 30.766 9.72664 30.7478 9.69397 30.7154C9.6613 30.6829 9.64294 30.6389 9.64294 30.5931C9.64294 30.5472 9.6613 30.5032 9.69397 30.4707C9.72664 30.4383 9.77096 30.4201 9.81716 30.4201H15.1343C15.1805 30.4201 15.2248 30.4383 15.2575 30.4707C15.2902 30.5032 15.3085 30.5472 15.3085 30.5931C15.3085 30.6389 15.2902 30.6829 15.2575 30.7154C15.2248 30.7478 15.1805 30.766 15.1343 30.766H15.1273Z" fill="#24071D"/>
<path d="M7.95879 30.766H2.64163C2.59542 30.766 2.55111 30.7478 2.51843 30.7154C2.48576 30.6829 2.46741 30.6389 2.46741 30.5931C2.46741 30.5472 2.48576 30.5032 2.51843 30.4707C2.55111 30.4383 2.59542 30.4201 2.64163 30.4201H7.95879C8.00499 30.4201 8.0493 30.4383 8.08198 30.4707C8.11465 30.5032 8.13301 30.5472 8.13301 30.5931C8.13301 30.6389 8.11465 30.6829 8.08198 30.7154C8.0493 30.7478 8.00499 30.766 7.95879 30.766Z" fill="#24071D"/>
<path d="M15.1273 20.6614H11.9566C11.9104 20.6614 11.866 20.6431 11.8334 20.6107C11.8007 20.5783 11.7823 20.5343 11.7823 20.4884C11.7823 20.4425 11.8007 20.3985 11.8334 20.3661C11.866 20.3336 11.9104 20.3154 11.9566 20.3154H15.1273C15.1736 20.3154 15.2179 20.3336 15.2505 20.3661C15.2832 20.3985 15.3016 20.4425 15.3016 20.4884C15.3016 20.5343 15.2832 20.5783 15.2505 20.6107C15.2179 20.6431 15.1736 20.6614 15.1273 20.6614Z" fill="#24071D"/>
<path d="M9.54288 35.8172H6.37209C6.32589 35.8172 6.28158 35.799 6.2489 35.7666C6.21623 35.7341 6.19788 35.6901 6.19788 35.6442C6.19788 35.5984 6.21623 35.5544 6.2489 35.5219C6.28158 35.4895 6.32589 35.4713 6.37209 35.4713H9.54288C9.58908 35.4713 9.6334 35.4895 9.66607 35.5219C9.69874 35.5544 9.7171 35.5984 9.7171 35.6442C9.7171 35.6901 9.69874 35.7341 9.66607 35.7666C9.6334 35.799 9.58908 35.8172 9.54288 35.8172Z" fill="#24071D"/>
<path d="M13.9402 45.9219H3.55679C3.51058 45.9219 3.46627 45.9037 3.4336 45.8712C3.40092 45.8388 3.38257 45.7948 3.38257 45.7489C3.38257 45.703 3.40092 45.659 3.4336 45.6266C3.46627 45.5941 3.51058 45.5759 3.55679 45.5759H13.9402C13.9864 45.5759 14.0307 45.5941 14.0634 45.6266C14.0961 45.659 14.1144 45.703 14.1144 45.7489C14.1144 45.7948 14.0961 45.8388 14.0634 45.8712C14.0307 45.9037 13.9864 45.9219 13.9402 45.9219Z" fill="#24071D"/>
<path d="M15.1273 50.9754H9.81716C9.77096 50.9754 9.72664 50.9571 9.69397 50.9247C9.6613 50.8923 9.64294 50.8483 9.64294 50.8024C9.64294 50.7565 9.6613 50.7125 9.69397 50.6801C9.72664 50.6476 9.77096 50.6294 9.81716 50.6294H15.1343C15.1805 50.6294 15.2248 50.6476 15.2575 50.6801C15.2902 50.7125 15.3085 50.7565 15.3085 50.8024C15.3085 50.8483 15.2902 50.8923 15.2575 50.9247C15.2248 50.9571 15.1805 50.9754 15.1343 50.9754H15.1273Z" fill="#24071D"/>
<path d="M13.0018 40.8707H7.68459C7.63839 40.8707 7.59408 40.8524 7.5614 40.82C7.52873 40.7876 7.51038 40.7436 7.51038 40.6977C7.51038 40.6518 7.52873 40.6078 7.5614 40.5754C7.59408 40.5429 7.63839 40.5247 7.68459 40.5247H13.0018C13.048 40.5247 13.0923 40.5429 13.1249 40.5754C13.1576 40.6078 13.176 40.6518 13.176 40.6977C13.176 40.7436 13.1576 40.7876 13.1249 40.82C13.0923 40.8524 13.048 40.8707 13.0018 40.8707Z" fill="#24071D"/>
<path d="M87.3374 34.0597C87.4101 34.0589 87.4811 34.0381 87.5425 33.9994C87.6039 33.9607 87.6532 33.9058 87.6848 33.8408C87.7164 33.7759 87.7292 33.7034 87.7215 33.6316C87.7139 33.5599 87.6863 33.4916 87.6417 33.4346L80.4337 24.3402C80.3699 24.2598 80.2766 24.2078 80.1742 24.1957C80.0719 24.1836 79.9688 24.2123 79.8878 24.2756C79.8068 24.339 79.7544 24.4316 79.7422 24.5333C79.73 24.6349 79.759 24.7372 79.8228 24.8177L87.0308 33.9121C87.0672 33.9582 87.1138 33.9955 87.1669 34.0211C87.2201 34.0467 87.2784 34.0599 87.3374 34.0597Z" fill="white"/>
<path d="M81.9505 33.7391C82.0234 33.7388 82.0947 33.7182 82.1564 33.6797C82.2181 33.6412 82.2678 33.5864 82.2997 33.5213C82.3316 33.4562 82.3445 33.3836 82.337 33.3116C82.3295 33.2397 82.3018 33.1712 82.2571 33.114L76.1084 25.3574C76.0768 25.3175 76.0376 25.2843 75.9931 25.2595C75.9486 25.2347 75.8996 25.2188 75.8489 25.2128C75.7982 25.2068 75.7468 25.2108 75.6977 25.2245C75.6485 25.2382 75.6026 25.2614 75.5625 25.2928C75.5224 25.3241 75.4889 25.363 75.4639 25.4072C75.4389 25.4514 75.423 25.5001 75.4169 25.5504C75.4109 25.6008 75.4149 25.6518 75.4287 25.7006C75.4425 25.7494 75.4659 25.795 75.4975 25.8348L81.6439 33.5915C81.6805 33.6374 81.7271 33.6745 81.7802 33.7C81.8333 33.7256 81.8915 33.739 81.9505 33.7391Z" fill="white"/>
<path d="M26.4421 33.3747C23.1181 33.3747 19.8688 32.396 17.105 30.5623C14.3412 28.7287 12.1871 26.1225 10.9151 23.0733C9.64302 20.0241 9.3102 16.6688 9.95868 13.4318C10.6072 10.1948 12.2078 7.22138 14.5582 4.88761C16.9086 2.55385 19.9032 0.964534 23.1633 0.32065C26.4234 -0.323234 29.8026 0.00722961 32.8735 1.27025C35.9445 2.53328 38.5693 4.67214 40.416 7.41635C42.2627 10.1606 43.2484 13.3869 43.2484 16.6873C43.2428 21.1114 41.4704 25.3527 38.3198 28.481C35.1692 31.6093 30.8977 33.3692 26.4421 33.3747ZM26.4421 0.345979C23.187 0.345979 20.005 1.30438 17.2986 3.09999C14.5921 4.89561 12.4826 7.44777 11.237 10.4338C9.99131 13.4198 9.66539 16.7055 10.3004 19.8754C10.9355 23.0453 12.5029 25.957 14.8046 28.2424C17.1063 30.5278 20.0388 32.0841 23.2313 32.7147C26.4238 33.3452 29.7329 33.0216 32.7402 31.7848C35.7475 30.5479 38.3179 28.4534 40.1263 25.7661C41.9347 23.0788 42.8999 19.9193 42.8999 16.6873C42.8932 12.356 41.1568 8.20416 38.0716 5.14211C34.9864 2.08007 30.8042 0.357778 26.4421 0.352898V0.345979Z" fill="#24071D"/>
<path d="M26.4422 30.0049C33.8497 30.0049 39.8547 24.0424 39.8547 16.6873C39.8547 9.33223 33.8497 3.36975 26.4422 3.36975C19.0347 3.36975 13.0297 9.33223 13.0297 16.6873C13.0297 24.0424 19.0347 30.0049 26.4422 30.0049Z" fill="white"/>
<path d="M26.4421 33.2017C35.6278 33.2017 43.0742 25.808 43.0742 16.6873C43.0742 7.56673 35.6278 0.173004 26.4421 0.173004C17.2565 0.173004 9.81006 7.56673 9.81006 16.6873C9.81006 25.808 17.2565 33.2017 26.4421 33.2017Z" fill="#4D4E95"/>
<path d="M26.4421 30.171C23.7553 30.1728 21.1284 29.3833 18.8935 27.9025C16.6587 26.4216 14.9164 24.3159 13.887 21.8517C12.8577 19.3875 12.5875 16.6755 13.1107 14.0588C13.6339 11.4422 14.927 9.03833 16.8264 7.15146C18.7257 5.26459 21.146 3.97944 23.7811 3.4586C26.4162 2.93775 29.1476 3.2046 31.6299 4.22541C34.1122 5.24621 36.2338 6.97509 37.7264 9.19334C39.2189 11.4116 40.0154 14.0196 40.0149 16.6873C40.0106 20.2609 38.5795 23.687 36.0352 26.2145C33.4909 28.7421 30.0412 30.1649 26.4421 30.171ZM26.4421 3.53812C23.8234 3.53812 21.2634 4.30917 19.086 5.75377C16.9086 7.19837 15.2115 9.25163 14.2094 11.6539C13.2072 14.0562 12.945 16.6996 13.4559 19.2498C13.9668 21.8001 15.2278 24.1426 17.0796 25.9813C18.9313 27.8199 21.2906 29.072 23.859 29.5793C26.4274 30.0866 29.0897 29.8262 31.5091 28.8312C33.9285 27.8361 35.9964 26.151 37.4513 23.989C38.9062 21.827 39.6827 19.2852 39.6827 16.685C39.6784 13.1995 38.2821 9.85807 35.7999 7.39348C33.3177 4.92888 29.9524 3.54239 26.4421 3.53812Z" fill="#24071D"/>
<path d="M31.7151 31.029C31.6756 31.0286 31.6373 31.015 31.6066 30.9902C31.576 30.9654 31.5547 30.931 31.5463 30.8927C31.5379 30.8543 31.543 30.8142 31.5605 30.7791C31.5781 30.7439 31.6072 30.7157 31.6431 30.6992C38.6769 27.4701 39.9382 22.7164 39.9498 22.668C39.9553 22.6459 39.9652 22.6251 39.9788 22.6067C39.9923 22.5884 40.0094 22.5729 40.0291 22.5611C40.0487 22.5493 40.0705 22.5415 40.0932 22.5381C40.1158 22.5347 40.139 22.5357 40.1612 22.5411C40.1835 22.5466 40.2045 22.5563 40.2229 22.5698C40.2414 22.5833 40.257 22.6003 40.2689 22.6198C40.2807 22.6393 40.2886 22.6609 40.2921 22.6834C40.2955 22.706 40.2945 22.7289 40.289 22.751C40.2402 22.9517 38.9858 27.703 31.7894 31.0128C31.7659 31.0228 31.7407 31.0283 31.7151 31.029Z" fill="white"/>
<path d="M11.306 15.5341H11.2875C11.2416 15.5294 11.1995 15.5069 11.1703 15.4714C11.1411 15.436 11.1273 15.3905 11.1318 15.3449C11.7335 9.57877 14.1516 7.44068 14.2608 7.35072C14.2959 7.32014 14.3418 7.30466 14.3884 7.30769C14.4351 7.31071 14.4785 7.332 14.5094 7.36687C14.5402 7.40174 14.5558 7.44733 14.5527 7.49361C14.5497 7.53989 14.5282 7.58308 14.4931 7.61366C14.4699 7.63442 12.068 9.76791 11.4733 15.3819C11.4679 15.4227 11.4481 15.4603 11.4176 15.4882C11.387 15.516 11.3475 15.5323 11.306 15.5341Z" fill="white"/>
<path d="M38.0754 17.4554H26.3214V6.58728H26.6559V17.1255H38.0754V17.4554Z" fill="#24071D"/>
<path d="M26.4863 18.8923C27.4934 18.8923 28.3098 18.0817 28.3098 17.0817C28.3098 16.0818 27.4934 15.2711 26.4863 15.2711C25.4792 15.2711 24.6628 16.0818 24.6628 17.0817C24.6628 18.0817 25.4792 18.8923 26.4863 18.8923Z" fill="#24071D"/>
<path d="M76.8982 38.2482H72.0108C71.4219 38.2482 70.9446 38.7222 70.9446 39.3069V39.4292C70.9446 40.0138 71.4219 40.4878 72.0108 40.4878H76.8982C77.4871 40.4878 77.9645 40.0138 77.9645 39.4292V39.3069C77.9645 38.7222 77.4871 38.2482 76.8982 38.2482Z" fill="#4D4E95"/>
<path d="M76.8982 40.6608H72.0201C71.6913 40.6602 71.3761 40.5302 71.1437 40.2994C70.9112 40.0685 70.7803 39.7556 70.7797 39.4291V39.3069C70.7803 38.9804 70.9112 38.6675 71.1437 38.4366C71.3761 38.2058 71.6913 38.0758 72.0201 38.0752H76.8982C77.2272 38.0752 77.5427 38.205 77.7753 38.436C78.0079 38.667 78.1386 38.9802 78.1386 39.3069V39.4291C78.1386 39.7558 78.0079 40.0691 77.7753 40.3C77.5427 40.531 77.2272 40.6608 76.8982 40.6608ZM72.0201 38.4212C71.7837 38.4218 71.5572 38.5153 71.39 38.6813C71.2229 38.8472 71.1287 39.0722 71.1281 39.3069V39.4291C71.1287 39.6638 71.2229 39.8888 71.39 40.0547C71.5572 40.2207 71.7837 40.3142 72.0201 40.3148H76.8982C77.1348 40.3148 77.3617 40.2215 77.5289 40.0554C77.6962 39.8893 77.7902 39.664 77.7902 39.4291V39.3069C77.7902 39.072 77.6962 38.8467 77.5289 38.6806C77.3617 38.5145 77.1348 38.4212 76.8982 38.4212H72.0201Z" fill="#24071D"/>
<path d="M39.1277 58.2545C39.8615 58.2545 40.4564 57.6639 40.4564 56.9352C40.4564 56.2066 39.8615 55.6159 39.1277 55.6159C38.3938 55.6159 37.799 56.2066 37.799 56.9352C37.799 57.6639 38.3938 58.2545 39.1277 58.2545Z" fill="#4D4E95"/>
<path d="M39.1277 58.4275C38.8304 58.4275 38.5399 58.34 38.2927 58.176C38.0455 58.0121 37.8529 57.779 37.7392 57.5063C37.6254 57.2336 37.5956 56.9336 37.6536 56.6441C37.7116 56.3546 37.8548 56.0887 38.065 55.88C38.2751 55.6713 38.5429 55.5292 38.8345 55.4716C39.126 55.4141 39.4282 55.4436 39.7028 55.5566C39.9775 55.6695 40.2122 55.8608 40.3773 56.1062C40.5425 56.3516 40.6306 56.6401 40.6306 56.9352C40.63 57.3308 40.4715 57.7101 40.1897 57.9898C39.908 58.2695 39.5261 58.4269 39.1277 58.4275ZM39.1277 55.7889C38.898 55.7889 38.6734 55.8566 38.4824 55.9833C38.2914 56.11 38.1425 56.2901 38.0546 56.5008C37.9667 56.7116 37.9437 56.9434 37.9885 57.1671C38.0334 57.3909 38.144 57.5963 38.3064 57.7576C38.4688 57.9189 38.6758 58.0287 38.9011 58.0732C39.1264 58.1177 39.3599 58.0949 39.5722 58.0076C39.7844 57.9203 39.9658 57.7725 40.0934 57.5829C40.221 57.3932 40.2891 57.1703 40.2891 56.9422C40.2891 56.6363 40.1668 56.343 39.949 56.1267C39.7311 55.9104 39.4357 55.7889 39.1277 55.7889Z" fill="#24071D"/>
<path d="M96.2086 37.5401H90.9333C90.887 37.5401 90.8427 37.5219 90.8101 37.4895C90.7774 37.457 90.759 37.413 90.759 37.3671C90.759 37.3213 90.7774 37.2773 90.8101 37.2448C90.8427 37.2124 90.887 37.1942 90.9333 37.1942H96.2086C96.2548 37.1942 96.2991 37.2124 96.3318 37.2448C96.3645 37.2773 96.3828 37.3213 96.3828 37.3671C96.3828 37.413 96.3645 37.457 96.3318 37.4895C96.2991 37.5219 96.2548 37.5401 96.2086 37.5401Z" fill="white"/>
<path d="M97.779 48.9871C97.7329 48.9865 97.689 48.9681 97.6564 48.9358C97.6239 48.9035 97.6053 48.8598 97.6047 48.8141V40.6977C97.6047 40.6518 97.6231 40.6078 97.6558 40.5754C97.6884 40.5429 97.7328 40.5247 97.779 40.5247C97.8252 40.5247 97.8695 40.5429 97.9021 40.5754C97.9348 40.6078 97.9532 40.6518 97.9532 40.6977V48.8141C97.9532 48.86 97.9348 48.904 97.9021 48.9365C97.8695 48.9689 97.8252 48.9871 97.779 48.9871Z" fill="white"/>
<path d="M84.6614 63.8962C84.6211 63.8965 84.5819 63.883 84.5506 63.8579C84.5192 63.8328 84.4976 63.7977 84.4894 63.7585C84.4812 63.7193 84.4869 63.6786 84.5055 63.6431C84.5242 63.6077 84.5546 63.5797 84.5917 63.5641C88.5778 61.8504 89.2677 57.7979 89.27 57.7495C89.2741 57.705 89.2952 57.6638 89.3289 57.6342C89.3625 57.6047 89.4063 57.589 89.4512 57.5903C89.496 57.5915 89.5385 57.61 89.5698 57.6419C89.601 57.6738 89.6185 57.7165 89.6185 57.761C89.6185 57.8002 88.9448 62.0672 84.7287 63.8824C84.7075 63.8916 84.6845 63.8963 84.6614 63.8962Z" fill="white"/>
<path d="M40.6793 63.8962C40.6453 63.8963 40.612 63.8865 40.5836 63.8681C40.5551 63.8496 40.5327 63.8233 40.5191 63.7924C40.5003 63.7499 40.4994 63.7017 40.5163 63.6585C40.5333 63.6152 40.5669 63.5804 40.6097 63.5617C44.5958 61.848 45.2857 57.7956 45.2903 57.7471C45.2945 57.7027 45.3155 57.6615 45.3492 57.6319C45.3828 57.6023 45.4266 57.5866 45.4715 57.588C45.5159 57.5898 45.5578 57.6085 45.5886 57.6403C45.6193 57.6722 45.6365 57.7146 45.6364 57.7587C45.6364 57.7979 44.9651 62.0648 40.7583 63.88C40.7335 63.8911 40.7065 63.8966 40.6793 63.8962Z" fill="white"/>
<path d="M66.4777 29.6082C66.4315 29.6082 66.3872 29.59 66.3545 29.5575C66.3218 29.5251 66.3035 29.4811 66.3035 29.4352V18.4241C66.3035 18.3782 66.3218 18.3342 66.3545 18.3018C66.3872 18.2694 66.4315 18.2511 66.4777 18.2511C66.5239 18.2511 66.5682 18.2694 66.6009 18.3018C66.6335 18.3342 66.6519 18.3782 66.6519 18.4241V29.4352C66.6522 29.458 66.6479 29.4806 66.6393 29.5018C66.6306 29.5229 66.6178 29.5421 66.6016 29.5582C66.5853 29.5743 66.566 29.5871 66.5447 29.5956C66.5234 29.6042 66.5007 29.6085 66.4777 29.6082Z" fill="white"/>
<path d="M66.4777 36.1147C66.4317 36.1141 66.3877 36.0957 66.3552 36.0634C66.3226 36.0311 66.3041 35.9874 66.3035 35.9417V31.8478C66.3035 31.8019 66.3218 31.7579 66.3545 31.7254C66.3872 31.693 66.4315 31.6748 66.4777 31.6748C66.5239 31.6748 66.5682 31.693 66.6009 31.7254C66.6335 31.7579 66.6519 31.8019 66.6519 31.8478V35.9417C66.6519 35.9876 66.6335 36.0316 66.6009 36.0641C66.5682 36.0965 66.5239 36.1147 66.4777 36.1147Z" fill="white"/>
<path d="M61.0396 11.2141H49.9198C49.8736 11.2141 49.8293 11.1958 49.7966 11.1634C49.764 11.131 49.7456 11.087 49.7456 11.0411C49.7456 10.9952 49.764 10.9512 49.7966 10.9188C49.8293 10.8863 49.8736 10.8681 49.9198 10.8681H61.0396C61.0858 10.8681 61.1301 10.8863 61.1628 10.9188C61.1955 10.9512 61.2138 10.9952 61.2138 11.0411C61.2138 11.087 61.1955 11.131 61.1628 11.1634C61.1301 11.1958 61.0858 11.2141 61.0396 11.2141Z" fill="white"/>
<path d="M22.1054 48.429C22.0594 48.4284 22.0154 48.41 21.9828 48.3777C21.9503 48.3454 21.9318 48.3017 21.9312 48.256V39.6667C21.9312 39.6209 21.9495 39.5769 21.9822 39.5444C22.0149 39.512 22.0592 39.4937 22.1054 39.4937C22.1516 39.4937 22.1959 39.512 22.2286 39.5444C22.2612 39.5769 22.2796 39.6209 22.2796 39.6667V48.256C22.2796 48.3019 22.2612 48.3459 22.2286 48.3783C22.1959 48.4108 22.1516 48.429 22.1054 48.429Z" fill="white"/>
<path d="M86.1202 19.0861H73.9435C73.8973 19.0861 73.853 19.0678 73.8203 19.0354C73.7876 19.0029 73.7693 18.9589 73.7693 18.9131C73.7693 18.8672 73.7876 18.8232 73.8203 18.7907C73.853 18.7583 73.8973 18.7401 73.9435 18.7401H86.1202C86.1664 18.7401 86.2107 18.7583 86.2434 18.7907C86.2761 18.8232 86.2944 18.8672 86.2944 18.9131C86.2944 18.9589 86.2761 19.0029 86.2434 19.0354C86.2107 19.0678 86.1664 19.0861 86.1202 19.0861Z" fill="white"/>
</svg>
