<svg width="92" height="72" viewBox="0 0 92 72" fill="none" xmlns="http://www.w3.org/2000/svg">
<path d="M34.4941 3.56289L19.0989 5.30087L21.389 25.5293L36.7842 23.7913L34.4941 3.56289Z" fill="#D6D6FF"/>
<path opacity="0.26" d="M91.1672 68.7296H0.490845V69.9851H91.1672V68.7296Z" fill="#680000"/>
<path d="M61.183 18.3911L61.0367 18.1344C61.4516 17.8678 61.8087 17.5208 62.0868 17.1139C62.3649 16.7069 62.5584 16.2484 62.6558 15.7655C62.9089 14.3342 62.2723 12.7016 60.7639 10.9091L60.9913 10.7117C62.561 12.5753 63.2193 14.2928 62.9464 15.8128C62.8456 16.3405 62.637 16.8417 62.3336 17.2853C62.0302 17.7289 61.6385 18.1053 61.183 18.3911Z" fill="#24071D"/>
<path d="M91.264 68.8776H0.4908C0.451476 68.8776 0.413763 68.862 0.385957 68.8342C0.358151 68.8065 0.342529 68.7688 0.342529 68.7295C0.342529 68.6903 0.358151 68.6526 0.385957 68.6248C0.413763 68.5971 0.451476 68.5815 0.4908 68.5815H91.264C91.3033 68.5815 91.341 68.5971 91.3688 68.6248C91.3966 68.6526 91.4123 68.6903 91.4123 68.7295C91.4123 68.7688 91.3966 68.8065 91.3688 68.8342C91.341 68.862 91.3033 68.8776 91.264 68.8776Z" fill="#24071D"/>
<path d="M12.8251 33.5169C13.0228 33.1221 13.4814 33.0234 14.5826 34.348L12.8251 33.5169Z" fill="white"/>
<path d="M14.5825 34.4961C14.5606 34.4961 14.5391 34.4913 14.5193 34.4821C14.4995 34.4729 14.4819 34.4595 14.4678 34.4428C13.677 33.4932 13.3093 33.3847 13.1551 33.4044C13.1037 33.4044 13.0286 33.436 12.9574 33.5801C12.9407 33.6157 12.9104 33.6432 12.8733 33.6565C12.8363 33.6699 12.7954 33.6679 12.7597 33.6512C12.7241 33.6344 12.6966 33.6042 12.6832 33.5672C12.6699 33.5302 12.6718 33.4894 12.6886 33.4538C12.7231 33.3636 12.781 33.2842 12.8564 33.2239C12.9318 33.1635 13.0219 33.1243 13.1176 33.1103C13.4952 33.0609 14.0131 33.436 14.6991 34.2533C14.7238 34.2835 14.7356 34.3222 14.7319 34.361C14.7282 34.3998 14.7093 34.4356 14.6794 34.4606C14.6525 34.4838 14.618 34.4964 14.5825 34.4961Z" fill="#24071D"/>
<path d="M11.1526 32.9799C11.2277 32.668 11.3799 32.3877 11.6804 32.3245C11.6804 32.3245 12.3467 32.1488 13.3213 34.6086" fill="white"/>
<path d="M13.3214 34.7567C13.2914 34.7567 13.2622 34.7476 13.2375 34.7307C13.2128 34.7138 13.1938 34.6898 13.183 34.6619C12.3131 32.4627 11.724 32.4666 11.7201 32.4686C11.5224 32.5121 11.3741 32.6957 11.297 33.0135C11.2925 33.0324 11.2842 33.0503 11.2728 33.066C11.2613 33.0818 11.2469 33.0951 11.2303 33.1053C11.2136 33.1154 11.1952 33.1223 11.1759 33.1253C11.1567 33.1284 11.137 33.1276 11.1181 33.1231C11.0991 33.1185 11.0813 33.1103 11.0655 33.0989C11.0497 33.0874 11.0364 33.073 11.0262 33.0564C11.016 33.0398 11.0092 33.0214 11.0061 33.0022C11.0031 32.983 11.0038 32.9633 11.0084 32.9444C11.1408 32.3976 11.4314 32.2278 11.6509 32.1804C11.7754 32.1468 12.4851 32.0955 13.4598 34.5494C13.4675 34.5678 13.4715 34.5875 13.4715 34.6074C13.4714 34.6274 13.4675 34.6471 13.4597 34.6655C13.452 34.6838 13.4407 34.7005 13.4264 34.7145C13.4122 34.7284 13.3953 34.7394 13.3767 34.7468C13.3589 34.7529 13.3402 34.7562 13.3214 34.7567Z" fill="#24071D"/>
<path d="M21.0649 49.5745C22.5693 53.9275 24.3308 58.1857 26.5608 62.2228C26.9127 62.8585 27.2902 63.506 27.8636 63.9541C28.7413 64.6352 29.9631 64.7438 31.0445 64.4852C36.06 63.3165 40.3262 58.2429 41.1842 53.2898L33.0471 48.2755L29.9077 53.5761C27.6164 48.9329 23.4846 36.9834 21.7627 35.4298C21.5075 35.1598 21.1966 34.9483 20.8515 34.8099C20.5064 34.6715 20.1354 34.6096 19.764 34.6283" fill="white"/>
<path d="M29.963 64.7615C29.1762 64.7809 28.4054 64.5377 27.7726 64.0706C27.1894 63.6165 26.8058 62.971 26.4322 62.2939C24.4038 58.6259 22.6029 54.4802 20.9244 49.6219C20.9179 49.6036 20.9151 49.5842 20.9161 49.5649C20.9172 49.5455 20.9221 49.5265 20.9305 49.5091C20.939 49.4916 20.9509 49.476 20.9654 49.4632C20.98 49.4503 20.997 49.4405 21.0154 49.4343C21.0343 49.4265 21.0545 49.4227 21.075 49.4231C21.0954 49.4235 21.1155 49.4281 21.1341 49.4366C21.1527 49.4451 21.1693 49.4574 21.1828 49.4726C21.1964 49.4879 21.2067 49.5057 21.2131 49.5251C22.8856 54.3677 24.6806 58.4976 26.6991 62.1596C27.0707 62.8348 27.4246 63.427 27.9623 63.8455C28.7274 64.4378 29.8424 64.6253 31.0187 64.3509C35.7278 63.2533 40.1126 58.4443 41.0279 53.3727L33.1063 48.4907L30.0421 53.661C30.0285 53.684 30.0089 53.703 29.9854 53.7158C29.962 53.7286 29.9354 53.7349 29.9087 53.7339C29.8819 53.7329 29.8559 53.7246 29.8335 53.7101C29.811 53.6955 29.7929 53.6751 29.7811 53.6511C28.9014 51.8744 27.7706 49.0593 26.5745 46.0862C24.6727 41.366 22.7076 36.486 21.6717 35.5502C21.4308 35.2933 21.1373 35.0913 20.8112 34.9577C20.485 34.8242 20.134 34.7623 19.7818 34.7764C19.7426 34.778 19.7043 34.7643 19.6751 34.7381C19.6459 34.7119 19.6281 34.6753 19.6256 34.6362C19.6242 34.6167 19.6268 34.5971 19.6332 34.5786C19.6396 34.5601 19.6496 34.5431 19.6627 34.5286C19.6758 34.514 19.6917 34.5023 19.7094 34.494C19.7272 34.4857 19.7464 34.481 19.7659 34.4803C20.1587 34.4589 20.5515 34.5237 20.9165 34.67C21.2816 34.8163 21.6102 35.0406 21.8793 35.3272C22.9686 36.3142 24.9416 41.2259 26.8513 45.9658C27.992 48.8006 29.0734 51.4835 29.9294 53.2701L32.9304 48.2084C32.9501 48.1758 32.9819 48.1522 33.0188 48.1426C33.0557 48.133 33.0949 48.1382 33.1281 48.1571L41.2652 53.1733C41.2902 53.1887 41.3099 53.2113 41.3219 53.238C41.3339 53.2648 41.3376 53.2945 41.3324 53.3234C40.4289 58.5391 35.9274 63.508 31.08 64.6372C30.7137 64.7214 30.3389 64.7631 29.963 64.7615Z" fill="#24071D"/>
<path d="M21.0648 49.5745C21.0648 49.5745 17.3383 37.9508 15.9683 37.7988L21.0648 49.5745Z" fill="white"/>
<path d="M21.0649 49.7226C21.0335 49.7222 21.0029 49.7122 20.9774 49.6938C20.952 49.6754 20.9328 49.6496 20.9226 49.6199C19.4933 45.1603 16.8798 38.0495 15.9526 37.9469C15.9329 37.945 15.9138 37.9393 15.8964 37.93C15.879 37.9207 15.8636 37.9081 15.8512 37.8928C15.8387 37.8775 15.8295 37.8599 15.8239 37.841C15.8184 37.8221 15.8167 37.8022 15.8189 37.7826C15.8212 37.7631 15.8273 37.7441 15.837 37.7269C15.8466 37.7098 15.8596 37.6947 15.8752 37.6826C15.8908 37.6705 15.9086 37.6616 15.9277 37.6565C15.9467 37.6513 15.9666 37.6501 15.9862 37.6527C16.2432 37.6803 16.9312 37.7573 19.169 43.6916C20.2603 46.5857 21.1974 49.4995 21.2053 49.5291C21.2172 49.5663 21.2138 49.6066 21.1961 49.6414C21.1783 49.6761 21.1475 49.7025 21.1104 49.7147C21.0958 49.72 21.0804 49.7227 21.0649 49.7226Z" fill="#24071D"/>
<path d="M47.7023 26.0053L47.7675 36.3952H56.1715L56.1082 26.0053H47.7023Z" fill="white"/>
<path d="M56.3217 36.5432H47.6231L47.5559 25.8572H56.2544L56.3217 36.5432ZM47.9137 36.257H56.0192L55.9599 26.1534H47.8544L47.9137 36.257Z" fill="#24071D"/>
<path opacity="0.26" d="M47.7714 28.0703V30.3227C48.9061 31.527 51.2528 31.8922 56.1081 28.244L56.2386 28.1472L56.1081 28.2223C55.3806 28.625 51.6976 30.4333 47.7714 28.0703Z" fill="#680000"/>
<path d="M51.6106 29.4363C52.705 29.4366 53.7888 29.2215 54.8 28.8035C55.8112 28.3854 56.7301 27.7726 57.504 26.9999C58.278 26.2272 58.892 25.3098 59.3109 24.3001C59.7298 23.2904 59.9454 22.2082 59.9454 21.1153V14.2236C59.9454 13.2126 59.7459 12.2114 59.3585 11.2773C58.971 10.3432 58.4031 9.49446 57.6871 8.77953C56.9712 8.0646 56.1212 7.49748 55.1858 7.11057C54.2504 6.72365 53.2478 6.52451 52.2353 6.52451H50.9958C46.7354 6.52451 42.8804 9.65154 43.0069 14.4645L43.2817 21.1213C43.2833 23.3264 44.1614 25.4408 45.723 26.9999C47.2847 28.559 49.4023 29.4353 51.6106 29.4363Z" fill="white"/>
<path d="M51.6106 29.5844C49.3629 29.5792 47.2088 28.6852 45.6194 27.0981C44.03 25.511 43.1348 23.3599 43.1296 21.1153L42.8548 14.4645C42.7974 12.2692 43.5388 10.3188 44.9958 8.82437C45.7823 8.03865 46.7175 7.41704 47.7469 6.99576C48.7763 6.57447 49.8794 6.36194 50.9919 6.37052H52.2314C54.3162 6.37313 56.3147 7.20141 57.7887 8.67365C59.2627 10.1459 60.0916 12.1418 60.0937 14.2236V21.1153C60.0885 23.3602 59.193 25.5116 57.6032 27.0988C56.0134 28.686 53.8587 29.5797 51.6106 29.5844ZM50.9919 6.66664C49.9188 6.65847 48.8548 6.86374 47.862 7.27046C46.8692 7.67719 45.9675 8.27723 45.2093 9.0356C44.5137 9.75132 43.9722 10.6017 43.6183 11.5344C43.2643 12.4671 43.1054 13.4622 43.1513 14.4586L43.4261 21.1114C43.4092 22.1955 43.6085 23.2721 44.0123 24.2786C44.4161 25.2851 45.0163 26.2013 45.7781 26.9739C46.5399 27.7465 47.4479 28.36 48.4494 28.7788C49.4509 29.1976 50.5259 29.4133 51.6116 29.4133C52.6974 29.4133 53.7723 29.1976 54.7738 28.7788C55.7753 28.36 56.6834 27.7465 57.4452 26.9739C58.2069 26.2013 58.8072 25.2851 59.211 24.2786C59.6148 23.2721 59.814 22.1955 59.7972 21.1114V14.2236C59.7951 12.2204 58.9974 10.2997 57.579 8.88304C56.1607 7.46634 54.2375 6.66925 52.2314 6.66664H50.9919Z" fill="#24071D"/>
<path d="M74.986 54.8139C71.4177 55.6035 67.2127 55.572 65.6707 55.801C65.3247 55.8523 65.7913 58.6536 65.7992 59.003L66.0127 61.984V62.0037C66.0156 62.1028 65.9985 62.2015 65.9624 62.2938C65.9263 62.3862 65.872 62.4704 65.8026 62.5413C65.7333 62.6122 65.6503 62.6685 65.5587 62.7067C65.4671 62.7449 65.3687 62.7643 65.2694 62.7637H40.2868C40.0905 62.7622 39.9029 62.6829 39.765 62.5434C39.6271 62.4039 39.5503 62.2155 39.5514 62.0195V61.98L39.6047 56.8236C39.6285 56.3754 39.4071 55.9293 39.1639 55.5522C37.5349 53.0688 33.5573 52.6581 31.3115 51.3039C30.7026 50.9347 30.2301 50.6603 29.9751 50.5142C29.8485 50.4399 29.747 50.3296 29.6836 50.1974C29.6202 50.0651 29.5978 49.917 29.6192 49.7719C29.6173 49.7556 29.6173 49.739 29.6192 49.7226L32.1616 43.3343C32.3632 42.8276 32.5833 42.336 32.8219 41.8596C33.2603 40.9703 33.7869 40.1271 34.3935 39.3426C35.7578 37.5268 37.6642 36.1906 39.838 35.5266L47.3504 33.2662C47.4582 33.2343 47.5717 33.2271 47.6827 33.2452C47.7936 33.2634 47.899 33.3063 47.9909 33.3708C52.1425 36.3498 55.0624 34.2691 55.956 33.4498C56.0502 33.3638 56.1648 33.303 56.2889 33.2733C56.4131 33.2436 56.5427 33.2459 56.6657 33.28L64.617 35.5424C66.3291 36.031 67.8911 36.9407 69.16 38.1882C70.4289 39.4356 71.3642 40.981 71.8803 42.6828L75.2984 53.9729C75.3893 54.2888 75.3083 54.7408 74.986 54.8139Z" fill="#6667AB"/>
<path d="M65.2693 62.9078H40.2867C40.0509 62.9073 39.825 62.8135 39.6582 62.647C39.4915 62.4806 39.3976 62.2549 39.3971 62.0194V61.98L39.4505 56.8216C39.4683 56.4761 39.3319 56.0911 39.0333 55.6371C38.0014 54.0578 36.0027 53.3431 34.0692 52.6482C33.0195 52.2712 32.0271 51.9138 31.2284 51.4341C30.6709 51.0946 30.2261 50.8419 29.9612 50.682L29.8939 50.6445C29.7432 50.5561 29.6221 50.4251 29.5457 50.2681C29.4694 50.1111 29.4413 49.935 29.465 49.762C29.4649 49.7353 29.4689 49.7086 29.4768 49.6831L32.0251 43.2809C32.2228 42.7598 32.4561 42.2583 32.6893 41.7944C33.1299 40.8967 33.6598 40.0455 34.2709 39.2537C35.6537 37.4142 37.5857 36.0607 39.7885 35.3884L47.3009 33.126C47.4303 33.0878 47.5667 33.0794 47.6999 33.1012C47.8331 33.1231 47.9596 33.1748 48.0699 33.2523C52.0574 36.1148 54.837 34.269 55.8472 33.3432C55.9605 33.2402 56.0983 33.1681 56.2475 33.1335C56.3967 33.0989 56.5522 33.1032 56.6993 33.1457L64.6584 35.3982C66.3968 35.8896 67.9831 36.8107 69.2706 38.0764C70.5581 39.342 71.5052 40.9114 72.0245 42.6394L75.4427 53.9275C75.4822 54.0534 75.4964 54.1859 75.4845 54.3173C75.4726 54.4488 75.4349 54.5766 75.3735 54.6934C75.3373 54.7593 75.2877 54.8167 75.2277 54.862C75.1677 54.9072 75.0988 54.9393 75.0255 54.956C72.6216 55.4831 69.927 55.645 67.9599 55.7634C67.0387 55.8187 66.24 55.868 65.7359 55.9391C65.6133 56.2115 65.811 57.7751 65.8861 58.3752C65.9257 58.6812 65.9533 58.9023 65.9553 58.9951L66.1688 61.9997C66.1717 62.1183 66.1508 62.2362 66.1072 62.3465C66.0637 62.4568 65.9984 62.5573 65.9153 62.642C65.8321 62.7267 65.7328 62.7938 65.6232 62.8395C65.5136 62.8851 65.396 62.9084 65.2772 62.9078H65.2693ZM47.5599 33.3807C47.5017 33.3813 47.4438 33.39 47.3879 33.4063L39.8755 35.6667C37.7312 36.3224 35.8506 37.6405 34.5042 39.4314C33.9034 40.2077 33.3821 41.0424 32.9483 41.9227C32.719 42.3807 32.4976 42.8723 32.294 43.3856L29.7516 49.7759C29.7337 49.8942 29.7514 50.0151 29.8024 50.1234C29.8535 50.2316 29.9356 50.3223 30.0383 50.3839L30.1035 50.4234C30.3704 50.5774 30.8172 50.836 31.3767 51.1775C32.1496 51.6414 33.1282 51.9948 34.1641 52.362C36.1411 53.0746 38.1892 53.809 39.2745 55.4673C39.6106 55.9786 39.7628 56.4228 39.7391 56.8275L39.6877 62.0155C39.6877 62.1726 39.7502 62.3232 39.8614 62.4343C39.9726 62.5453 40.1235 62.6077 40.2808 62.6077H65.2693C65.3493 62.6082 65.4285 62.5925 65.5022 62.5617C65.5759 62.5308 65.6426 62.4854 65.6983 62.4281C65.7532 62.3713 65.7961 62.3042 65.8246 62.2306C65.8531 62.1571 65.8667 62.0786 65.8644 61.9997V61.976L65.6469 59.0089C65.6469 58.926 65.6153 58.6871 65.5797 58.4166C65.3108 56.2984 65.3247 55.7042 65.6449 55.6529C66.1589 55.5759 66.9398 55.5285 67.9303 55.4693C69.8875 55.3508 72.5682 55.1909 74.9504 54.6678C74.9839 54.6602 75.0153 54.6453 75.0423 54.6241C75.0693 54.603 75.0913 54.5761 75.1066 54.5454C75.1869 54.3799 75.2017 54.1903 75.1481 54.0143L71.728 42.7262C71.2229 41.046 70.3019 39.5199 69.0501 38.2892C67.7982 37.0584 66.2558 36.1626 64.5655 35.6845L56.6163 33.4221C56.5172 33.3936 56.4124 33.3913 56.3122 33.4156C56.212 33.4398 56.1199 33.4897 56.0449 33.5603C55.2166 34.3203 52.176 36.563 47.894 33.4912C47.7969 33.4204 47.6801 33.3817 47.5599 33.3807Z" fill="#24071D"/>
<path opacity="0.26" d="M50.9265 34.9007L50.8198 34.8751L50.8949 34.9165L50.9265 34.9007Z" fill="#680000"/>
<path opacity="0.26" d="M54.9359 34.198L62.3712 36.4387C66.1037 37.56 68.7824 40.914 70.1524 44.5464L73.6575 55.5819C74.2664 55.2127 74.7389 54.9383 74.994 54.7922C75.1205 54.7179 75.222 54.6076 75.2854 54.4753C75.3488 54.3431 75.3712 54.195 75.3498 54.0499L72.0305 43.2514C71.87 42.7457 71.6779 42.2505 71.4552 41.7688C70.7821 40.2859 69.7946 38.9665 68.5611 37.9017C67.3276 36.837 65.8774 36.0522 64.3106 35.6016L56.7982 33.3373C56.6901 33.3053 56.5762 33.2982 56.465 33.3163C56.3537 33.3344 56.248 33.3773 56.1557 33.4419C55.7682 33.7235 55.3606 33.9762 54.9359 34.198Z" fill="#680000"/>
<path opacity="0.26" d="M49.3409 34.2828C49.8085 34.5324 50.3016 34.731 50.8118 34.8751C50.5647 34.725 50.3096 34.5592 50.0507 34.3736C49.9592 34.3081 49.8537 34.2646 49.7425 34.2468C49.6314 34.229 49.5176 34.2373 49.4101 34.271L49.3409 34.2828Z" fill="#680000"/>
<path d="M47.7676 22.7974C47.7676 23.5853 48.081 24.341 48.639 24.8982C49.197 25.4554 49.9538 25.7684 50.7429 25.7684C51.532 25.7684 52.2888 25.4554 52.8467 24.8982C53.4047 24.341 53.7182 23.5853 53.7182 22.7974H47.7676Z" fill="#DF554B"/>
<path d="M50.7427 25.9165C49.9144 25.9159 49.1203 25.5871 48.5346 25.0023C47.9489 24.4175 47.6197 23.6244 47.6191 22.7973V22.6493H53.8663V22.7973C53.8669 23.1148 53.8183 23.4305 53.722 23.7331C53.5242 24.3671 53.1282 24.9213 52.5921 25.3142C52.0559 25.7072 51.4078 25.9182 50.7427 25.9165ZM47.9196 22.9454C47.9546 23.606 48.2208 24.2334 48.6718 24.7181C49.1228 25.2027 49.7299 25.5138 50.3871 25.597C51.0444 25.6802 51.71 25.5303 52.2679 25.1734C52.8257 24.8165 53.2403 24.2753 53.4393 23.6442C53.5118 23.4178 53.5543 23.1828 53.5658 22.9454H47.9196Z" fill="#24071D"/>
<path d="M47.7675 22.7974C47.767 23.0994 47.813 23.3996 47.9039 23.6877H53.5876C53.6785 23.3996 53.7245 23.0994 53.724 22.7974H47.7675Z" fill="white"/>
<path d="M53.6903 23.8357H47.7951L47.7635 23.7331C47.6681 23.4303 47.6194 23.1147 47.6191 22.7973V22.6493H53.8663V22.7973C53.8669 23.1148 53.8183 23.4305 53.722 23.7331L53.6903 23.8357ZM48.0145 23.5396H53.4709C53.5241 23.3462 53.5559 23.1476 53.5658 22.9474H47.9196C47.9305 23.1475 47.9623 23.346 48.0145 23.5396Z" fill="#24071D"/>
<path d="M43.001 13.4952C43.2501 11.223 43.6633 10.1688 46.1107 9.37519C46.1107 9.37519 54.149 11.8172 58.0277 9.618C58.0277 9.618 58.3342 11.4618 59.3958 12.6246C60.2854 13.5979 59.7793 16.9875 59.6646 18.4523L60.2577 18.5115C60.6116 17.0171 61.4735 14.3283 61.5665 13.5367C61.6238 13.0372 61.8373 11.0552 61.9282 9.63972C62.0189 8.3987 61.7752 7.15608 61.2225 6.04087C60.9111 5.3881 60.4531 4.81588 59.8841 4.36878C57.8004 2.81908 46.8086 0.651477 43.9282 2.61772C40.7513 4.78927 43.0386 13.0155 43.0386 13.0155" fill="#6667B1"/>
<path d="M60.2617 18.6596H60.2459L59.6528 18.6023C59.6336 18.6006 59.6149 18.5951 59.5978 18.5861C59.5807 18.5771 59.5656 18.5648 59.5532 18.5499C59.5409 18.5351 59.5317 18.5179 59.526 18.4994C59.5204 18.481 59.5185 18.4616 59.5204 18.4424C59.5362 18.2233 59.5619 17.9627 59.5916 17.6705C59.7438 16.1129 60.0008 13.5071 59.2891 12.7352C58.4054 11.7678 58.0357 10.3662 57.923 9.85491C56.2822 10.7018 53.8209 10.9111 50.5965 10.4768C49.0824 10.2694 47.5848 9.95603 46.1148 9.53905C43.7424 10.3287 43.3866 11.3572 43.1493 13.5209C43.1474 13.5401 43.1416 13.5588 43.1324 13.5757C43.1231 13.5927 43.1106 13.6077 43.0955 13.6198C43.0805 13.632 43.0631 13.641 43.0445 13.6463C43.0259 13.6517 43.0065 13.6534 42.9872 13.6512C42.9482 13.6472 42.9123 13.6279 42.8875 13.5976C42.8627 13.5672 42.8509 13.5283 42.8548 13.4893C42.8706 13.3472 42.8864 13.209 42.9042 13.0747C42.9042 13.0747 42.9042 13.0747 42.9042 13.0649C42.5276 11.6177 42.2763 10.1409 42.153 8.65069C41.9157 5.50589 42.4871 3.43897 43.8512 2.5052C46.7573 0.531067 57.84 2.66708 59.979 4.26021C60.5681 4.71957 61.0419 5.30963 61.3629 5.98363C61.9264 7.11961 62.1769 8.38496 62.0884 9.6496C61.9935 11.1124 61.7741 13.132 61.7247 13.5525C61.6693 14.0223 61.3629 15.1022 61.0387 16.2452C60.8054 17.0664 60.5642 17.9153 60.414 18.5451C60.4061 18.579 60.3866 18.609 60.3587 18.63C60.3309 18.6509 60.2966 18.6614 60.2617 18.6596ZM59.8248 18.32L60.1471 18.3516C60.2973 17.7317 60.5247 16.9361 60.7402 16.1643C61.0486 15.0824 61.3669 13.9631 61.4183 13.5189C61.4697 13.0747 61.6871 11.0887 61.78 9.62986C61.8721 8.41635 61.6372 7.20035 61.1 6.108C60.8 5.47479 60.3567 4.91992 59.8051 4.48724C57.7056 2.92569 46.8561 0.803498 44.0212 2.74013C41.4848 4.47342 42.576 10.3386 43.0327 12.3167C43.3371 10.7985 43.9915 9.91019 46.0752 9.23306C46.1043 9.22517 46.135 9.22517 46.1642 9.23306C46.2452 9.25675 54.1846 11.6316 57.9645 9.4897C57.9855 9.47847 58.0089 9.47259 58.0327 9.47259C58.0565 9.47259 58.08 9.47847 58.1009 9.4897C58.1226 9.49967 58.1415 9.51477 58.156 9.5337C58.1704 9.55262 58.18 9.57479 58.184 9.59827C58.184 9.61604 58.4963 11.4125 59.5164 12.5299C60.3171 13.4064 60.0621 15.9905 59.894 17.7021C59.8624 17.9252 59.8407 18.1344 59.8248 18.32Z" fill="#24071D"/>
<path opacity="0.26" d="M42.9812 13.0747L42.9397 13.5544C43.088 12.2239 43.2877 11.3118 43.9282 10.6248C43.5328 8.02487 43.3786 4.27796 45.3694 2.92568C46.777 1.96625 50.114 1.99191 53.4076 2.44794C49.6831 1.78463 45.4999 1.58129 43.8748 2.68878C40.6939 4.84849 42.9812 13.0747 42.9812 13.0747Z" fill="#680000"/>
<path d="M59.5461 21.8971C60.669 21.678 61.9362 20.7126 61.9362 19.4413C61.9362 17.9923 60.9596 16.8157 59.7616 16.8157C59.7102 16.8157 59.5184 16.8591 59.467 16.8631" fill="white"/>
<path d="M59.5737 22.0432L59.5163 21.753C60.6096 21.5398 61.7878 20.5961 61.7878 19.4432C61.7878 18.0771 60.8765 16.9657 59.7555 16.9657C59.7057 16.971 59.6563 16.9789 59.6073 16.9894C59.5499 17.0012 59.4985 17.0111 59.4748 17.0131L59.4471 16.7189L59.5519 16.6992C59.6169 16.6838 59.683 16.6739 59.7496 16.6696C61.0346 16.6696 62.0785 17.9133 62.0785 19.4334C62.0883 20.762 60.8073 21.8004 59.5737 22.0432Z" fill="#24071D"/>
<path d="M50.4995 63.6817C54.058 62.74 63.0076 60.9179 67.3134 61.0699L65.7595 55.874L74.7408 54.9817L76.3223 60.2842C76.6588 61.1382 76.7948 62.0578 76.7199 62.9724C76.645 63.8871 76.3612 64.7724 75.8903 65.5604C75.4193 66.3485 74.7738 67.0183 74.0032 67.5184C73.2327 68.0184 72.3576 68.3355 71.4452 68.4453C67.6514 68.9033 58.7671 69.0375 51.1638 68.9013L50.9344 68.8875" fill="white"/>
<path d="M57.0097 69.1007C54.9912 69.1007 52.9984 69.0829 51.1757 69.0494L50.9385 69.0355L50.9583 68.7394C51.0314 68.7394 51.1065 68.7513 51.1816 68.7532C58.0713 68.8796 67.351 68.7927 71.4413 68.2972C72.3311 68.1907 73.1845 67.8819 73.936 67.3946C74.6875 66.9072 75.3172 66.2543 75.7765 65.486C76.2359 64.7177 76.5127 63.8544 76.5858 62.9626C76.6588 62.0708 76.5261 61.1741 76.1979 60.3414L74.642 55.1455L65.9533 55.9983L67.5151 61.2199H67.3075C63.0789 61.064 54.155 62.8703 50.5372 63.8258L50.462 63.5395C54.0363 62.5959 62.7744 60.8251 67.1138 60.9179L65.5659 55.7476L74.8575 54.8237L76.4806 60.2447C76.8228 61.1193 76.96 62.0605 76.8818 62.9963C76.8035 63.932 76.5119 64.8375 76.0291 65.6433C75.5463 66.4491 74.8853 67.1339 74.0966 67.6453C73.3079 68.1566 72.4125 68.4809 71.4789 68.5933C68.4581 68.9566 62.6281 69.1007 57.0097 69.1007Z" fill="#24071D"/>
<path d="M50.4995 63.6817H50.4857C50.118 63.7587 39.7173 66.1217 37.426 68.6565C37.3242 68.8627 37.2854 69.0942 37.3144 69.3223C37.3435 69.5503 37.4392 69.7648 37.5895 69.9389C37.7398 70.113 37.9381 70.239 38.1597 70.3013C38.3813 70.3636 38.6164 70.3594 38.8356 70.2891C40.7058 69.6791 43.94 67.9044 45.4662 68.3742C45.4662 68.3742 49.5209 69.3712 50.9483 68.8855" fill="white"/>
<path d="M38.4679 70.4984C38.2431 70.4975 38.0223 70.4396 37.8261 70.3302C37.63 70.2207 37.4648 70.0633 37.3463 69.8727C37.2277 69.6821 37.1596 69.4645 37.1483 69.2404C37.137 69.0162 37.1829 68.7929 37.2817 68.5914C37.2878 68.579 37.2958 68.5677 37.3054 68.5578C39.654 65.9618 50.3394 63.5613 50.4461 63.5396C50.4682 63.5334 50.4913 63.5324 50.5138 63.5368C50.5363 63.5412 50.5574 63.5508 50.5755 63.5648C50.5935 63.5788 50.6081 63.5969 50.6179 63.6175C50.6277 63.6382 50.6325 63.6608 50.632 63.6837C50.632 63.7188 50.6194 63.7528 50.5966 63.7796C50.5738 63.8064 50.5422 63.8241 50.5074 63.8298C50.4027 63.8535 39.8576 66.2204 37.5387 68.7434C37.4543 68.9239 37.4245 69.125 37.4527 69.3221C37.481 69.5193 37.5662 69.7039 37.698 69.8535C37.8297 70.003 38.0022 70.111 38.1944 70.1642C38.3866 70.2174 38.5902 70.2135 38.7802 70.1529C39.3001 69.9831 39.9308 69.7206 40.597 69.4442C42.3565 68.7118 44.3532 67.8827 45.4998 68.236C45.5334 68.236 49.5209 69.2231 50.891 68.7493C50.9096 68.7422 50.9295 68.739 50.9494 68.7397C50.9693 68.7405 50.9889 68.7453 51.0069 68.7538C51.025 68.7623 51.0411 68.7743 51.0544 68.7892C51.0676 68.804 51.0778 68.8214 51.0842 68.8403C51.0905 68.8591 51.0931 68.8791 51.0915 68.8989C51.09 68.9188 51.0845 68.9382 51.0753 68.9558C51.0662 68.9735 51.0535 68.9892 51.0381 69.0018C51.0227 69.0145 51.005 69.024 50.9858 69.0296C49.5348 69.5232 45.5888 68.5618 45.4208 68.5223C44.367 68.1985 42.4257 69.004 40.7117 69.7166C40.0375 69.997 39.4029 70.2615 38.8731 70.4332C38.7422 70.4758 38.6055 70.4977 38.4679 70.4984Z" fill="#24071D"/>
<path d="M50.4858 63.8318C50.4486 63.8317 50.4128 63.8176 50.3855 63.7924C50.3582 63.7672 50.3414 63.7326 50.3384 63.6956C50.3354 63.6586 50.3464 63.6218 50.3693 63.5925C50.3922 63.5633 50.4253 63.5437 50.462 63.5376C50.4841 63.5314 50.5072 63.5305 50.5297 63.5349C50.5521 63.5393 50.5733 63.5489 50.5913 63.5629C50.6094 63.5769 50.6239 63.5949 50.6338 63.6156C50.6436 63.6362 50.6484 63.6589 50.6479 63.6817C50.6478 63.7169 50.6353 63.7509 50.6125 63.7776C50.5897 63.8044 50.5581 63.8222 50.5233 63.8278L50.4858 63.8318Z" fill="#24071D"/>
<path opacity="0.26" d="M37.513 68.6821C39.8063 66.1474 50.288 63.9008 50.6557 63.8238H50.6696C53.0617 63.1901 55.4972 62.6985 57.9309 62.2583C60.7539 61.749 63.6363 61.2614 66.5108 61.2081C66.835 61.2081 67.1612 61.2081 67.4854 61.2081C66.7757 59.3741 66.4851 57.7139 65.7754 55.8779L67.3727 55.6686C67.9876 56.7307 68.1853 57.6191 68.8001 58.6812L69.7213 60.2743C69.7925 60.3967 70.2848 61.4706 70.4172 61.4765C69.8953 61.4548 69.3418 61.7134 68.8357 61.826C68.2447 61.9527 67.6475 62.0483 67.0465 62.1122C65.3207 62.3096 63.6007 62.4814 61.8828 62.7479C61.3727 62.8269 60.8627 62.9098 60.3526 62.9966C59.8426 63.0835 59.3444 63.171 58.858 63.2592C58.3816 63.348 57.9071 63.4369 57.4307 63.5316C56.9879 63.6185 56.545 63.7093 56.1022 63.8041C55.7068 63.8896 55.3055 63.9771 54.8982 64.0666C54.5503 64.1476 54.2024 64.2285 53.8544 64.3154C53.1743 64.4851 52.5457 64.5641 51.8775 64.7516C51.5256 64.8484 49.4498 65.3676 49.0979 65.4604C46.4448 66.1513 39.1737 67.6674 37.4972 69.4382C37.2224 69.529 37.347 69.3691 37.6573 69.987C38.118 70.9188 37.3549 69.7205 37.513 68.6821Z" fill="#680000"/>
<path d="M70.3262 61.601C70.3164 61.601 69.3378 60.8685 67.0109 60.9791L66.9971 60.683C69.4524 60.5665 70.4666 61.3344 70.5081 61.366L70.3262 61.601L70.4172 61.4845L70.3262 61.601Z" fill="#24071D"/>
<path d="M43.8312 8.87768C43.7969 8.87736 43.7638 8.86519 43.7375 8.84324C43.7112 8.82128 43.6933 8.79089 43.6869 8.75725C42.9555 5.00639 44.8889 3.22967 44.9719 3.15466C44.9865 3.14168 45.0034 3.13169 45.0218 3.12525C45.0402 3.11882 45.0597 3.11608 45.0792 3.11718C45.0986 3.11828 45.1177 3.1232 45.1352 3.13167C45.1528 3.14013 45.1685 3.15197 45.1815 3.1665C45.2072 3.19603 45.2204 3.23444 45.2182 3.27354C45.216 3.31264 45.1986 3.34933 45.1696 3.37576C45.1499 3.39155 43.2816 5.12287 43.9835 8.70593C43.991 8.7444 43.983 8.7843 43.9611 8.81687C43.9392 8.84944 43.9053 8.87202 43.8668 8.87965L43.8312 8.87768Z" fill="white"/>
<path d="M69.3397 43.1665C69.3095 43.1663 69.2801 43.157 69.2553 43.1397C69.2306 43.1224 69.2117 43.098 69.2013 43.0697C66.6313 36.2807 59.7871 36.0931 59.712 36.0931C59.6728 36.0921 59.6356 36.0758 59.6083 36.0478C59.5809 36.0198 59.5657 35.9822 59.5657 35.9431C59.5657 35.9236 59.5696 35.9043 59.5772 35.8863C59.5848 35.8683 59.5959 35.852 59.6099 35.8384C59.6239 35.8248 59.6405 35.8141 59.6587 35.807C59.6769 35.7999 59.6964 35.7965 59.7159 35.797C59.7871 35.797 66.8329 35.9846 69.4721 42.9651C69.4801 42.9836 69.4842 43.0035 69.4842 43.0236C69.4842 43.0437 69.4801 43.0636 69.4721 43.0821C69.4642 43.1005 69.4525 43.1172 69.4379 43.131C69.4233 43.1449 69.406 43.1556 69.3871 43.1625C69.3716 43.1661 69.3556 43.1674 69.3397 43.1665Z" fill="white"/>
<path d="M33.7866 9.86083C33.7866 7.8867 32.4146 6.27185 30.6986 6.26396C32.4146 6.26396 33.8123 4.68465 33.8222 2.69867C33.8123 4.67281 35.1961 6.28765 36.9102 6.29554C35.2021 6.28765 33.7965 7.88078 33.7866 9.86083Z" fill="white"/>
<path d="M33.925 9.8608H33.6482C33.6636 8.96835 33.357 8.10015 32.7843 7.41484C32.5311 7.10509 32.2134 6.85419 31.8531 6.67963C31.4929 6.50506 31.0989 6.41103 30.6986 6.40409V6.12771C31.0989 6.12616 31.494 6.03697 31.8561 5.86643C32.2182 5.69588 32.5384 5.44814 32.7942 5.14064C33.3763 4.45986 33.6923 3.59182 33.6838 2.69666H33.9606C33.9507 4.5938 35.2752 6.14547 36.9121 6.15337V6.42975C35.2713 6.41988 33.9329 7.96168 33.925 9.8608ZM31.5803 6.26787C32.1314 6.45375 32.6205 6.78778 32.9938 7.23322C33.3733 7.6822 33.6439 8.21251 33.7846 8.78292C34.1108 7.57475 34.9609 6.62914 36.0265 6.29156C34.9629 5.94214 34.1227 4.98863 33.8103 3.77651C33.6611 4.34553 33.3824 4.87249 32.9958 5.31634C32.6208 5.7577 32.1309 6.087 31.5803 6.26787Z" fill="#24071D"/>
<path d="M32.9425 68.4867H65.7597C66.2594 68.4867 66.7386 68.6849 67.0919 69.0378C67.4452 69.3906 67.6437 69.8691 67.6437 70.3681V71.6651H32.9425V68.4867Z" fill="#4D4E95"/>
<path d="M67.7919 71.8132H32.8V68.3387H65.7596C66.2983 68.3397 66.8146 68.5539 67.1955 68.9342C67.5764 69.3146 67.7908 69.8302 67.7919 70.3681V71.8132ZM33.0907 71.517H67.4894V70.3681C67.4889 69.9086 67.3058 69.468 66.9804 69.1431C66.655 68.8181 66.2139 68.6353 65.7537 68.6348H33.0907V71.517Z" fill="#24071D"/>
<path d="M53.3365 71.6651H21.1994L13.9658 49.8114C13.8741 49.5346 13.8495 49.24 13.894 48.9519C13.9386 48.6638 14.051 48.3904 14.222 48.1541C14.393 47.9178 14.6177 47.7255 14.8776 47.5928C15.1376 47.4602 15.4254 47.391 15.7173 47.3911H43.9698C44.3574 47.3911 44.7352 47.5132 45.0493 47.7401C45.3634 47.9669 45.5979 48.2869 45.7194 48.6545L53.3365 71.6651Z" fill="#4D4E95"/>
<path d="M53.5422 71.8131H21.0927L13.8255 49.8588C13.7263 49.5597 13.6996 49.2414 13.7476 48.9301C13.7956 48.6187 13.917 48.3232 14.1017 48.0678C14.2864 47.8125 14.5292 47.6045 14.8101 47.4611C15.091 47.3177 15.4019 47.243 15.7174 47.243H43.9699C44.3891 47.2428 44.7977 47.3748 45.1374 47.6201C45.4771 47.8654 45.7307 48.2115 45.8618 48.6091L53.5422 71.8131ZM21.3062 71.517H53.135L45.5791 48.694C45.4676 48.3557 45.252 48.0612 44.963 47.8525C44.6741 47.6437 44.3265 47.5313 43.9699 47.5313H15.7174C15.4492 47.5316 15.1848 47.5954 14.946 47.7175C14.7072 47.8395 14.5007 48.0163 14.3435 48.2333C14.1864 48.4504 14.0829 48.7016 14.0416 48.9662C14.0004 49.2309 14.0225 49.5016 14.1062 49.7561L21.3062 71.517Z" fill="#24071D"/>
<path d="M21.1855 35.9945C21.1855 35.9945 19.9302 33.4735 15.8102 34.0894L12.8626 34.7054L10.3361 32.139C10.2388 32.0367 10.1167 31.9613 9.98156 31.9202C9.84646 31.879 9.70298 31.8734 9.56509 31.9041C9.18552 32.0008 8.90875 32.1627 9.33972 33.4538C9.33972 33.4538 10.427 35.7477 11.5401 36.7861C11.7084 36.9449 11.9115 37.0625 12.1331 37.1296C13.003 37.3902 15.7905 38.0219 17.3364 37.7218" fill="white"/>
<path d="M16.3696 37.9527C14.7327 37.9527 12.6608 37.4454 12.0915 37.2756C11.8458 37.2025 11.6204 37.0734 11.4332 36.8985C10.3122 35.8621 9.24469 33.6156 9.2012 33.5208C8.95012 32.7765 8.90663 32.3363 9.04897 32.0738C9.10047 31.9911 9.16945 31.9207 9.25107 31.8675C9.33269 31.8143 9.42498 31.7796 9.52146 31.7658C9.68444 31.728 9.8545 31.7334 10.0147 31.7815C10.175 31.8297 10.3198 31.9188 10.4348 32.0402L12.906 34.5434L15.7805 33.9512C17.9551 33.6235 19.3389 34.1742 20.1297 34.6934C20.6195 35.0059 21.0264 35.4319 21.3159 35.9352C21.333 35.9703 21.3356 36.0107 21.323 36.0477C21.3104 36.0847 21.2837 36.1152 21.2487 36.1326C21.2314 36.1414 21.2126 36.1467 21.1933 36.1482C21.174 36.1497 21.1546 36.1473 21.1362 36.1413C21.1178 36.1352 21.1008 36.1256 21.0862 36.1129C21.0715 36.1002 21.0596 36.0848 21.051 36.0674C20.9996 35.9687 19.7838 33.6511 15.8319 34.2433L12.8842 34.8553C12.8601 34.8602 12.8352 34.859 12.8117 34.8518C12.7882 34.8445 12.7669 34.8315 12.7498 34.8139L10.2213 32.2475C10.1429 32.1626 10.0436 32.0998 9.9333 32.0651C9.82301 32.0305 9.70556 32.0253 9.59263 32.0501C9.44831 32.0876 9.3554 32.1251 9.30795 32.2119C9.21108 32.3896 9.26643 32.7923 9.47401 33.4083C9.47401 33.4083 10.5534 35.6726 11.6328 36.6794C11.7872 36.8233 11.9725 36.93 12.1745 36.9913C12.8546 37.1887 15.7192 37.8876 17.3146 37.5836C17.3342 37.5784 17.3547 37.5773 17.3748 37.5804C17.3949 37.5835 17.4142 37.5907 17.4314 37.6015C17.4486 37.6124 17.4634 37.6266 17.4748 37.6434C17.4863 37.6602 17.4941 37.6791 17.4979 37.6991C17.5017 37.719 17.5014 37.7395 17.4969 37.7593C17.4924 37.7791 17.4839 37.7978 17.4719 37.8142C17.4599 37.8306 17.4447 37.8443 17.4271 37.8546C17.4096 37.8648 17.3901 37.8714 17.3699 37.8738C17.0397 37.9315 16.7048 37.9579 16.3696 37.9527Z" fill="#24071D"/>
<path d="M54.3626 26.0961L54.2281 25.8335C56.9424 24.4215 59.0732 22.1015 60.2479 19.2794L60.5267 19.3762C59.3276 22.2705 57.1449 24.6499 54.3626 26.0961Z" fill="#24071D"/>
<path d="M53.1197 25.5255L54.3506 24.9857L55.0151 26.4968L53.7843 27.0366C53.5844 27.1254 53.3573 27.1314 53.153 27.0533C52.9486 26.9752 52.7836 26.8193 52.6942 26.6199C52.606 26.4195 52.6012 26.1924 52.6808 25.9884C52.7604 25.7845 52.9178 25.6205 53.1185 25.5325L53.1197 25.5255Z" fill="#4D4E95"/>
<path d="M53.4531 27.2589C53.2286 27.2603 53.0104 27.1843 52.8356 27.0437C52.6607 26.9031 52.5398 26.7065 52.4933 26.4872C52.4468 26.2678 52.4776 26.0392 52.5804 25.8399C52.6833 25.6406 52.8519 25.4828 53.0577 25.3933L54.4218 24.8011L55.2126 26.5778L53.8505 27.1701C53.7256 27.2269 53.5903 27.2571 53.4531 27.2589ZM54.2716 25.186L53.1783 25.6658C53.0142 25.7378 52.8855 25.8721 52.8205 26.0389C52.7873 26.1217 52.7711 26.2103 52.7728 26.2995C52.7745 26.3887 52.7941 26.4766 52.8304 26.5581C52.9031 26.7221 53.038 26.8507 53.2054 26.9158C53.3728 26.9809 53.5592 26.9772 53.7239 26.9055L54.8152 26.4258L54.2716 25.186Z" fill="#24071D"/>
<path d="M60.9478 19.8539L60.6532 19.8184C60.6861 19.6673 60.6863 19.511 60.6539 19.3599C60.6216 19.2088 60.5573 19.0662 60.4654 18.9419C60.3133 18.7855 60.1081 18.6918 59.8901 18.6793V18.3832C60.1906 18.3951 60.4745 18.5241 60.6809 18.7425C60.9181 19.005 61.0051 19.3781 60.9478 19.8539Z" fill="#24071D"/>
<path d="M58.5972 70.3286C58.398 70.3287 58.1994 70.3088 58.0041 70.2694C57.9851 70.2655 57.9669 70.2579 57.9508 70.247C57.9347 70.2361 57.9208 70.2222 57.9101 70.2059C57.8993 70.1897 57.8919 70.1715 57.8882 70.1524C57.8845 70.1333 57.8846 70.1137 57.8885 70.0947C57.8924 70.0756 57.9 70.0575 57.9109 70.0414C57.9218 70.0253 57.9358 70.0115 57.952 70.0007C57.9683 69.99 57.9865 69.9826 58.0056 69.9789C58.0247 69.9752 58.0444 69.9753 58.0635 69.9792C58.8542 70.1391 59.6925 69.9357 60.4872 69.3869C61.7621 68.455 62.6331 67.0726 62.9228 65.5216C63.3182 63.125 62.3831 60.7106 61.5587 58.5825C60.7679 56.5314 59.7794 53.9788 60.2124 51.4756C60.5524 49.533 61.703 47.8629 62.818 46.2461C63.933 44.6293 65.1033 42.9276 65.388 40.991C65.7834 38.3673 64.4589 35.7437 63.4309 33.9986C63.16 33.5366 62.8714 33.0687 62.5926 32.6167C61.5626 30.9525 60.501 29.231 59.985 27.3141C59.1073 24.0568 60.3073 21.4707 61.8869 20.3514C61.9181 20.331 61.956 20.3233 61.9928 20.3299C62.0295 20.3365 62.0624 20.3569 62.0846 20.3869C62.1047 20.418 62.1125 20.4556 62.1062 20.4921C62.1 20.5287 62.0803 20.5616 62.0509 20.5843C60.5564 21.6444 59.4236 24.1101 60.2618 27.2292C60.7679 29.1047 61.8196 30.8064 62.8318 32.4528C63.1126 32.9069 63.4012 33.3747 63.676 33.8347C64.7257 35.6114 66.074 38.3042 65.6707 41.0206C65.3722 43.0263 64.19 44.7418 63.0453 46.4001C61.9501 47.9912 60.8173 49.6337 60.4892 51.5131C60.0641 53.9294 61.0368 56.4386 61.8196 58.4561C62.6579 60.6277 63.5989 63.0736 63.2035 65.5492C62.8991 67.1795 61.9835 68.6325 60.6434 69.612C60.0501 70.0529 59.3363 70.3029 58.5972 70.3286Z" fill="#24071D"/>
<path d="M62.8163 18.778C63.1493 17.4877 62.4482 16.1919 61.2504 15.8836C60.0526 15.5753 58.8116 16.3713 58.4786 17.6616C58.1456 18.9518 58.8466 20.2477 60.0444 20.556C61.2423 20.8642 62.4832 20.0682 62.8163 18.778Z" fill="#4D4E95"/>
<path d="M60.8055 21.143C60.612 21.1431 60.4194 21.1186 60.2322 21.0699C59.9246 20.9871 59.6377 20.8413 59.3896 20.6418C59.1415 20.4423 58.9376 20.1935 58.791 19.9111C58.4854 19.3182 58.4108 18.6331 58.5817 17.9884C58.7526 17.3437 59.1568 16.7852 59.7162 16.4209C59.9824 16.2458 60.2826 16.1289 60.5971 16.0775C60.9117 16.0261 61.2335 16.0416 61.5417 16.1228C61.8498 16.204 62.1374 16.3492 62.3856 16.5488C62.6338 16.7485 62.837 16.9982 62.9821 17.2816C63.2936 17.872 63.3692 18.5585 63.1936 19.2024C63.0285 19.8493 62.6246 20.4099 62.0628 20.7718C61.6875 21.0122 61.2514 21.141 60.8055 21.143ZM60.9656 16.3458C60.577 16.3482 60.197 16.4612 59.8704 16.6716C59.3752 16.9964 59.0177 17.4926 58.8666 18.0647C58.7155 18.6368 58.7815 19.2445 59.0519 19.771C59.1784 20.0179 59.3556 20.2355 59.572 20.4095C59.7883 20.5835 60.039 20.71 60.3076 20.7808C60.5762 20.8516 60.8567 20.865 61.1309 20.8203C61.405 20.7756 61.6667 20.6736 61.8987 20.5211C62.398 20.2002 62.7569 19.7021 62.903 19.1274C63.0592 18.5558 62.9928 17.9464 62.7172 17.4217C62.59 17.175 62.4127 16.9575 62.1965 16.7831C61.9804 16.6087 61.7301 16.4813 61.4618 16.409C61.2997 16.3675 61.133 16.3463 60.9656 16.3458Z" fill="#24071D"/>
<path d="M61.8351 18.8475C61.9841 18.2835 61.6803 17.7145 61.1566 17.5766C60.633 17.4387 60.0877 17.7842 59.9388 18.3482C59.7899 18.9123 60.0937 19.4813 60.6173 19.6191C61.141 19.757 61.6862 19.4115 61.8351 18.8475Z" fill="#6667AB"/>
<path d="M60.847 19.7967C60.7562 19.7965 60.6658 19.7846 60.5781 19.7611C60.432 19.7226 60.2956 19.6538 60.1777 19.5593C60.0599 19.4647 59.9633 19.3465 59.8941 19.2123C59.7506 18.9341 59.7154 18.6126 59.7954 18.31C59.8753 18.0074 60.0647 17.7451 60.327 17.5738C60.4532 17.4906 60.5956 17.4349 60.7448 17.4103C60.894 17.3857 61.0467 17.3929 61.193 17.4313C61.3393 17.4696 61.4758 17.5384 61.5937 17.633C61.7115 17.7276 61.808 17.846 61.877 17.9805C62.022 18.2582 62.0573 18.5802 61.9758 18.8826C61.9158 19.1384 61.7723 19.367 61.568 19.5325C61.3636 19.698 61.11 19.7909 60.847 19.7967ZM60.9201 17.6922C60.7658 17.6939 60.615 17.7391 60.4852 17.8225C60.2862 17.9541 60.1427 18.1541 60.0818 18.3845C60.0209 18.615 60.047 18.8597 60.1551 19.0722C60.2062 19.1688 60.2769 19.2538 60.3626 19.3218C60.4484 19.3898 60.5474 19.4392 60.6532 19.467C60.8791 19.5145 61.1147 19.4711 61.3087 19.3462C61.5027 19.2212 61.6394 19.0248 61.6892 18.7997C61.7516 18.5694 61.7248 18.3241 61.614 18.1127C61.5629 18.0161 61.4922 17.9311 61.4064 17.8631C61.3207 17.7951 61.2217 17.7457 61.1158 17.7179C61.0516 17.704 60.9859 17.698 60.9201 17.7001V17.6922Z" fill="#24071D"/>
<path d="M57.9646 70.6287C58.1437 70.6287 58.2888 70.3786 58.2888 70.07C58.2888 69.7615 58.1437 69.5114 57.9646 69.5114C57.7855 69.5114 57.6404 69.7615 57.6404 70.07C57.6404 70.3786 57.7855 70.6287 57.9646 70.6287Z" fill="#24071D"/>
<path d="M56.1594 70.6287C56.3385 70.6287 56.4836 70.3786 56.4836 70.07C56.4836 69.7615 56.3385 69.5114 56.1594 69.5114C55.9804 69.5114 55.8352 69.7615 55.8352 70.07C55.8352 70.3786 55.9804 70.6287 56.1594 70.6287Z" fill="#24071D"/>
<path d="M31.1751 33.6176C33.1972 33.6176 34.8364 31.9807 34.8364 29.9615C34.8364 27.9423 33.1972 26.3054 31.1751 26.3054C29.153 26.3054 27.5138 27.9423 27.5138 29.9615C27.5138 31.9807 29.153 33.6176 31.1751 33.6176Z" fill="#4D4E95"/>
<path d="M31.1752 33.7657C30.4217 33.7657 29.6852 33.5426 29.0587 33.1246C28.4322 32.7065 27.9439 32.1124 27.6556 31.4173C27.3673 30.7222 27.2918 29.9573 27.4388 29.2194C27.5858 28.4814 27.9486 27.8036 28.4814 27.2716C29.0142 26.7395 29.693 26.3772 30.432 26.2304C31.1709 26.0837 31.9369 26.159 32.633 26.4469C33.3291 26.7349 33.9241 27.2224 34.3427 27.848C34.7613 28.4736 34.9847 29.2091 34.9847 29.9615C34.9837 30.9701 34.582 31.9371 33.8678 32.6503C33.1536 33.3635 32.1852 33.7646 31.1752 33.7657ZM31.1752 26.4614C30.4804 26.4614 29.8011 26.6671 29.2234 27.0526C28.6457 27.438 28.1954 27.9859 27.9296 28.6269C27.6637 29.2679 27.5941 29.9733 27.7296 30.6538C27.8652 31.3343 28.1998 31.9594 28.6911 32.45C29.1824 32.9406 29.8083 33.2747 30.4898 33.41C31.1713 33.5454 31.8776 33.4759 32.5195 33.2104C33.1615 32.9449 33.7101 32.4953 34.0961 31.9184C34.4822 31.3415 34.6882 30.6632 34.6882 29.9694C34.6887 29.5082 34.5983 29.0514 34.422 28.6251C34.2457 28.1988 33.9871 27.8114 33.6609 27.4849C33.3347 27.1584 32.9473 26.8993 32.5208 26.7223C32.0943 26.5453 31.637 26.454 31.1752 26.4535V26.4614Z" fill="#24071D"/>
<path d="M70.006 10.1174C72.7673 10.1174 75.0057 7.88219 75.0057 5.12486C75.0057 2.36752 72.7673 0.132263 70.006 0.132263C67.2448 0.132263 65.0063 2.36752 65.0063 5.12486C65.0063 7.88219 67.2448 10.1174 70.006 10.1174Z" fill="#6667AB"/>
<path d="M70.006 10.2655C68.9894 10.2655 67.9956 9.96447 67.1504 9.40048C66.3051 8.83648 65.6463 8.03486 65.2572 7.09697C64.8682 6.15908 64.7664 5.12706 64.9647 4.1314C65.1631 3.13575 65.6526 2.22118 66.3715 1.50335C67.0903 0.785522 68.0062 0.296675 69.0032 0.0986269C70.0003 -0.0994214 71.0338 0.00222338 71.973 0.390709C72.9122 0.779195 73.715 1.43707 74.2798 2.28115C74.8446 3.12523 75.1461 4.11759 75.1461 5.13275C75.1424 6.49292 74.5997 7.79634 73.6365 8.75813C72.6734 9.71992 71.3681 10.2619 70.006 10.2655ZM70.006 0.282303C69.0463 0.281912 68.1081 0.565757 67.31 1.09793C66.5119 1.6301 65.8897 2.3867 65.5223 3.272C65.1549 4.1573 65.0586 5.13154 65.2457 6.07147C65.4329 7.0114 65.895 7.87479 66.5736 8.55243C67.2522 9.23007 68.1168 9.6915 69.0581 9.87837C69.9993 10.0652 70.9749 9.96913 71.8615 9.60221C72.7481 9.2353 73.5057 8.61405 74.0387 7.81707C74.5716 7.02009 74.8558 6.08318 74.8554 5.12486C74.8539 3.84101 74.3425 2.6102 73.4333 1.70239C72.5242 0.79457 71.2917 0.28387 70.006 0.282303Z" fill="#24071D"/>
<path d="M32.638 31.5961L31.0604 30.0227V27.0634H31.357V29.9003L32.8476 31.3868L32.638 31.5961Z" fill="#24071D"/>
<path d="M71.991 8.15515C71.4739 8.2459 70.9414 8.17201 70.4687 7.94392C70.0782 7.75335 69.7179 7.50658 69.3992 7.21152C68.6886 6.59226 68.0813 5.86388 67.6002 5.05379C67.4277 4.76443 67.3054 4.44807 67.2384 4.11804C67.1895 3.85976 67.1965 3.59403 67.2589 3.33867C67.3213 3.08331 67.4377 2.84423 67.6002 2.63744C67.7368 2.43844 67.9051 2.26306 68.0984 2.11825C68.1825 2.06215 68.2736 2.01703 68.3692 1.98401C68.4188 1.96557 68.4723 1.9606 68.5244 1.96962C68.5765 1.97864 68.6253 2.00132 68.6657 2.03533C68.7122 2.0722 68.7546 2.11389 68.7923 2.1597C69.0737 2.50634 69.32 2.87996 69.5277 3.27509C69.5532 3.32815 69.575 3.3829 69.5929 3.43894C69.6083 3.48569 69.6068 3.53631 69.5887 3.58208C69.5707 3.62785 69.5372 3.6659 69.4941 3.68966C69.4135 3.74113 69.3296 3.78729 69.243 3.82785C69.1323 3.87918 69.0176 3.92458 68.905 3.97196C68.7073 4.0529 68.6499 4.16937 68.7073 4.34902C68.7949 4.57097 68.9097 4.78118 69.0493 4.97482C69.4416 5.55727 69.9256 6.07259 70.4826 6.50083C70.5669 6.56567 70.6554 6.62502 70.7475 6.6785C70.7837 6.70527 70.8249 6.72449 70.8687 6.73502C70.9125 6.74556 70.958 6.74719 71.0024 6.73983C71.0469 6.73246 71.0894 6.71624 71.1274 6.69214C71.1655 6.66804 71.1983 6.63655 71.2239 6.59953C71.3089 6.50477 71.39 6.40212 71.4769 6.31328C71.5321 6.25486 71.5923 6.20136 71.6569 6.15338C71.6988 6.11917 71.7501 6.09842 71.8041 6.09384C71.8581 6.08926 71.9122 6.10107 71.9593 6.12771C72.0174 6.15658 72.0729 6.19026 72.1254 6.2284C72.4904 6.49092 72.8312 6.78559 73.1435 7.10886C73.1746 7.14068 73.2031 7.17502 73.2285 7.21152C73.2717 7.26439 73.2938 7.33135 73.2905 7.3995C73.2872 7.46766 73.2588 7.53219 73.2107 7.58068C73.1307 7.67594 73.0326 7.75444 72.9221 7.81165C72.6322 7.97539 72.3178 8.09138 71.991 8.15515Z" fill="white"/>
<path d="M71.544 8.33678C71.1498 8.33745 70.7605 8.24904 70.4053 8.07817C70.0016 7.88201 69.6292 7.62721 69.3002 7.32208C68.5768 6.69363 67.9594 5.95308 67.4715 5.12881C67.29 4.82382 67.1623 4.48994 67.0939 4.14175C67.0422 3.86309 67.0507 3.5766 67.1189 3.30149C67.1871 3.02638 67.3134 2.76901 67.4893 2.54664C67.634 2.33489 67.8131 2.14874 68.0191 1.99586C68.1141 1.9331 68.2163 1.88205 68.3236 1.84385C68.3971 1.81773 68.476 1.81091 68.5529 1.82404C68.6297 1.83718 68.7019 1.86984 68.7625 1.91887C68.8189 1.96277 68.87 2.01312 68.9147 2.0689C69.2022 2.42245 69.4532 2.80408 69.664 3.20798C69.6951 3.27153 69.7209 3.33756 69.7411 3.40539C69.7649 3.4827 69.7621 3.56577 69.7331 3.6413C69.704 3.71683 69.6505 3.78043 69.5809 3.82194C69.4946 3.8771 69.4048 3.92656 69.3121 3.97C69.2389 4.00356 69.1618 4.03514 69.0867 4.06673L68.9681 4.11608C68.8238 4.17926 68.8317 4.23256 68.8593 4.3135C68.9409 4.52389 69.0492 4.72293 69.1816 4.90574C69.5656 5.47508 70.0389 5.97901 70.5832 6.39818C70.6632 6.45951 70.747 6.51556 70.8343 6.56599C70.8561 6.5833 70.8812 6.59584 70.9082 6.60277C70.9351 6.60971 70.9632 6.61088 70.9907 6.60623C71.0181 6.60157 71.0442 6.59118 71.0674 6.57574C71.0905 6.5603 71.1101 6.54016 71.1249 6.51663L71.206 6.42385C71.2633 6.35673 71.3206 6.29158 71.3819 6.22643C71.4425 6.16217 71.5087 6.10337 71.5796 6.05074C71.6446 6.00092 71.7225 5.97073 71.8041 5.96373C71.8858 5.95673 71.9677 5.97323 72.0402 6.01125C72.1035 6.04481 72.1648 6.08232 72.2241 6.1218C72.5964 6.39015 72.9438 6.69143 73.262 7.02201C73.2986 7.0595 73.3324 7.09976 73.3628 7.14243C73.4245 7.22156 73.456 7.32002 73.4516 7.42021C73.4473 7.52039 73.4074 7.61576 73.3391 7.68927C73.2464 7.79924 73.1329 7.88981 73.005 7.95578C72.6978 8.13008 72.3638 8.25217 72.0165 8.31704C71.8597 8.33519 71.7018 8.34179 71.544 8.33678ZM68.4738 2.10444C68.4555 2.10185 68.4368 2.10185 68.4185 2.10444C68.3357 2.13465 68.2568 2.1744 68.1832 2.22289C68.0026 2.35748 67.8462 2.52169 67.7206 2.70852C67.5689 2.89838 67.4603 3.11885 67.4023 3.35471C67.3443 3.59057 67.3382 3.8362 67.3846 4.07463C67.4482 4.38801 67.5645 4.68838 67.7285 4.96299C68.2036 5.76068 68.8044 6.47661 69.5078 7.08321C69.8156 7.36902 70.164 7.60783 70.5417 7.79192C70.988 8.00728 71.491 8.07637 71.9789 7.98934C72.2908 7.93055 72.5908 7.82047 72.8666 7.66361C72.9607 7.61488 73.0441 7.54774 73.1117 7.46619C73.177 7.38328 73.1691 7.33985 73.1236 7.26878C73.1028 7.23933 73.0797 7.2116 73.0544 7.18586C72.7484 6.86815 72.4143 6.57874 72.0561 6.32119C72.0088 6.28813 71.9592 6.25845 71.9078 6.23236C71.8853 6.21861 71.859 6.21234 71.8327 6.21447C71.8064 6.2166 71.7815 6.22701 71.7615 6.2442C71.7044 6.28721 71.6508 6.33474 71.6014 6.38634C71.544 6.44754 71.4887 6.51071 71.4353 6.58375L71.3523 6.68049C71.2769 6.78063 71.1658 6.84783 71.042 6.86806C70.9182 6.8883 70.7914 6.85999 70.688 6.78906C70.5913 6.73136 70.4976 6.66877 70.4073 6.60152C69.8388 6.16297 69.3443 5.63647 68.9424 5.04195C68.7958 4.83806 68.6756 4.61653 68.5845 4.38259C68.5616 4.32806 68.5504 4.26929 68.5519 4.21015C68.5533 4.15101 68.5673 4.09285 68.5929 4.0395C68.6185 3.98615 68.6551 3.93882 68.7004 3.90064C68.7456 3.86246 68.7984 3.83429 68.8554 3.81799L68.976 3.76863C69.0491 3.73902 69.1203 3.70941 69.1895 3.67585C69.2702 3.63857 69.3481 3.59569 69.4228 3.54753C69.4702 3.51594 69.4682 3.49028 69.4603 3.46264C69.4462 3.41498 69.4277 3.36872 69.405 3.32445C69.2022 2.93749 68.9611 2.57177 68.6854 2.23276C68.6545 2.19649 68.6201 2.16342 68.5826 2.13405C68.5512 2.11118 68.5125 2.10064 68.4738 2.10444Z" fill="#24071D"/>
<path d="M13.6198 4.03708C13.8946 4.03708 14.1694 4.03708 14.4442 4.04892C14.5221 4.0545 14.5948 4.0906 14.6462 4.14939C14.6977 4.20818 14.7238 4.28488 14.7189 4.36281C14.7209 4.40127 14.7148 4.43972 14.7012 4.47574C14.6876 4.51177 14.6666 4.54461 14.6398 4.57221C14.6129 4.59981 14.5806 4.62157 14.5449 4.63616C14.5092 4.65074 14.4708 4.65782 14.4323 4.65696C14.1872 4.65696 13.9381 4.64116 13.6929 4.65696C11.8504 4.83858 10.3321 6.2718 9.87742 8.26568C9.87742 8.28345 9.87742 8.30319 9.86358 8.32293C9.85774 8.35989 9.84411 8.3952 9.82359 8.42651C9.80308 8.45783 9.77614 8.48444 9.74456 8.50459C9.71299 8.52474 9.67749 8.53797 9.64041 8.54341C9.60333 8.54885 9.56553 8.54637 9.52948 8.53614C9.45497 8.50918 9.3933 8.45527 9.35669 8.38507C9.32008 8.31488 9.31119 8.23353 9.33179 8.1571C9.40958 7.78206 9.52824 7.41664 9.68566 7.06738C10.396 5.50913 11.5163 4.53456 13.0465 4.14368C13.1315 4.12197 13.2165 4.10223 13.3035 4.08841C13.3904 4.07459 13.5012 4.06669 13.6158 4.05485L13.6198 4.03708Z" fill="#D6D6FF"/>
<path d="M13.7858 5.24725C13.9183 5.24725 14.0982 5.24725 14.2781 5.24725C14.3167 5.24877 14.3546 5.25791 14.3896 5.27415C14.4247 5.29038 14.4562 5.31339 14.4823 5.34183C14.5084 5.37028 14.5286 5.40361 14.5417 5.4399C14.5548 5.47618 14.5606 5.51471 14.5588 5.55325C14.5627 5.59187 14.5584 5.63088 14.5461 5.66771C14.5338 5.70454 14.5138 5.73835 14.4875 5.76689C14.4611 5.79544 14.429 5.81808 14.3932 5.83332C14.3575 5.84856 14.3189 5.85604 14.28 5.85529C13.9821 5.83959 13.6835 5.86887 13.3944 5.94215C12.1542 6.28565 11.3397 7.1365 10.9509 8.49471C10.9133 8.62698 10.8599 8.73161 10.7294 8.75727C10.5179 8.8007 10.3538 8.59144 10.4131 8.3506C10.5306 7.86453 10.7312 7.40238 11.0062 6.98449C11.3088 6.50479 11.7159 6.09945 12.1972 5.79866C12.6784 5.49788 13.2215 5.30939 13.7858 5.24725Z" fill="#D6D6FF"/>
<path d="M13.8629 6.47123C13.944 6.47123 14.025 6.44754 14.1081 6.44754C14.148 6.44775 14.1874 6.45605 14.224 6.47192C14.2605 6.4878 14.2935 6.51093 14.3209 6.53992C14.3482 6.5689 14.3694 6.60312 14.3831 6.64052C14.3968 6.67792 14.4028 6.71771 14.4007 6.75748C14.4028 6.79579 14.3972 6.83413 14.3841 6.8702C14.371 6.90627 14.3507 6.93932 14.3245 6.96736C14.2982 6.99539 14.2666 7.01784 14.2314 7.03334C14.1963 7.04884 14.1584 7.05707 14.1199 7.05755C13.175 7.05755 12.3407 7.72678 12.0244 8.72767C11.973 8.88757 11.884 8.96851 11.7615 8.96851C11.7137 8.96519 11.6674 8.95074 11.6262 8.92631C11.585 8.90188 11.5502 8.86816 11.5244 8.82786C11.4987 8.78755 11.4827 8.74178 11.4779 8.69421C11.473 8.64664 11.4794 8.5986 11.4965 8.55394C11.5973 8.19781 11.7629 7.86322 11.9848 7.56688C12.2017 7.2612 12.4814 7.00532 12.8053 6.81637C13.1292 6.62741 13.4898 6.50974 13.8629 6.47123Z" fill="#D6D6FF"/>
<path d="M25.5743 21.6642C25.498 21.744 25.3956 21.7937 25.2857 21.8044L11.8148 23.2613C11.6899 23.274 11.565 23.237 11.4672 23.1582C11.3695 23.0795 11.3068 22.9654 11.2929 22.8408L10.2708 13.4103V13.3235C10.2629 13.2555 10.2701 13.1866 10.292 13.1218C10.3139 13.0569 10.3498 12.9977 10.3973 12.9484C10.4736 12.8654 10.5777 12.8134 10.6899 12.8023L24.1628 11.3454C24.275 11.3322 24.3881 11.3603 24.4811 11.4243C24.5365 11.4634 24.5829 11.514 24.617 11.5726C24.6511 11.6312 24.6722 11.6964 24.6788 11.7639L24.6906 11.8764L25.7127 21.2832C25.7194 21.353 25.7105 21.4234 25.6866 21.4893C25.6626 21.5552 25.6243 21.6149 25.5743 21.6642Z" fill="white"/>
<path d="M11.7653 23.4113C11.6115 23.4117 11.463 23.3553 11.3484 23.2528C11.2338 23.1504 11.1612 23.0093 11.1446 22.8566L10.1126 13.3393C10.0949 13.1754 10.143 13.0112 10.2464 12.8828C10.3499 12.7543 10.5001 12.6721 10.6642 12.6542L24.1311 11.1973C24.2951 11.1801 24.4592 11.2284 24.5877 11.3316C24.7162 11.4347 24.7987 11.5845 24.8171 11.7481L24.829 11.8606L25.8491 21.2674C25.8657 21.4313 25.8169 21.5953 25.7133 21.7235C25.6096 21.8518 25.4595 21.934 25.2955 21.9524L11.8246 23.4074C11.805 23.4103 11.7852 23.4116 11.7653 23.4113ZM24.2062 11.4895H24.1687L10.6879 12.9484C10.6122 12.9577 10.5422 12.9933 10.4902 13.0491C10.458 13.0834 10.4335 13.1243 10.4185 13.1689C10.4035 13.2135 10.3983 13.2609 10.4032 13.3077V13.3945L11.4391 22.8329C11.4445 22.8792 11.4596 22.924 11.4834 22.9641C11.5073 23.0042 11.5393 23.0389 11.5775 23.0658C11.6428 23.1092 11.721 23.1287 11.7989 23.1211L25.2698 21.6484C25.3448 21.6409 25.4147 21.6073 25.4675 21.5536C25.501 21.5192 25.5265 21.4778 25.5422 21.4325C25.5579 21.3871 25.5635 21.3388 25.5585 21.2911L24.5265 11.7777C24.517 11.699 24.4794 11.6263 24.4206 11.573C24.3617 11.5197 24.2856 11.4893 24.2062 11.4875V11.4895Z" fill="#24071D"/>
<path d="M25.5743 21.6642C25.498 21.7439 25.3956 21.7937 25.2856 21.8043L11.8148 23.2612C11.7015 23.2727 11.5879 23.2433 11.4945 23.1783L16.4369 17.4691L17.5321 16.2017C17.6107 16.1108 17.7208 16.053 17.8404 16.0398C17.9599 16.0267 18.08 16.0591 18.1766 16.1307L19.5268 17.1414L25.5743 21.6642Z" fill="white"/>
<path d="M11.7654 23.4113C11.6383 23.4117 11.5141 23.3731 11.4096 23.3007L11.2751 23.206L17.4195 16.0991C17.5226 15.9802 17.6668 15.9046 17.8233 15.8874C17.9799 15.8702 18.1371 15.9127 18.2636 16.0063L25.7978 21.6484L25.6811 21.7688C25.5802 21.872 25.4469 21.9375 25.3035 21.9544L11.8307 23.4093C11.809 23.4119 11.7872 23.4126 11.7654 23.4113ZM11.7457 23.1152H11.799L25.2699 21.6484C25.283 21.6504 25.2964 21.6504 25.3094 21.6484L18.0857 16.2471C18.0192 16.1982 17.9367 16.1761 17.8546 16.1853C17.7725 16.1944 17.6969 16.2341 17.6429 16.2965L11.7457 23.1152Z" fill="#24071D"/>
<path opacity="0.26" d="M24.6115 11.8231L19.7641 17.4889L18.5621 18.8945C18.4751 18.9949 18.3535 19.0591 18.2214 19.0745C18.0893 19.0898 17.9562 19.0552 17.8484 18.9774L16.3321 17.8837L10.255 13.4952V13.4083C10.2463 13.3414 10.2527 13.2734 10.2735 13.2092C10.2944 13.1451 10.3292 13.0863 10.3756 13.0372C10.4524 12.9547 10.5561 12.9022 10.6682 12.8891L24.0837 11.3098C24.1953 11.2966 24.3081 11.3231 24.402 11.3848C24.4585 11.4219 24.5063 11.4707 24.5421 11.528C24.578 11.5852 24.601 11.6495 24.6095 11.7165L24.6115 11.8231Z" fill="#680000"/>
<path d="M24.4712 11.454L19.5288 17.179L18.4336 18.4464C18.3553 18.5372 18.2454 18.5949 18.126 18.6078C18.0067 18.6206 17.8869 18.5876 17.7911 18.5155L16.4349 17.5027L10.3875 12.982C10.4647 12.8993 10.5694 12.8474 10.682 12.8359L24.1529 11.3829C24.2641 11.3685 24.3768 11.3936 24.4712 11.454Z" fill="#4D4E95"/>
<path d="M18.0698 18.7503C17.9357 18.7502 17.8053 18.7065 17.6982 18.626L10.166 12.9957L10.2787 12.8753C10.382 12.7636 10.5226 12.6934 10.6741 12.6779L24.1311 11.2269C24.2789 11.2094 24.428 11.2467 24.5502 11.3315L24.6866 11.4263L18.5364 18.5332C18.4784 18.6002 18.4068 18.6542 18.3264 18.6916C18.246 18.729 18.1585 18.7491 18.0698 18.7503ZM10.6484 12.9858L17.8761 18.3891C17.942 18.4381 18.0241 18.4605 18.1058 18.4517C18.1876 18.4429 18.263 18.4036 18.3169 18.3417L24.2201 11.5191H24.1687L10.6978 12.976L10.6484 12.9858Z" fill="#24071D"/>
<path d="M12.1015 24.8741C11.5801 24.8653 11.0692 24.7265 10.6152 24.4703C10.1612 24.2141 9.7785 23.8488 9.50186 23.4073C9.48232 23.3755 9.47553 23.3375 9.48286 23.3009C9.49019 23.2643 9.5111 23.2318 9.5414 23.2099C9.57339 23.1909 9.61133 23.1843 9.64786 23.1916C9.68439 23.1989 9.71691 23.2195 9.73909 23.2494C10.7276 24.732 12.1826 24.5859 12.2459 24.58C12.2654 24.5773 12.2853 24.5786 12.3044 24.5837C12.3234 24.5889 12.3412 24.5977 12.3568 24.6098C12.3724 24.6219 12.3854 24.637 12.3951 24.6542C12.4047 24.6714 12.4108 24.6903 12.4131 24.7099C12.4153 24.7295 12.4136 24.7493 12.4081 24.7682C12.4025 24.7871 12.3933 24.8048 12.3808 24.8201C12.3684 24.8354 12.353 24.848 12.3356 24.8573C12.3182 24.8666 12.2991 24.8723 12.2795 24.8741C12.2696 24.8662 12.2083 24.8741 12.1015 24.8741Z" fill="#24071D"/>
<path d="M85.2187 28.6447C85.1327 28.7325 85.0187 28.7876 84.8964 28.8007L69.7986 30.4333C69.6716 30.4477 69.5437 30.4154 69.4388 30.3425C69.3758 30.2993 69.323 30.2431 69.2837 30.1777C69.2445 30.1123 69.2198 30.0392 69.2114 29.9635L68.0668 19.392L68.0549 19.2932C68.0471 19.2171 68.0558 19.1401 68.0803 19.0676C68.1049 18.995 68.1448 18.9286 68.1972 18.8728C68.2838 18.78 68.4011 18.7218 68.5274 18.7089L83.6292 17.0763C83.755 17.0612 83.8819 17.0936 83.9851 17.1671C84.0487 17.2097 84.1023 17.2657 84.1419 17.3312C84.1815 17.3967 84.2063 17.4701 84.2144 17.5461L84.2263 17.6705L85.3709 28.2163C85.3787 28.2945 85.3691 28.3735 85.3428 28.4476C85.3165 28.5216 85.2741 28.589 85.2187 28.6447Z" fill="white"/>
<path d="M69.7312 30.5853C69.5638 30.5845 69.4024 30.5223 69.2778 30.4106C69.1532 30.2989 69.074 30.1454 69.0551 29.9793L67.8986 19.3189C67.8877 19.2214 67.8981 19.1228 67.9292 19.0297C67.9603 18.9366 68.0112 18.8514 68.0785 18.78C68.1907 18.663 68.3404 18.589 68.5016 18.5707L83.6034 16.9381C83.7808 16.9197 83.9583 16.9713 84.098 17.082C84.2377 17.1927 84.3284 17.3537 84.3507 17.5303L84.3645 17.6547L85.5092 28.2006C85.5191 28.3007 85.5065 28.4017 85.4723 28.4963C85.4381 28.5909 85.3831 28.6767 85.3115 28.7474C85.2003 28.8583 85.0545 28.9279 84.8983 28.9448L69.7984 30.5814L69.7312 30.5853ZM83.6785 17.2204H83.637L68.5352 18.853C68.4342 18.8644 68.3418 18.9152 68.2781 18.9944C68.2144 19.0735 68.1846 19.1745 68.1951 19.2755L68.205 19.3742L69.3516 29.9457C69.3654 30.0455 69.417 30.1363 69.4956 30.1994C69.5743 30.2625 69.6741 30.2933 69.7747 30.2852L84.8746 28.6526C84.9637 28.6439 85.0465 28.6032 85.1079 28.5381C85.1478 28.4981 85.1783 28.4497 85.1971 28.3964C85.216 28.3432 85.2226 28.2864 85.2166 28.2302L84.0581 17.5698C84.0456 17.4776 84.0008 17.3927 83.9317 17.3302C83.8626 17.2678 83.7737 17.2317 83.6805 17.2283L83.6785 17.2204Z" fill="#24071D"/>
<path d="M85.2187 28.6448C85.1326 28.7325 85.0187 28.7876 84.8964 28.8007L69.7985 30.4333C69.6716 30.4468 69.544 30.4146 69.4387 30.3425L74.9742 23.9404L76.2038 22.519C76.291 22.4194 76.4123 22.3559 76.544 22.3409C76.6756 22.326 76.8081 22.3606 76.9155 22.4381L78.4318 23.5712L85.2187 28.6448Z" fill="white"/>
<path d="M69.7312 30.5853C69.5899 30.5864 69.4518 30.5436 69.3358 30.4629L69.2014 30.3701L76.0752 22.4222C76.1879 22.2926 76.3455 22.2103 76.5164 22.192C76.6873 22.1737 76.8589 22.2207 76.9965 22.3235L85.4281 28.625L85.3115 28.7474C85.2006 28.8586 85.0547 28.9284 84.8983 28.9448L69.7984 30.5813L69.7312 30.5853ZM69.6759 30.2852C69.7081 30.2882 69.7405 30.2882 69.7727 30.2852L84.8746 28.6526C84.902 28.6486 84.9291 28.6427 84.9556 28.6349L76.8284 22.5585C76.7499 22.5029 76.6537 22.4778 76.558 22.488C76.4623 22.4982 76.3736 22.5429 76.3085 22.6137L69.6759 30.2852Z" fill="#24071D"/>
<path opacity="0.26" d="M84.1331 17.6112L78.6946 23.962L77.3443 25.5413C77.2478 25.6523 77.1134 25.7235 76.9672 25.741C76.8211 25.7585 76.6736 25.7211 76.5535 25.6361L74.8534 24.4121L68.0389 19.4867L68.027 19.3899C68.0184 19.3148 68.0261 19.2387 68.0496 19.1668C68.0731 19.0949 68.112 19.0289 68.1634 18.9734C68.2498 18.8812 68.366 18.8224 68.4916 18.8076L83.5302 17.0308C83.6557 17.0159 83.7826 17.046 83.888 17.1157C83.9512 17.1576 84.0046 17.2126 84.0445 17.277C84.0845 17.3414 84.11 17.4137 84.1193 17.4888L84.1331 17.6112Z" fill="#680000"/>
<path d="M83.9771 17.1987L78.4318 23.6067L77.2021 25.0281C77.1143 25.1297 76.9911 25.1941 76.8575 25.2084C76.7239 25.2227 76.5899 25.1858 76.4825 25.1051L74.9662 23.9719L68.1873 18.9043C68.2741 18.812 68.3913 18.7539 68.5174 18.7405L83.6192 17.1079C83.7455 17.095 83.8723 17.1272 83.9771 17.1987Z" fill="#6667AB"/>
<path d="M76.8009 25.3578C76.6542 25.3584 76.5112 25.3113 76.3936 25.2236L67.9659 18.9241L68.0786 18.8037C68.1897 18.6851 68.34 18.6108 68.5017 18.5944L83.6036 16.9618C83.7647 16.9426 83.9273 16.9834 84.0602 17.0763L84.1966 17.1711L77.3109 25.1249C77.2475 25.1978 77.1691 25.2563 77.0812 25.2965C76.9932 25.3366 76.8976 25.3576 76.8009 25.3578ZM68.4404 18.9103L76.5716 24.9867C76.6501 25.0422 76.7463 25.0673 76.842 25.0571C76.9377 25.0469 77.0264 25.0022 77.0915 24.9314L83.7301 17.256C83.6986 17.252 83.6667 17.252 83.6352 17.256L68.5333 18.8846C68.5012 18.8882 68.4698 18.8968 68.4404 18.9103Z" fill="#24071D"/>
<path d="M85.5684 16.9835C85.5468 16.9835 85.5255 16.9787 85.5061 16.9694C85.4866 16.9602 85.4694 16.9468 85.4557 16.9302C84.1489 15.3983 82.5436 15.7457 82.4764 15.7615C82.4575 15.7662 82.4378 15.767 82.4185 15.764C82.3992 15.7609 82.3807 15.754 82.3641 15.7437C82.3475 15.7334 82.3332 15.7199 82.3219 15.704C82.3106 15.688 82.3027 15.67 82.2985 15.651C82.2902 15.6128 82.297 15.5729 82.3177 15.5397C82.3384 15.5065 82.3712 15.4827 82.4092 15.4733C82.4843 15.4555 84.2537 15.0646 85.6811 16.7387C85.7063 16.7687 85.7188 16.8075 85.7159 16.8466C85.7129 16.8857 85.6947 16.9221 85.6652 16.948C85.638 16.9706 85.6038 16.9831 85.5684 16.9835Z" fill="#24071D"/>
<path d="M73.357 10.5518C73.3309 10.5515 73.3053 10.5444 73.2828 10.5313C73.2602 10.5181 73.2415 10.4993 73.2285 10.4768C73.2111 10.4427 73.2073 10.4034 73.218 10.3667C73.2286 10.33 73.2529 10.2988 73.2858 10.2793C75.8558 8.84415 75.8104 6.37451 75.8104 6.35082C75.8093 6.31168 75.8236 6.27367 75.8502 6.2449C75.8768 6.21613 75.9136 6.19888 75.9527 6.19684C75.9723 6.19605 75.9919 6.19916 76.0104 6.206C76.0288 6.21284 76.0457 6.22326 76.06 6.23667C76.0744 6.25008 76.0859 6.26621 76.0939 6.28411C76.102 6.30201 76.1064 6.32133 76.1069 6.34095C76.1069 6.36661 76.1642 9.0159 73.4301 10.5399C73.407 10.5495 73.382 10.5536 73.357 10.5518Z" fill="#24071D"/>
</svg>
