<svg width="79" height="83" viewBox="0 0 79 83" fill="none" xmlns="http://www.w3.org/2000/svg">
<path d="M39.354 78.4434C60.179 78.4434 77.061 61.5487 77.061 40.7081C77.061 19.8674 60.179 2.97269 39.354 2.97269C18.529 2.97269 1.64697 19.8674 1.64697 40.7081C1.64697 61.5487 18.529 78.4434 39.354 78.4434Z" fill="#FBE1CA"/>
<path d="M39.354 79.0927C60.8973 79.0927 78.3615 61.6153 78.3615 40.0558C78.3615 18.4963 60.8973 1.01892 39.354 1.01892C17.8107 1.01892 0.346436 18.4963 0.346436 40.0558C0.346436 61.6153 17.8107 79.0927 39.354 79.0927Z" fill="#C1C2FF"/>
<path d="M70.3125 16.8374C70.2896 18.6023 70.2238 24.2403 70.0266 41.2773C69.7179 67.1903 43.5957 80.0138 38.4764 82.2507C38.3654 82.3024 38.2445 82.3292 38.122 82.3292C37.9996 82.3292 37.8786 82.3024 37.7676 82.2507L37.2674 82.0047C31.1448 78.9697 6.96912 65.8287 7.25495 40.6423C7.4579 23.6053 7.52364 17.9673 7.54079 16.2024C7.54673 16.0264 7.61306 15.8577 7.72863 15.7249C7.84419 15.5921 8.00193 15.5031 8.17534 15.473C20.1317 12.9843 31.3078 7.36638 38.5822 0.461197C38.7409 0.313209 38.9498 0.230927 39.1667 0.230927C39.3837 0.230927 39.5925 0.313209 39.7512 0.461197C46.3625 7.01454 56.2695 12.5238 67.1797 15.4701C68.0115 15.6961 68.8518 15.9049 69.6951 16.0994C69.8667 16.1334 70.0216 16.2251 70.1339 16.3594C70.2462 16.4936 70.3092 16.6623 70.3125 16.8374Z" fill="white"/>
<path d="M38.1336 82.5367C37.972 82.5365 37.8127 82.4993 37.6677 82.428L37.1675 82.182C33.3945 80.3113 26.1057 76.2093 19.6974 69.7647C11.1681 61.1833 6.90924 51.3862 7.03786 40.6251L7.20365 25.7678C7.2751 19.8695 7.30655 17.275 7.32084 16.1794C7.3255 15.9537 7.40848 15.7367 7.55555 15.5655C7.70261 15.3943 7.9046 15.2797 8.12688 15.2412C19.7917 12.8127 31.1192 7.23189 38.4251 0.283802C38.6259 0.0979407 38.8903 -0.00362767 39.1637 9.90414e-05C39.4372 0.00382575 39.6987 0.112562 39.8943 0.303826C46.5571 6.91724 56.5183 12.3664 67.2227 15.2498C68.0145 15.4643 68.8577 15.676 69.7295 15.8762C69.95 15.9214 70.1483 16.0409 70.2914 16.2148C70.4344 16.3887 70.5136 16.6064 70.5155 16.8316C70.4955 18.3076 70.4469 22.5068 70.3126 33.8457L70.2268 41.2687C70.0954 52.2901 65.3677 62.2216 56.1868 70.7887C50.9671 75.59 45.012 79.5225 38.548 82.4366C38.418 82.4975 38.2771 82.5316 38.1336 82.5367ZM39.1626 0.441127C39.0026 0.441203 38.8486 0.501445 38.731 0.609896C31.3679 7.60089 19.9632 13.2332 8.22121 15.676C8.09553 15.6952 7.9805 15.7578 7.89596 15.8528C7.81143 15.9479 7.76269 16.0695 7.75816 16.1966C7.74387 17.295 7.71243 19.8895 7.64097 25.7878L7.46661 40.6422C7.34084 51.286 11.5569 60.9859 20.0032 69.4786C26.3659 75.8775 33.6088 79.9508 37.359 81.8102L37.8563 82.0561C37.9396 82.095 38.0303 82.1151 38.1221 82.1151C38.214 82.1151 38.3047 82.095 38.388 82.0561C44.8071 79.1609 50.7216 75.2555 55.9066 70.4884C65.0018 62.0042 69.678 52.1814 69.8095 41.2772L69.8953 33.84C70.0296 22.5011 70.0782 18.3048 70.0982 16.8259C70.0952 16.6989 70.0487 16.5768 69.9665 16.4799C69.8843 16.3831 69.7714 16.3174 69.6466 16.2939C68.7662 16.0908 67.9316 15.8791 67.1227 15.6617C56.3497 12.7583 46.317 7.26908 39.6028 0.604174C39.4844 0.491097 39.3262 0.429408 39.1626 0.432546V0.441127Z" fill="#24071D"/>
<path d="M64.0527 21.5829L63.8212 41.2801C63.7097 50.5595 59.6281 58.8978 51.6848 66.0604C47.7592 69.5596 43.3633 72.4915 38.6251 74.7705C38.5095 74.8259 38.383 74.8546 38.2549 74.8546C38.1268 74.8546 38.0003 74.8259 37.8848 74.7705C37.3846 74.5188 36.8129 74.2185 36.1841 73.8724C32.1495 71.649 28.4053 68.9348 25.0366 65.7915C17.2648 58.4658 13.3804 50.0589 13.4918 40.7652L13.7234 21.068C13.7267 20.8963 13.7873 20.7307 13.8956 20.5975C14.0038 20.4643 14.1535 20.3711 14.3207 20.3329C23.6646 18.0445 32.1824 13.994 38.4936 8.82803H39.5712C45.7595 14.1256 54.1772 18.362 63.4639 20.842C63.6367 20.8877 63.7901 20.988 63.9012 21.1281C64.0023 21.2578 64.0558 21.4184 64.0527 21.5829Z" fill="#6667AB"/>
<path d="M38.2536 75.0652C38.0929 75.0693 37.9334 75.036 37.7877 74.9679C37.2532 74.6991 36.6787 74.3958 36.0727 74.0669C32.0214 71.8341 28.2609 69.1094 24.8766 65.9546C17.0591 58.586 13.1575 50.1133 13.2661 40.7824L13.4976 21.0852C13.5045 20.8668 13.5838 20.6569 13.723 20.4886C13.8622 20.3202 14.0534 20.2031 14.2665 20.1555C23.5275 17.8729 32.071 13.8024 38.3594 8.66503L38.4194 8.61639H39.6542L39.7113 8.66788C45.8625 13.9312 54.3174 18.179 63.5212 20.6247C63.7384 20.6837 63.9314 20.8098 64.0728 20.9851C64.2019 21.1531 64.2714 21.3595 64.2701 21.5715L64.0385 41.2687C63.9242 50.6139 59.8168 59.0036 51.8306 66.2063C47.8884 69.7238 43.4744 72.6729 38.7166 74.9679L38.668 74.9908C38.536 75.0423 38.3953 75.0675 38.2536 75.0652ZM38.568 9.04833C32.2511 14.1972 23.6618 18.2819 14.3694 20.5446C14.2499 20.5726 14.1426 20.6383 14.0634 20.7321C13.9841 20.8258 13.9371 20.9426 13.9293 21.0652L13.6977 40.7595C13.5863 49.9788 17.4478 58.3457 25.1739 65.6285C28.5326 68.7585 32.2642 71.4621 36.2842 73.6779C36.8759 74.004 37.4475 74.3043 37.9763 74.5732C38.0623 74.6149 38.1566 74.6366 38.2522 74.6366C38.3477 74.6366 38.442 74.6149 38.528 74.5732L38.5766 74.5532C43.2766 72.2816 47.639 69.3686 51.5391 65.8974C59.4366 58.7777 63.4954 50.4937 63.6069 41.2744L63.8385 21.5743C63.8383 21.4594 63.8001 21.3478 63.7298 21.2568C63.6475 21.1541 63.5342 21.0809 63.4068 21.048C54.1745 18.5937 45.6852 14.3345 39.4912 9.05119L38.568 9.04833Z" fill="#24071D"/>
<path opacity="0.26" d="M70.3126 16.8374C70.2897 18.6023 70.2239 24.2403 70.0267 41.2772C69.718 67.1903 43.5958 80.0138 38.4765 82.2507C38.3655 82.3023 38.2445 82.3291 38.1221 82.3291C37.9997 82.3291 37.8787 82.3023 37.7677 82.2507L37.2675 82.0047C42.0494 79.3324 46.5237 76.143 50.6101 72.4936C61.2745 62.8738 66.7568 51.6751 66.9026 39.212L67.1884 15.4701C68.0202 15.696 68.8605 15.9049 69.7037 16.0994C69.8738 16.135 70.0267 16.2275 70.1374 16.3616C70.248 16.4957 70.3098 16.6635 70.3126 16.8374Z" fill="#680000"/>
<path opacity="0.26" d="M64.0527 21.5829L63.8212 41.2801C63.7097 50.5595 59.6281 58.8977 51.6848 66.0604C47.7592 69.5596 43.3633 72.4915 38.6251 74.7705C38.5095 74.8259 38.383 74.8546 38.2549 74.8546C38.1268 74.8546 38.0003 74.8259 37.8848 74.7705C37.3846 74.5188 36.8129 74.2184 36.1841 73.8723C40.7994 71.5588 45.0761 68.6234 48.895 65.1479C56.8469 57.805 60.94 49.2923 61.0458 39.8012L61.2716 20.35C62.1291 20.6361 63.0152 20.8964 63.9013 21.1424C63.9993 21.2683 64.0526 21.4233 64.0527 21.5829Z" fill="#680000"/>
<path d="M39.234 26.5858H38.4679C30.1976 26.5858 23.4932 33.2953 23.4932 41.5719V41.5747C23.4932 49.8513 30.1976 56.5607 38.4679 56.5607H39.234C47.5043 56.5607 54.2087 49.8513 54.2087 41.5747V41.5719C54.2087 33.2953 47.5043 26.5858 39.234 26.5858Z" fill="#4D4E95"/>
<path d="M39.234 56.7753H38.4708C36.4584 56.8029 34.4606 56.4301 32.5934 55.6785C30.7262 54.927 29.0268 53.8116 27.594 52.3972C26.1612 50.9829 25.0234 49.2977 24.2469 47.4395C23.4703 45.5814 23.0704 43.5874 23.0704 41.5733C23.0704 39.5592 23.4703 37.5652 24.2469 35.7071C25.0234 33.849 26.1612 32.1638 27.594 30.7494C29.0268 29.335 30.7262 28.2197 32.5934 27.4681C34.4606 26.7165 36.4584 26.3437 38.4708 26.3713H39.234C43.2267 26.4261 47.0373 28.0519 49.8414 30.8969C52.6455 33.7418 54.2176 37.5772 54.2176 41.5733C54.2176 45.5694 52.6455 49.4048 49.8414 52.2498C47.0373 55.0947 43.2267 56.7205 39.234 56.7753ZM38.4708 26.8004C36.515 26.7732 34.5732 27.1352 32.7584 27.8653C30.9435 28.5955 29.2918 29.6794 27.8991 31.0538C26.5064 32.4283 25.4005 34.0661 24.6457 35.872C23.8908 37.6778 23.5021 39.6158 23.5021 41.5733C23.5021 43.5308 23.8908 45.4688 24.6457 47.2747C25.4005 49.0805 26.5064 50.7183 27.8991 52.0928C29.2918 53.4673 30.9435 54.5511 32.7584 55.2813C34.5732 56.0115 36.515 56.3735 38.4708 56.3462H39.234C43.1135 56.2922 46.8158 54.712 49.5401 51.9474C52.2645 49.1828 53.7918 45.4561 53.7918 41.5733C53.7918 37.6905 52.2645 33.9638 49.5401 31.1992C46.8158 28.4346 43.1135 26.8544 39.234 26.8004H38.4708Z" fill="#24071D"/>
<path d="M27.4091 39.5152H27.3548C27.3002 39.4998 27.2538 39.4637 27.2255 39.4145C27.1972 39.3653 27.1893 39.307 27.2033 39.2521C29.3728 31.2828 36.7072 29.6466 36.7816 29.6294C36.8372 29.6183 36.895 29.6295 36.9425 29.6605C36.9901 29.6915 37.0236 29.7399 37.0359 29.7953C37.0469 29.8507 37.0357 29.9081 37.0047 29.9552C36.9737 30.0024 36.9253 30.0353 36.8702 30.0471C36.7987 30.0642 29.7244 31.6518 27.6149 39.3636C27.6018 39.4079 27.5746 39.4467 27.5375 39.474C27.5003 39.5014 27.4553 39.5159 27.4091 39.5152Z" fill="#FBE1CA"/>
<path d="M35.3494 49.8157C35.0392 49.8154 34.7416 49.6931 34.5205 49.4753L28.2665 43.291C28.1483 43.184 28.0531 43.0541 27.9864 42.9092C27.9197 42.7644 27.8831 42.6075 27.8786 42.4481C27.8742 42.2886 27.9021 42.1299 27.9605 41.9816C28.019 41.8332 28.1069 41.6982 28.2189 41.5848C28.331 41.4713 28.4648 41.3817 28.6123 41.3214C28.7599 41.2611 28.9181 41.2313 29.0774 41.2339C29.2368 41.2364 29.394 41.2712 29.5395 41.3362C29.6851 41.4012 29.816 41.4949 29.9243 41.6119L35.298 46.9352L46.6141 34.3492C46.8237 34.1163 47.1172 33.9762 47.4299 33.9599C47.7427 33.9435 48.0492 34.0522 48.2819 34.2619C48.5146 34.4717 48.6546 34.7654 48.6709 35.0784C48.6873 35.3914 48.5787 35.6981 48.3691 35.931L36.2269 49.4239C36.1184 49.5444 35.9862 49.6413 35.8388 49.7087C35.6913 49.7761 35.5315 49.8125 35.3694 49.8157H35.3494Z" fill="white"/>
<path d="M44.579 68.7207C44.5338 68.7203 44.4898 68.7056 44.4534 68.6787C44.417 68.6518 44.3901 68.614 44.3764 68.5708C44.3628 68.5277 44.3631 68.4813 44.3775 68.4383C44.3918 68.3953 44.4193 68.358 44.4561 68.3317C55.3177 60.7485 59.0336 49.5011 59.0822 49.3896C59.0996 49.3353 59.1378 49.2903 59.1885 49.2642C59.2392 49.2382 59.2981 49.2334 59.3523 49.2509C59.4065 49.2683 59.4515 49.3066 59.4775 49.3573C59.5035 49.408 59.5083 49.4669 59.4909 49.5212C59.4537 49.6356 55.6893 61.0203 44.7019 68.6864C44.6654 68.71 44.6225 68.722 44.579 68.7207Z" fill="white"/>
</svg>
