<?xml version="1.0" encoding="utf-8"?><!DOCTYPE svg PUBLIC "-//W3C//DTD SVG 1.1//EN" "http://www.w3.org/Graphics/SVG/1.1/DTD/svg11.dtd"><svg viewBox="0 0 1792 1792" xmlns="http://www.w3.org/2000/svg" xmlns:xlink="http://www.w3.org/1999/xlink"><style>:root>svg{display:none}:root>svg:target{display:block}</style><svg viewBox="0 0 12 6" fill="#6667ab" id="angle-down--title"><path d="M6 6a.531.531 0 01-.364-.14L.138.799A.448.448 0 01.151.14.548.548 0 01.867.127L6 4.855 11.133.127a.548.548 0 01.716.012c.196.18.202.472.013.66L6.364 5.86A.531.531 0 016 6z"/></svg><svg viewBox="0 0 1792 1792" fill="#fff" id="angle-right"><path d="M1171 960q0 13-10 23l-466 466q-10 10-23 10t-23-10l-50-50q-10-10-10-23t10-23l393-393-393-393q-10-10-10-23t10-23l50-50q10-10 23-10t23 10l466 466q10 10 10 23z"/></svg><svg viewBox="0 0 192.617 192.617" id="basket"><g fill="#fff"><path d="M53.84 147.5a3.207 3.207 0 003.21-3.21V94.543a3.207 3.207 0 00-3.21-3.21 3.21 3.21 0 00-3.214 3.21v49.742a3.214 3.214 0 003.214 3.215zM82.221 147.5a3.206 3.206 0 003.214-3.21V94.543a3.206 3.206 0 00-3.214-3.21 3.212 3.212 0 00-3.21 3.21v49.742a3.21 3.21 0 003.21 3.215zM110.272 147.5a3.21 3.21 0 003.21-3.21V94.543a3.21 3.21 0 00-3.21-3.21 3.205 3.205 0 00-3.21 3.21v49.742a3.205 3.205 0 003.21 3.215zM137.986 147.5a3.203 3.203 0 003.21-3.21V94.543a3.203 3.203 0 00-3.21-3.21 3.212 3.212 0 00-3.21 3.21v49.742a3.208 3.208 0 003.21 3.215z"/><path d="M192.617 51.594h-14.809l10.307-10.304c2.444-2.459 2.444-6.435 0-8.872l-7.963-7.959c-2.366-2.369-6.488-2.369-8.872 0l-27.131 27.135H49.184L22.049 24.459c-2.38-2.369-6.488-2.369-8.879 0l-7.941 7.949a6.29 6.29 0 00-.004 8.879L15.536 51.59H0v30.477h13.585l18.735 87.868H154.9l24.086-87.868h13.632c-.001.001-.001-30.473-.001-30.473zM150 163.515H37.517L20.188 82.239h152.101L150 163.515zm36.19-87.868H6.428V58.018h24.615L9.77 36.953l7.741-7.949 29.017 29.01h100.279l28.813-29.01 7.949 7.737-21.276 21.276h23.9v17.629h-.003z"/></g></svg><svg viewBox="0 0 490 490" fill="#fff" id="calendar"><path d="M404.465 23.677h-53.131V0H330.03v23.677h-74.378V0h-21.304v23.677h-74.373V0h-21.304v23.677H85.535c-5.883 0-10.652 4.769-10.652 10.652v445.019c0 5.883 4.769 10.652 10.652 10.652h318.93c5.883 0 10.652-4.769 10.652-10.652V34.329c0-5.883-4.769-10.652-10.652-10.652zM138.671 44.981v23.681h21.304V44.981h74.373v23.681h21.304V44.981h74.378v23.681h21.304V44.981h42.479v74.914H96.187V44.981h42.484zM96.187 468.696V141.199h297.626v327.497H96.187z"/></svg><svg viewBox="0 0 1440 296" fill="none" id="footer-wave"><path fill-rule="evenodd" clip-rule="evenodd" d="M0 123.2l60-14.4c60-14.4 180-43.2 300-43.2S600 94.4 720 80 960 8 1080 .8c120-7.2 240 36 300 57.6l60 21.6v216H0V123.2z" fill="#E8E8E8"/></svg><svg viewBox="0 0 511 511" fill="#fff" id="gifts"><path d="M406.955 323.231a118.58 118.58 0 0012.907-32.543A67.322 67.322 0 00443.5 295c37.22 0 67.5-30.28 67.5-67.5v-40c0-37.22-30.28-67.5-67.5-67.5a67.39 67.39 0 00-20.5 3.218V103.5c0-12.958-10.542-23.5-23.5-23.5h-288C98.542 80 88 90.542 88 103.5v160c0 21.003 5.548 41.658 16.045 59.731 6.24 10.744 14.147 20.453 23.346 28.769H7.5a7.5 7.5 0 00-7.5 7.5C0 381.28 17.72 399 39.5 399h65.223c3.515 18.205 19.561 32 38.777 32h224c19.216 0 35.262-13.795 38.777-32H471.5c21.78 0 39.5-17.72 39.5-39.5a7.5 7.5 0 00-7.5-7.5H383.609c9.199-8.315 17.106-18.024 23.346-28.769zM423 187.5c0-11.304 9.196-20.5 20.5-20.5s20.5 9.196 20.5 20.5v40c0 11.304-9.196 20.5-20.5 20.5s-20.5-9.196-20.5-20.5v-40zm20.5-52.5c28.949 0 52.5 23.551 52.5 52.5v40c0 28.949-23.551 52.5-52.5 52.5-7.261 0-14.464-1.56-21.109-4.495.402-3.979.609-7.985.609-12.005v-7.045A35.293 35.293 0 00443.5 263c19.575 0 35.5-15.925 35.5-35.5v-40c0-19.575-15.925-35.5-35.5-35.5a35.293 35.293 0 00-20.5 6.545v-19.329A51.626 51.626 0 01443.5 135zm-76 281h-224c-10.895 0-20.151-7.147-23.326-17h270.652c-3.175 9.853-12.431 17-23.326 17zm104-32h-432c-10.895 0-20.151-7.147-23.326-17h344.79l.015.001.015-.001h133.832c-3.175 9.853-12.431 17-23.326 17zm-319.332-32C121.346 332.719 103 299.793 103 263.5v-160c0-4.687 3.813-8.5 8.5-8.5h288c4.687 0 8.5 3.813 8.5 8.5v160c0 4.942-.351 9.818-1.016 14.609a7.4 7.4 0 00-.191 1.307c-4.529 29.858-21.719 56.167-47.962 72.583H152.168z"/><path d="M383.5 143a7.5 7.5 0 007.5-7.5v-16a7.5 7.5 0 00-15 0v16a7.5 7.5 0 007.5 7.5zM391 239.5v-72a7.5 7.5 0 00-15 0v72a7.5 7.5 0 0015 0zM127.5 238.997a7.5 7.5 0 007.5-7.5v-15.995a7.5 7.5 0 00-15 0v15.995a7.5 7.5 0 007.5 7.5zM164.151 321.481C145.625 307.708 135 286.575 135 263.5a7.5 7.5 0 00-15 0c0 27.866 12.831 53.387 35.202 70.019a7.46 7.46 0 004.469 1.481 7.499 7.499 0 004.48-13.519z"/></svg><svg viewBox="0 0 212.852 212.852" fill="#fff" id="key"><path d="M192.162 23.09C178.799 9.726 161.031 2.367 142.133 2.367c-18.899 0-36.667 7.359-50.03 20.724-22.74 22.739-26.716 57.225-11.968 84.095l-19.938 19.938c-.335-.414-.69-.815-1.072-1.197l-14.15-14.15a14.985 14.985 0 00-10.666-4.418 14.985 14.985 0 00-10.666 4.418c-5.882 5.882-5.882 15.451 0 21.333l14.15 14.151c.382.381.782.736 1.196 1.071l-5.405 5.405-7.833-7.833a14.982 14.982 0 00-10.666-4.419c-4.03 0-7.818 1.569-10.666 4.419C1.569 148.751 0 152.539 0 156.569s1.569 7.817 4.419 10.666l7.86 7.861c-7.666 8.251-7.507 21.189.521 29.22 3.979 3.979 9.271 6.17 14.897 6.17s10.918-2.191 14.897-6.171l67.895-67.895c9.704 4.863 20.471 7.453 31.642 7.453 18.898 0 36.666-7.359 50.029-20.724 27.589-27.586 27.589-72.473.002-100.059zm-31.819 68.239c-10.057 10.057-26.363 10.057-36.42 0s-10.057-26.363 0-36.42 26.363-10.057 36.42 0 10.057 26.363 0 36.42z"/></svg><svg viewBox="0 0 15 18" fill="#fff" id="nav-marker"><path d="M7.5 18l-5.303-5.272A7.442 7.442 0 01.144 8.91a7.415 7.415 0 01.427-4.307 7.466 7.466 0 012.762-3.346 7.532 7.532 0 018.334 0 7.466 7.466 0 012.762 3.346 7.415 7.415 0 01.427 4.307 7.442 7.442 0 01-2.053 3.818L7.5 18zm4.125-6.444a5.767 5.767 0 001.264-6.32 5.807 5.807 0 00-2.148-2.602 5.858 5.858 0 00-6.482 0 5.807 5.807 0 00-2.148 2.603 5.767 5.767 0 001.264 6.32l4.125 4.1 4.125-4.1zM7.5 9.114c-.442 0-.866-.175-1.179-.486a1.652 1.652 0 010-2.343 1.672 1.672 0 012.358 0 1.652 1.652 0 010 2.343c-.313.311-.737.486-1.179.486z"/></svg><svg viewBox="0 0 512 512" fill="#fff" id="outdoor-printing"><path d="M356.671 0H155.329c-5.633 0-10.199 4.566-10.199 10.199v192.144c0 35.41 26.244 64.806 60.301 69.764V461.43C205.43 489.315 228.115 512 256 512s50.57-22.685 50.57-50.57V272.107c34.057-4.958 60.301-34.355 60.301-69.764V10.199C366.87 4.566 362.303 0 356.671 0zm-10.199 202.343c0 27.626-22.475 50.102-50.102 50.102-5.632 0-10.199 4.566-10.199 10.199V461.43c0 16.636-13.535 30.171-30.171 30.171s-30.171-13.535-30.171-30.171V262.644c0-5.633-4.566-10.199-10.199-10.199-27.626 0-50.102-22.475-50.102-50.102v-59.299h180.944v59.299zm0-79.698H165.528V20.398h19.717v26.518c0 5.633 4.566 10.199 10.199 10.199s10.199-4.566 10.199-10.199V20.398h19.972v61.344c0 5.633 4.566 10.199 10.199 10.199s10.199-4.566 10.199-10.199V20.398h19.972v61.344c0 5.633 4.567 10.199 10.199 10.199s10.199-4.566 10.199-10.199V20.398h19.972v61.344c0 5.633 4.567 10.199 10.199 10.199s10.199-4.566 10.199-10.199V20.398h19.717v102.247z"/><path d="M195.444 66.295c-5.633 0-10.199 4.566-10.199 10.199v5.247c0 5.633 4.566 10.199 10.199 10.199s10.199-4.566 10.199-10.199v-5.247c0-5.632-4.566-10.199-10.199-10.199zM256 446.725c-5.633 0-10.199 4.566-10.199 10.199v6.12c0 5.633 4.566 10.199 10.199 10.199 5.632 0 10.199-4.566 10.199-10.199v-6.12c0-5.633-4.567-10.199-10.199-10.199z"/></svg><svg viewBox="0 0 18 18" fill="#fff" id="phone"><path d="M6.366 7.682a10.556 10.556 0 003.952 3.952l.884-1.238a1 1 0 011.294-.296 11.422 11.422 0 004.583 1.364 1 1 0 01.921.997v4.462a1 1 0 01-.898.995A15.51 15.51 0 0115.5 18C6.94 18 0 11.06 0 2.5 0 1.962.027 1.428.082.898A1 1 0 011.077 0h4.462a1 1 0 01.997.921A11.422 11.422 0 007.9 5.504a1 1 0 01-.296 1.294l-1.238.884zm-2.522-.657l1.9-1.357A13.41 13.41 0 014.647 2H2.01c-.006.166-.009.333-.009.5C2 9.956 8.044 16 15.5 16c.167 0 .334-.003.5-.01v-2.637a13.413 13.413 0 01-3.668-1.097l-1.357 1.9a12.446 12.446 0 01-1.588-.75l-.058-.033a12.556 12.556 0 01-4.702-4.702l-.033-.058a12.442 12.442 0 01-.75-1.588z"/></svg><svg fill="#fff" viewBox="0 0 315.12 315.12" id="photo-books"><g fill="##fff"><path d="M140.102 77.411H38.658c-8.271 0-15 6.729-15 15v100.684c0 8.271 6.729 15 15 15h101.443c8.271 0 15-6.729 15-15V92.411c.001-8.271-6.728-15-14.999-15zm-101.444 10h101.443c2.757 0 5 2.243 5 5v21.411l-50.41 45.736c-.936.849-2.113 1.262-3.292 1.165-1.188-.097-2.275-.694-3.061-1.683L72.41 138.99c-5.06-6.367-14.561-7.705-21.181-2.982l-17.572 12.537V92.411a5.007 5.007 0 015.001-5zm101.444 110.683H38.658c-2.757 0-5-2.243-5-5V160.83l23.381-16.682c2.314-1.653 5.77-1.167 7.542 1.063l15.928 20.05c2.525 3.178 6.104 5.106 10.079 5.43.394.032.785.048 1.176.048 3.551 0 6.939-1.317 9.646-3.774l43.691-39.64v65.771a5.004 5.004 0 01-4.999 4.998z"/><path d="M306.861 105.464l-122.1-75.883c-8.194-5.092-19.006-2.571-24.102 5.626l-10.157 16.344H17.5c-9.649 0-17.5 7.851-17.5 17.5v177.016c0 9.649 7.851 17.5 17.5 17.5h142.096l35.354 21.97a17.389 17.389 0 009.208 2.633c5.854-.001 11.581-2.931 14.893-8.258l93.438-150.346c5.092-8.196 2.569-19.007-5.628-24.102zM183.802 71.206l86.161 53.547a5.004 5.004 0 011.607 6.886l-53.146 85.514a5.005 5.005 0 01-6.886 1.608l-32.779-20.372V69.9c.684-.212 2.727-.133 5.043 1.306zM15 246.067V69.051c0-1.355 1.145-2.5 2.5-2.5h143.76c1.355 0 2.5 1.145 2.5 2.5v177.016c0 1.355-1.145 2.5-2.5 2.5H17.5c-1.355 0-2.5-1.145-2.5-2.5zm284.747-124.42L206.31 271.993c-.715 1.15-2.292 1.521-3.442.804L175.71 255.92a17.392 17.392 0 003.05-9.854v-35.904l27.5 17.091a14.857 14.857 0 007.87 2.256c1.148 0 2.307-.132 3.455-.4 3.909-.913 7.224-3.284 9.333-6.678l53.146-85.514c2.109-3.393 2.768-7.415 1.855-11.325-.912-3.909-3.283-7.223-6.677-9.333l-86.161-53.547c-4.286-2.664-8.956-3.445-12.735-2.488a17.577 17.577 0 00-8.896-7.523l5.951-9.577c.715-1.152 2.292-1.519 3.443-.804l122.1 75.882c1.15.718 1.519 2.294.803 3.445z"/></g></svg><svg viewBox="0 0 64 64" fill="#fff" id="photos"><path d="M62 6H10a2 2 0 00-2 2v6H2a2 2 0 00-2 2v40a2 2 0 002 2h52a2 2 0 002-2v-6h6a2 2 0 002-2V8a2 2 0 00-2-2zM52 18v31.651l-10.698-9.17a2 2 0 00-2.331-.196l-8.566 5.14-12.9-14.742a2.003 2.003 0 00-1.438-.682 2.012 2.012 0 00-1.48.585L4 41.172V18h48zM4 46.828l11.902-11.902 12.593 14.392a1.997 1.997 0 002.534.397l8.764-5.258L50.927 54H4v-7.172zM60 46h-4V16a2 2 0 00-2-2H12v-4h48v36z"/><path d="M41 36c3.859 0 7-3.141 7-7s-3.141-7-7-7-7 3.141-7 7 3.141 7 7 7zm0-10c1.654 0 3 1.346 3 3s-1.346 3-3 3-3-1.346-3-3 1.346-3 3-3z"/></svg><svg viewBox="0 0 490 490" fill="#fff" id="promo-materials"><path d="M487.491 81.312L420.967 3.645A10.408 10.408 0 00413.051 0H168.763a10.422 10.422 0 00-10.217 8.358L90.118 346.862H48.88C21.472 346.862 0 378.301 0 418.436 0 458.56 21.472 490 48.88 490h273.615c40.821 0 77.046-31.491 88.098-76.583l79.108-322.845a10.413 10.413 0 00-2.21-9.26zm-30.575-3.645h-49.608l11.036-45.036 38.572 45.036zm-174.31 391.482H48.88c-13.256 0-28.029-20.831-28.029-50.713 0-29.892 14.773-50.722 28.029-50.722h233.727c-8.344 12.868-13.436 30.714-13.436 50.722-.001 20.003 5.091 37.845 13.435 50.713zm107.736-60.701c-8.755 35.736-36.657 60.701-67.847 60.701h-6.705c-10.715 0-22.506-16.097-25.198-40.287h61.388c5.758 0 10.426-4.663 10.426-10.426 0-40.134-20.475-71.574-46.615-71.574H111.387L177.29 20.851h222.474l-15.867 64.762c-1.917 6.566 3.543 12.905 10.125 12.905h72.266l-75.946 309.93zm-99.751-.438c2.693-24.201 14.483-40.297 25.198-40.297 10.711 0 22.501 16.096 25.193 40.297h-50.391z"/></svg><svg viewBox="0 0 512 512" fill="#fff" id="question"><path d="M256 0C114.841 0 0 114.841 0 256s114.841 256 256 256 256-114.841 256-256S397.159 0 256 0zm0 492.308c-130.298 0-236.308-106.01-236.308-236.308S125.702 19.692 256 19.692 492.308 125.702 492.308 256 386.298 492.308 256 492.308z"/><path d="M246.154 118.154c-21.582 0-41.721 8.564-56.707 24.106-3.774 3.913-3.664 10.144.255 13.918 3.909 3.774 10.144 3.664 13.918-.254 11.24-11.655 26.346-18.078 42.534-18.078 32.577 0 59.077 26.501 59.077 59.077 0 20.275-9.447 26.712-26.601 38.394-9.039 6.159-19.288 13.135-29.759 23.543-28.111 27.923-19.394 59.044-10.861 71.597a9.773 9.773 0 008.106 4.289 9.854 9.854 0 005.481-1.669c4.495-3 5.707-9.1 2.745-13.624-1.553-2.371-14.529-23.837 8.404-46.621 9.187-9.125 18.635-15.561 26.971-21.24 18.106-12.331 35.207-23.981 35.207-54.668-.001-43.434-35.338-78.77-78.77-78.77zM245.135 364.308c-5.438 0-9.846 4.41-9.846 9.846V384c0 5.438 4.409 9.846 9.846 9.846 5.438 0 9.846-4.409 9.846-9.846v-9.846c0-5.436-4.409-9.846-9.846-9.846z"/></svg><svg viewBox="0 0 60 60" fill="#fff" id="user"><path d="M48.014 42.889l-9.553-4.776A2.63 2.63 0 0137 35.748v-3.381c.229-.28.47-.599.719-.951a22.886 22.886 0 002.954-5.799A3.968 3.968 0 0043 22v-4c0-.963-.36-1.896-1-2.625v-5.319c.056-.55.276-3.824-2.092-6.525C37.854 1.188 34.521 0 30 0s-7.854 1.188-9.908 3.53C17.724 6.231 17.944 9.506 18 10.056v5.319c-.64.729-1 1.662-1 2.625v4c0 1.217.553 2.352 1.497 3.109.916 3.627 2.833 6.36 3.503 7.237v3.309c0 .968-.528 1.856-1.377 2.32l-8.921 4.866A9.018 9.018 0 007 50.762V54c0 4.746 15.045 6 23 6s23-1.254 23-6v-3.043a8.973 8.973 0 00-4.986-8.068z"/></svg><svg viewBox="0 0 223 223" fill="#fff" id="wallet"><path d="M223 94.5c0-6.075-4.925-11-11-11h-63c-6.075 0-11 4.925-11 11v33c0 6.075 4.925 11 11 11h63c6.075 0 11-4.925 11-11v-33zm-53.485 29.467c-7.082 0-12.823-5.741-12.823-12.823 0-7.082 5.741-12.823 12.823-12.823 7.082 0 12.823 5.741 12.823 12.823 0 7.081-5.741 12.823-12.823 12.823z"/><path d="M123.509 68.5H205v-33c0-8.271-6.395-15-14.667-15h-175C7.062 20.5 0 27.229 0 35.5v152c0 8.271 7.062 15 15.333 15h175c8.271 0 14.667-6.729 14.667-15v-34h-81.342l-.149-85z"/></svg><svg viewBox="0 0 480 480" fill="#fff" id="wallprints"><path d="M470 120H338.938l-64.323-59.965C278.122 54.008 280 47.147 280 40c0-22.056-17.944-40-40-40s-40 17.944-40 40c0 7.147 1.878 14.008 5.385 20.035L141.062 120H10c-5.523 0-10 4.478-10 10v340c0 5.522 4.477 10 10 10h460c5.523 0 10-4.478 10-10V130c0-5.522-4.477-10-10-10zM240 20c11.028 0 20 8.972 20 20 0 5.327-2.084 10.345-5.87 14.13C250.345 57.915 245.327 60 240 60s-10.345-2.085-14.13-5.87C222.084 50.345 220 45.327 220 40c0-11.028 8.972-20 20-20zm-20.585 54.298C225.572 78.014 232.636 80 240 80s14.428-1.986 20.585-5.702L309.608 120H170.392l49.023-45.702zM445.858 140l-20.001 20H54.143l-20-20h411.715zM321.979 338.969l48.714-27.847L420 331.666v52.685l-98.021-45.382zM420 406.39V420H60v-38.229l164.706-65.883 71.289 33.089L420 406.39zm-46.154-115.62a10 10 0 00-8.809.549l-65.319 37.338-70.508-32.727a10.005 10.005 0 00-7.924-.215L60 360.229V180h360v130l-46.154-19.23zM20 154.143l20 20v251.715l-20 20V154.143zM34.143 460l20-20h371.715l20 20H34.143zM460 445.858l-20-20.001V174.143l20-20v291.715z"/><path d="M140 200c-24.813 0-45 20.187-45 45s20.187 45 45 45 45-20.187 45-45-20.187-45-45-45zm0 70c-13.785 0-25-11.215-25-25s11.215-25 25-25 25 11.215 25 25-11.215 25-25 25zM280 200c-7.678 0-14.688 2.902-20 7.664-5.312-4.762-12.322-7.664-20-7.664-16.542 0-30 13.458-30 30h20c0-5.514 4.486-10 10-10s10 4.486 10 10h20c0-5.514 4.486-10 10-10s10 4.486 10 10h20c0-16.542-13.458-30-30-30zM370 240c-7.678 0-14.688 2.902-20 7.664-5.312-4.762-12.322-7.664-20-7.664-16.542 0-30 13.458-30 30h20c0-5.514 4.486-10 10-10s10 4.486 10 10h20c0-5.514 4.486-10 10-10s10 4.486 10 10h20c0-16.542-13.458-30-30-30z"/></svg></svg>